<svg width="95" height="38" viewBox="0 0 95 38" fill="none" xmlns="http://www.w3.org/2000/svg">
<path d="M1.504 30.16V26L19.904 26.032C20.8427 26.032 21.5573 25.8187 22.048 25.392C22.56 24.944 22.816 24.2293 22.816 23.248C22.816 22.2667 22.56 21.5627 22.048 21.136C21.5573 20.688 20.8427 20.464 19.904 20.464H8.448C6.08 20.464 4.23467 19.8987 2.912 18.768C1.61067 17.616 0.96 15.9307 0.96 13.712C0.96 11.4933 1.61067 9.81867 2.912 8.688C4.23467 7.536 6.08 6.96 8.448 6.96H26.432V11.12L8.992 11.088C8.07467 11.088 7.36 11.3013 6.848 11.728C6.336 12.1333 6.08 12.7947 6.08 13.712C6.08 14.6293 6.336 15.3013 6.848 15.728C7.36 16.1333 8.07467 16.336 8.992 16.336H20.448C22.816 16.336 24.6507 16.9227 25.952 18.096C27.2747 19.248 27.936 20.9653 27.936 23.248C27.936 25.5093 27.2747 27.2267 25.952 28.4C24.6507 29.5733 22.816 30.16 20.448 30.16H1.504ZM40.3943 30.16C38.0689 30.16 36.2343 29.8613 34.8903 29.264C33.5463 28.6453 32.5863 27.7173 32.0103 26.48C31.4343 25.2427 31.1463 23.6853 31.1463 21.808V7.12H36.2663V21.808C36.2663 23.4293 36.6396 24.5387 37.3863 25.136C38.1543 25.712 39.4449 26 41.2583 26H47.4343C49.2476 26 50.5276 25.712 51.2743 25.136C52.0423 24.5387 52.4263 23.4293 52.4263 21.808V7.12H57.5463V21.808C57.5463 23.6853 57.2583 25.2427 56.6823 26.48C56.1063 27.7173 55.1463 28.6453 53.8023 29.264C52.4583 29.8613 50.6236 30.16 48.2983 30.16H40.3943ZM61.2853 30.16V26L79.6853 26.032C80.6239 26.032 81.3386 25.8187 81.8293 25.392C82.3413 24.944 82.5973 24.2293 82.5973 23.248C82.5973 22.2667 82.3413 21.5627 81.8293 21.136C81.3386 20.688 80.6239 20.464 79.6853 20.464H68.2292C65.8613 20.464 64.0159 19.8987 62.6933 18.768C61.3919 17.616 60.7413 15.9307 60.7413 13.712C60.7413 11.4933 61.3919 9.81867 62.6933 8.688C64.0159 7.536 65.8613 6.96 68.2292 6.96H86.2133V11.12L68.7733 11.088C67.8559 11.088 67.1413 11.3013 66.6293 11.728C66.1173 12.1333 65.8613 12.7947 65.8613 13.712C65.8613 14.6293 66.1173 15.3013 66.6293 15.728C67.1413 16.1333 67.8559 16.336 68.7733 16.336H80.2293C82.5973 16.336 84.4319 16.9227 85.7333 18.096C87.0559 19.248 87.7173 20.9653 87.7173 23.248C87.7173 25.5093 87.0559 27.2267 85.7333 28.4C84.4319 29.5733 82.5973 30.16 80.2293 30.16H61.2853Z" fill="#0078C2"/>
<path d="M3.504 30.16V26L21.904 26.032C22.8427 26.032 23.5573 25.8187 24.048 25.392C24.56 24.944 24.816 24.2293 24.816 23.248C24.816 22.2667 24.56 21.5627 24.048 21.136C23.5573 20.688 22.8427 20.464 21.904 20.464H10.448C8.08 20.464 6.23467 19.8987 4.912 18.768C3.61067 17.616 2.96 15.9307 2.96 13.712C2.96 11.4933 3.61067 9.81867 4.912 8.688C6.23467 7.536 8.08 6.96 10.448 6.96H28.432V11.12L10.992 11.088C10.0747 11.088 9.36 11.3013 8.848 11.728C8.336 12.1333 8.08 12.7947 8.08 13.712C8.08 14.6293 8.336 15.3013 8.848 15.728C9.36 16.1333 10.0747 16.336 10.992 16.336H22.448C24.816 16.336 26.6507 16.9227 27.952 18.096C29.2747 19.248 29.936 20.9653 29.936 23.248C29.936 25.5093 29.2747 27.2267 27.952 28.4C26.6507 29.5733 24.816 30.16 22.448 30.16H3.504ZM42.3943 30.16C40.0689 30.16 38.2343 29.8613 36.8903 29.264C35.5463 28.6453 34.5863 27.7173 34.0103 26.48C33.4343 25.2427 33.1463 23.6853 33.1463 21.808V7.12H38.2663V21.808C38.2663 23.4293 38.6396 24.5387 39.3863 25.136C40.1543 25.712 41.4449 26 43.2583 26H49.4343C51.2476 26 52.5276 25.712 53.2743 25.136C54.0423 24.5387 54.4263 23.4293 54.4263 21.808V7.12H59.5463V21.808C59.5463 23.6853 59.2583 25.2427 58.6823 26.48C58.1063 27.7173 57.1463 28.6453 55.8023 29.264C54.4583 29.8613 52.6236 30.16 50.2983 30.16H42.3943ZM63.2853 30.16V26L81.6853 26.032C82.6239 26.032 83.3386 25.8187 83.8293 25.392C84.3413 24.944 84.5973 24.2293 84.5973 23.248C84.5973 22.2667 84.3413 21.5627 83.8293 21.136C83.3386 20.688 82.6239 20.464 81.6853 20.464H70.2292C67.8613 20.464 66.0159 19.8987 64.6933 18.768C63.3919 17.616 62.7413 15.9307 62.7413 13.712C62.7413 11.4933 63.3919 9.81867 64.6933 8.688C66.0159 7.536 67.8613 6.96 70.2292 6.96H88.2133V11.12L70.7733 11.088C69.8559 11.088 69.1413 11.3013 68.6293 11.728C68.1173 12.1333 67.8613 12.7947 67.8613 13.712C67.8613 14.6293 68.1173 15.3013 68.6293 15.728C69.1413 16.1333 69.8559 16.336 70.7733 16.336H82.2293C84.5973 16.336 86.4319 16.9227 87.7333 18.096C89.0559 19.248 89.7173 20.9653 89.7173 23.248C89.7173 25.5093 89.0559 27.2267 87.7333 28.4C86.4319 29.5733 84.5973 30.16 82.2293 30.16H63.2853Z" fill="#EF852F"/>
<path d="M5.504 30.16V26L23.904 26.032C24.8427 26.032 25.5573 25.8187 26.048 25.392C26.56 24.944 26.816 24.2293 26.816 23.248C26.816 22.2667 26.56 21.5627 26.048 21.136C25.5573 20.688 24.8427 20.464 23.904 20.464H12.448C10.08 20.464 8.23467 19.8987 6.912 18.768C5.61067 17.616 4.96 15.9307 4.96 13.712C4.96 11.4933 5.61067 9.81867 6.912 8.688C8.23467 7.536 10.08 6.96 12.448 6.96H30.432V11.12L12.992 11.088C12.0747 11.088 11.36 11.3013 10.848 11.728C10.336 12.1333 10.08 12.7947 10.08 13.712C10.08 14.6293 10.336 15.3013 10.848 15.728C11.36 16.1333 12.0747 16.336 12.992 16.336H24.448C26.816 16.336 28.6507 16.9227 29.952 18.096C31.2747 19.248 31.936 20.9653 31.936 23.248C31.936 25.5093 31.2747 27.2267 29.952 28.4C28.6507 29.5733 26.816 30.16 24.448 30.16H5.504ZM44.3943 30.16C42.0689 30.16 40.2343 29.8613 38.8903 29.264C37.5463 28.6453 36.5863 27.7173 36.0103 26.48C35.4343 25.2427 35.1463 23.6853 35.1463 21.808V7.12H40.2663V21.808C40.2663 23.4293 40.6396 24.5387 41.3863 25.136C42.1543 25.712 43.4449 26 45.2583 26H51.4343C53.2476 26 54.5276 25.712 55.2743 25.136C56.0423 24.5387 56.4263 23.4293 56.4263 21.808V7.12H61.5463V21.808C61.5463 23.6853 61.2583 25.2427 60.6823 26.48C60.1063 27.7173 59.1463 28.6453 57.8023 29.264C56.4583 29.8613 54.6236 30.16 52.2983 30.16H44.3943ZM65.2853 30.16V26L83.6853 26.032C84.6239 26.032 85.3386 25.8187 85.8293 25.392C86.3413 24.944 86.5973 24.2293 86.5973 23.248C86.5973 22.2667 86.3413 21.5627 85.8293 21.136C85.3386 20.688 84.6239 20.464 83.6853 20.464H72.2292C69.8613 20.464 68.0159 19.8987 66.6933 18.768C65.3919 17.616 64.7413 15.9307 64.7413 13.712C64.7413 11.4933 65.3919 9.81867 66.6933 8.688C68.0159 7.536 69.8613 6.96 72.2292 6.96H90.2133V11.12L72.7733 11.088C71.8559 11.088 71.1413 11.3013 70.6293 11.728C70.1173 12.1333 69.8613 12.7947 69.8613 13.712C69.8613 14.6293 70.1173 15.3013 70.6293 15.728C71.1413 16.1333 71.8559 16.336 72.7733 16.336H84.2293C86.5973 16.336 88.4319 16.9227 89.7333 18.096C91.0559 19.248 91.7173 20.9653 91.7173 23.248C91.7173 25.5093 91.0559 27.2267 89.7333 28.4C88.4319 29.5733 86.5973 30.16 84.2293 30.16H65.2853Z" fill="#CE3727"/>
<path d="M7.504 30.16V26L25.904 26.032C26.8427 26.032 27.5573 25.8187 28.048 25.392C28.56 24.944 28.816 24.2293 28.816 23.248C28.816 22.2667 28.56 21.5627 28.048 21.136C27.5573 20.688 26.8427 20.464 25.904 20.464H14.448C12.08 20.464 10.2347 19.8987 8.912 18.768C7.61067 17.616 6.96 15.9307 6.96 13.712C6.96 11.4933 7.61067 9.81867 8.912 8.688C10.2347 7.536 12.08 6.96 14.448 6.96H32.432V11.12L14.992 11.088C14.0747 11.088 13.36 11.3013 12.848 11.728C12.336 12.1333 12.08 12.7947 12.08 13.712C12.08 14.6293 12.336 15.3013 12.848 15.728C13.36 16.1333 14.0747 16.336 14.992 16.336H26.448C28.816 16.336 30.6507 16.9227 31.952 18.096C33.2747 19.248 33.936 20.9653 33.936 23.248C33.936 25.5093 33.2747 27.2267 31.952 28.4C30.6507 29.5733 28.816 30.16 26.448 30.16H7.504ZM46.3943 30.16C44.0689 30.16 42.2343 29.8613 40.8903 29.264C39.5463 28.6453 38.5863 27.7173 38.0103 26.48C37.4343 25.2427 37.1463 23.6853 37.1463 21.808V7.12H42.2663V21.808C42.2663 23.4293 42.6396 24.5387 43.3863 25.136C44.1543 25.712 45.4449 26 47.2583 26H53.4343C55.2476 26 56.5276 25.712 57.2743 25.136C58.0423 24.5387 58.4263 23.4293 58.4263 21.808V7.12H63.5463V21.808C63.5463 23.6853 63.2583 25.2427 62.6823 26.48C62.1063 27.7173 61.1463 28.6453 59.8023 29.264C58.4583 29.8613 56.6236 30.16 54.2983 30.16H46.3943ZM67.2853 30.16V26L85.6853 26.032C86.6239 26.032 87.3386 25.8187 87.8293 25.392C88.3413 24.944 88.5973 24.2293 88.5973 23.248C88.5973 22.2667 88.3413 21.5627 87.8293 21.136C87.3386 20.688 86.6239 20.464 85.6853 20.464H74.2292C71.8613 20.464 70.0159 19.8987 68.6933 18.768C67.3919 17.616 66.7413 15.9307 66.7413 13.712C66.7413 11.4933 67.3919 9.81867 68.6933 8.688C70.0159 7.536 71.8613 6.96 74.2292 6.96H92.2133V11.12L74.7733 11.088C73.8559 11.088 73.1413 11.3013 72.6293 11.728C72.1173 12.1333 71.8613 12.7947 71.8613 13.712C71.8613 14.6293 72.1173 15.3013 72.6293 15.728C73.1413 16.1333 73.8559 16.336 74.7733 16.336H86.2293C88.5973 16.336 90.4319 16.9227 91.7333 18.096C93.0559 19.248 93.7173 20.9653 93.7173 23.248C93.7173 25.5093 93.0559 27.2267 91.7333 28.4C90.4319 29.5733 88.5973 30.16 86.2293 30.16H67.2853Z" fill="white"/>
</svg>
