<svg width="32" height="32" viewBox="0 0 32 32" fill="none" xmlns="http://www.w3.org/2000/svg">
<g clip-path="url(#clip0_477_11196)">
<path d="M8.37111 0H9.61556C11.2378 0.242222 12.7511 1.25111 13.4733 2.74222C13.9444 3.60889 13.9867 4.61111 14.0578 5.56889C14.1533 6.97778 14.7489 8.36222 15.7533 9.36222C17.9756 11.5822 20.2022 13.7978 22.4156 16.0267C23.0889 16.7489 23.9311 17.3133 24.8711 17.6244C26.2311 18.1533 27.7867 17.7889 29.1067 18.4533C30.6711 19.1467 31.7444 20.6978 32 22.3711V23.62C31.7222 25.7467 30.0378 27.5 27.9578 27.9556C27.5 30.0311 25.7533 31.7178 23.6289 32H22.3844C20.7022 31.7511 19.1422 30.6689 18.4489 29.0978C17.9 28.0044 18.0556 26.7422 17.8244 25.5733C17.58 24.4778 17.0533 23.4333 16.2489 22.64C13.9511 20.3489 11.6556 18.0533 9.36222 15.7556C8.74444 15.1267 7.97333 14.6644 7.14222 14.38C5.78 13.8467 4.22667 14.2111 2.89778 13.5511C1.33333 12.8556 0.257778 11.3044 0 9.62889V8.38444C0.273333 6.25556 1.96222 4.5 4.04222 4.04444C4.5 1.96667 6.24667 0.282222 8.37111 0V0ZM6.01333 5.03778C5.87556 5.34 5.70444 5.62667 5.56667 5.93111C3.92 5.79556 2.10222 6.92 2.03111 8.68222C1.76 10.3867 3.24 12.0222 4.94222 12.0133C7.08 12.0178 9.25556 12.7956 10.7756 14.3289C13.0711 16.6289 15.3689 18.9267 17.6689 21.2222C19.2 22.7422 19.9844 24.9178 19.9867 27.0556C19.9889 28.5933 21.3311 30.0289 22.8956 29.98C24.0867 30.0867 25.2422 29.3378 25.7378 28.2711C26.0133 27.7756 26.0222 27.2022 26.1156 26.6578C26.24 26.2822 26.62 26.12 26.9533 25.98C27.7044 26 28.4689 25.7711 29.0133 25.2356C30.2289 24.2111 30.3267 22.1444 29.2422 20.9933C28.6667 20.3089 27.7822 19.9889 26.9044 19.9778C24.7622 19.96 22.6044 19.1156 21.1133 17.5622C18.9667 15.4111 16.82 13.2644 14.6711 11.1178C13.3889 9.96889 12.54 8.39111 12.1889 6.71556C11.9778 5.80667 12.1222 4.84667 11.8289 3.95111C11.3978 2.76667 10.1644 1.9 8.88667 2.02C7.30222 1.97778 5.91556 3.46444 6.01333 5.03778Z" fill="black"/>
<path d="M6.01347 5.03791C5.9157 3.46458 7.30236 1.97791 8.88681 2.02013C10.1646 1.90013 11.3979 2.7668 11.829 3.95125C12.1224 4.8468 11.9779 5.8068 12.189 6.71569C12.5401 8.39124 13.389 9.96902 14.6713 11.1179C16.8201 13.2646 18.9668 15.4112 21.1135 17.5624C22.6046 19.1157 24.7624 19.9601 26.9046 19.9779C27.7824 19.989 28.6668 20.309 29.2424 20.9935C30.3268 22.1446 30.229 24.2112 29.0135 25.2357C28.469 25.7712 27.7046 26.0001 26.9535 25.9801C27.0313 25.5735 27.0201 25.1312 27.2157 24.7579C27.4846 24.4024 27.8601 24.1535 28.1957 23.869C28.1668 23.6335 28.1401 23.3957 28.1135 23.1601C27.0446 23.0979 26.1357 24.069 26.0624 25.0957C25.9868 26.1579 25.949 27.2246 25.7379 28.2712C25.2424 29.3379 24.0868 30.0868 22.8957 29.9801C21.3313 30.029 19.989 28.5935 19.9868 27.0557C19.9846 24.9179 19.2001 22.7424 17.669 21.2224C15.369 18.9268 13.0713 16.629 10.7757 14.329C9.2557 12.7957 7.08014 12.0179 4.94236 12.0135C3.24014 12.0224 1.76014 10.3868 2.03125 8.68236C2.10236 6.92013 3.92014 5.79569 5.56681 5.93125C6.28236 5.94236 7.06236 6.09125 7.70903 5.70458C8.38236 5.35347 8.86903 4.67569 8.85347 3.90013C8.61347 3.86902 8.37125 3.83569 8.13125 3.80236C7.80236 4.17347 7.54014 4.64902 7.0757 4.86902C6.72681 4.95569 6.36903 4.99125 6.01347 5.03791Z" fill="#F2F2F2"/>
<path d="M8.13134 3.80225C8.37134 3.83558 8.61356 3.86891 8.85356 3.90002C8.86912 4.67558 8.38245 5.35336 7.70912 5.70447C7.06245 6.09113 6.28245 5.94225 5.56689 5.93113C5.70467 5.62669 5.87578 5.34002 6.01356 5.0378C6.36912 4.99113 6.72689 4.95558 7.07578 4.86891C7.54023 4.64891 7.80245 4.17336 8.13134 3.80225Z" fill="#A6A6A6"/>
<path d="M26.0622 25.0956C26.1356 24.069 27.0445 23.0978 28.1134 23.1601C28.14 23.3956 28.1667 23.6334 28.1956 23.869C27.86 24.1534 27.4845 24.4023 27.2156 24.7578C27.02 25.1312 27.0311 25.5734 26.9533 25.9801C26.62 26.1201 26.24 26.2823 26.1156 26.6578C26.0222 27.2023 26.0133 27.7756 25.7378 28.2712C25.9489 27.2245 25.9867 26.1578 26.0622 25.0956Z" fill="#A6A6A6"/>
</g>
<defs>
<clipPath id="clip0_477_11196">
<rect width="32" height="32" fill="white"/>
</clipPath>
</defs>
</svg>
