<svg width="32" height="32" viewBox="0 0 32 32" fill="none" xmlns="http://www.w3.org/2000/svg">
<path d="M0 4.4978H32V27.4934C21.3333 27.4934 10.6667 27.4934 0 27.4934V4.4978ZM2.02667 6.50225C2.02667 7.2978 2.02667 8.09336 2.02889 8.88891C1.98444 13.4289 2.04 17.9689 2.03333 22.5111L1.94222 22.5134C1.96889 22.8356 1.99778 23.1578 2.02667 23.48C2.02667 23.8222 2.02667 24.1645 2.03111 24.5089H1.95111C1.96667 24.8334 1.98222 25.16 2 25.4867C5.98889 25.5 9.97556 25.4934 13.9644 25.4889C15.32 25.4956 16.6756 25.4956 18.0311 25.4889C22.0133 25.4978 25.9956 25.4911 29.9756 25.4934C29.9733 25.1645 29.9711 24.8378 29.9711 24.5111C29.9733 24.1711 29.9756 23.8311 29.9756 23.4934C30.0067 23.1689 30.0356 22.8467 30.0644 22.5222L29.9578 22.52C30.1622 19.9822 29.8533 17.4378 30.0222 14.8978C29.9311 12.9689 30.1022 11.04 29.9956 9.11114C29.9467 8.24669 29.9711 7.38002 30.0378 6.51558C26.0333 6.48669 22.0289 6.51114 18.0244 6.50225C16.6733 6.50225 15.3222 6.50225 13.9711 6.50225C9.98889 6.50225 6.00667 6.50447 2.02667 6.50225V6.50225Z" fill="black"/>
<path d="M2.02689 6.5022C6.00689 6.50442 9.98911 6.5022 13.9713 6.5022C13.9691 6.83109 13.9691 7.15775 13.9691 7.48442C10.3136 7.48442 6.65578 7.48442 3.00022 7.48442C2.998 12.1511 3.00245 16.8178 2.998 21.4844C6.65578 21.4889 10.3136 21.4844 13.9691 21.4866V22.5C9.99133 22.5133 6.01133 22.4933 2.03356 22.5111C2.04022 17.9689 1.98467 13.4289 2.02911 8.88886C2.02689 8.09331 2.02689 7.29775 2.02689 6.5022V6.5022Z" fill="#FAFFB4"/>
<path d="M18.0243 6.50226C22.0287 6.51115 26.0331 6.4867 30.0376 6.51559C29.9709 7.38003 29.9465 8.2467 29.9954 9.11115C30.102 11.04 29.9309 12.9689 30.022 14.8978C29.8531 17.4378 30.162 19.9823 29.9576 22.52C25.9665 22.4867 21.9776 22.5067 17.9865 22.5111C17.9798 22.1667 17.9754 21.8223 17.9731 21.48C21.6487 21.4956 25.3243 21.4845 29.002 21.4845C28.9998 16.8178 29.0043 12.1511 28.9998 7.48448C25.342 7.48448 21.682 7.48448 18.0243 7.48448C18.0243 7.15781 18.0243 6.83115 18.0243 6.50226V6.50226Z" fill="#FAFFB4"/>
<path d="M13.9712 6.5022H18.0245V7.48442C18.0267 7.82442 18.0267 8.1622 18.029 8.5022C18.0334 9.29553 18.0356 10.0889 18.0223 10.8822C17.9823 14.4133 18.0401 17.9466 17.9734 21.48C17.9756 21.8222 17.9801 22.1666 17.9867 22.5111C16.6467 22.4866 15.3067 22.48 13.969 22.5C13.969 22.1622 13.969 21.8244 13.969 21.4866C13.9645 17.9555 13.9801 14.4222 13.9601 10.8889C13.9579 10.0933 13.9623 9.29775 13.9645 8.5022C13.9667 8.1622 13.9667 7.82442 13.969 7.48442C13.969 7.15775 13.969 6.83109 13.9712 6.5022V6.5022Z" fill="#F2F2F2"/>
<path d="M3.00027 7.48438H13.9692C13.9669 7.82437 13.9669 8.16215 13.9647 8.50215C11.3469 8.50437 8.72694 8.49549 6.10916 8.50882C5.91138 8.97326 5.76471 9.47771 5.43805 9.87326C5.03582 10.2622 4.4736 10.4088 3.97582 10.6333C3.96694 13.2177 3.96249 15.7999 3.97805 18.3844C4.4536 18.5822 4.9736 18.7244 5.37582 19.0622C5.7536 19.4599 5.90694 20.0066 6.13138 20.4955C7.40249 20.5066 8.6736 20.4999 9.94471 20.5044C9.98027 20.1666 10.018 19.8288 10.0536 19.4888C11.0092 19.491 11.9625 19.4888 12.9158 19.5022C11.6314 18.3488 10.7825 16.6444 11.0447 14.8866C11.2225 13.1377 12.4469 11.6955 13.9603 10.8888C13.9803 14.4222 13.9647 17.9555 13.9692 21.4866C10.3136 21.4844 6.65582 21.4888 2.99805 21.4844C3.00249 16.8177 2.99805 12.151 3.00027 7.48438V7.48438Z" fill="#757575"/>
<path d="M18.0247 7.48438H29.0003C29.0047 12.151 29.0003 16.8177 29.0025 21.4844C25.3247 21.4844 21.6492 21.4955 17.9736 21.4799C18.0403 17.9466 17.9825 14.4133 18.0225 10.8822C19.6892 11.7355 20.9736 13.4133 20.9936 15.3377C21.0914 16.9533 20.2492 18.4399 19.087 19.5022C20.0403 19.4888 20.9936 19.491 21.947 19.4888C21.9825 19.8288 22.0203 20.1666 22.0581 20.5044C23.3359 20.4999 24.6159 20.5066 25.8936 20.4933C26.1047 20.0066 26.2336 19.4533 26.6136 19.0622C27.007 18.7399 27.5025 18.591 27.9625 18.3977C27.9781 15.8044 27.9647 13.211 27.9692 10.6177C27.4892 10.4022 26.9581 10.251 26.5625 9.8866C26.2336 9.49104 26.0959 8.97993 25.9047 8.51104C23.2803 8.49326 20.6536 8.5066 18.0292 8.50215C18.027 8.16215 18.027 7.82437 18.0247 7.48438V7.48438Z" fill="#757575"/>
<path d="M2.03117 24.5088C6.01117 24.5044 9.98895 24.5088 13.9667 24.5066C13.9667 24.8333 13.9667 25.1599 13.9645 25.4888C9.97562 25.4933 5.98895 25.4999 2.00006 25.4866C1.98228 25.1599 1.96673 24.8333 1.95117 24.5088H2.03117Z" fill="#757575"/>
<path d="M18.0312 24.5066C22.0112 24.511 25.9912 24.5021 29.9712 24.511C29.9712 24.8377 29.9735 25.1644 29.9757 25.4933C25.9957 25.491 22.0135 25.4977 18.0312 25.4888C18.0312 25.1599 18.0312 24.8333 18.0312 24.5066V24.5066Z" fill="#757575"/>
<path d="M6.10918 8.50876C8.72696 8.49543 11.347 8.50431 13.9647 8.50209C13.9625 9.29765 13.9581 10.0932 13.9603 10.8888C12.447 11.6954 11.2225 13.1376 11.0447 14.8865C10.7825 16.6443 11.6314 18.3488 12.9158 19.5021C11.9625 19.4888 11.0092 19.491 10.0536 19.4888C10.0181 19.8288 9.98029 20.1665 9.94474 20.5043C8.67363 20.4999 7.40251 20.5065 6.1314 20.4954C5.90696 20.0065 5.75363 19.4599 5.37585 19.0621C4.97363 18.7243 4.45363 18.5821 3.97807 18.3843C3.96251 15.7999 3.96696 13.2176 3.97585 10.6332C4.47363 10.4088 5.03585 10.2621 5.43807 9.8732C5.76474 9.47765 5.9114 8.9732 6.10918 8.50876V8.50876ZM7.00474 11.4932C7.00029 11.831 6.99807 12.171 6.99363 12.511C6.41363 12.8888 5.85585 13.471 6.03807 14.2332C6.10918 15.1554 7.09585 15.5288 7.8914 15.5776C7.91807 15.8265 7.94696 16.0754 7.93585 16.3265C7.30918 16.4999 6.64029 16.2443 6.00029 16.4132C6.27363 16.8221 6.60918 17.1843 6.9914 17.4976C6.99807 17.8332 7.00029 18.1665 7.00696 18.5043C7.32029 18.5065 7.63363 18.511 7.94696 18.5176C7.98474 18.1665 8.02251 17.8154 8.05807 17.4665C8.67363 17.0443 9.23585 16.3421 8.93807 15.5488C8.68696 14.6821 7.71585 14.5621 7.00918 14.2532C6.93807 13.8954 7.1514 13.6554 7.41807 13.4621C7.90029 13.751 8.44918 13.6643 8.9714 13.571C8.48918 12.931 7.79363 12.391 7.92474 11.4888C7.61807 11.491 7.3114 11.491 7.00474 11.4932V11.4932Z" fill="#F8FFB3"/>
<path d="M18.0291 8.50238C20.6536 8.50683 23.2802 8.49349 25.9047 8.51127C26.0958 8.98016 26.2336 9.49127 26.5625 9.88683C26.958 10.2513 27.4891 10.4024 27.9691 10.6179C27.9647 13.2113 27.978 15.8046 27.9625 18.3979C27.5025 18.5913 27.0069 18.7402 26.6136 19.0624C26.2336 19.4535 26.1047 20.0068 25.8936 20.4935C24.6158 20.5068 23.3358 20.5002 22.058 20.5046C22.0202 20.1668 21.9825 19.829 21.9469 19.489C20.9936 19.4913 20.0402 19.489 19.0869 19.5024C20.2491 18.4402 21.0914 16.9535 20.9936 15.3379C20.9736 13.4135 19.6891 11.7357 18.0225 10.8824C18.0358 10.0891 18.0336 9.29572 18.0291 8.50238V8.50238ZM23.8514 13.649C22.8091 14.0979 22.7136 15.7246 23.7136 16.2757C24.5825 16.8913 25.9536 16.1913 25.9758 15.1357C26.1625 14.0357 24.818 13.089 23.8514 13.649V13.649Z" fill="#F8FFB3"/>
<path d="M2.02686 23.48C6.00686 23.4889 9.98686 23.48 13.9691 23.4844C13.9691 23.8244 13.9691 24.1666 13.9669 24.5066C9.98908 24.5089 6.0113 24.5044 2.0313 24.5089C2.02686 24.1644 2.02686 23.8222 2.02686 23.48V23.48Z" fill="#F8FFB3"/>
<path d="M18.02 23.4845C22.0045 23.4867 25.9911 23.4734 29.9756 23.4934C29.9756 23.8312 29.9734 24.1712 29.9711 24.5112C25.9911 24.5023 22.0111 24.5112 18.0311 24.5067C18.0289 24.1645 18.0267 23.8245 18.02 23.4845V23.4845Z" fill="#F8FFB3"/>
<path d="M7.00444 11.4932C7.31111 11.491 7.61778 11.491 7.92444 11.4888C7.79333 12.391 8.48889 12.931 8.97111 13.571C8.44889 13.6643 7.9 13.751 7.41778 13.4621C7.15111 13.6554 6.93778 13.8954 7.00889 14.2532C7.71556 14.5621 8.68667 14.6821 8.93778 15.5488C9.23556 16.3421 8.67333 17.0443 8.05778 17.4665C8.02222 17.8154 7.98444 18.1665 7.94667 18.5177C7.63333 18.511 7.32 18.5065 7.00667 18.5043C7 18.1665 6.99778 17.8332 6.99111 17.4977C6.60889 17.1843 6.27333 16.8221 6 16.4132C6.64 16.2443 7.30889 16.4999 7.93556 16.3265C7.94667 16.0754 7.91778 15.8265 7.89111 15.5777C7.09556 15.5288 6.10889 15.1554 6.03778 14.2332C5.85556 13.471 6.41333 12.8888 6.99333 12.511C6.99778 12.171 7 11.831 7.00444 11.4932V11.4932Z" fill="#13A10E"/>
<path d="M23.8509 13.6488C24.8176 13.0888 26.162 14.0354 25.9753 15.1354C25.9531 16.191 24.582 16.891 23.7131 16.2754C22.7131 15.7243 22.8087 14.0977 23.8509 13.6488V13.6488Z" fill="#13A10E"/>
<path d="M2.03301 22.5111C6.01078 22.4933 9.99078 22.5133 13.9686 22.5V23.4844C9.98634 23.48 6.00634 23.4889 2.02634 23.48C1.99745 23.1578 1.96856 22.8356 1.94189 22.5133L2.03301 22.5111Z" fill="#737374"/>
<path d="M17.9868 22.5112C21.9779 22.5068 25.9668 22.4868 29.9579 22.5201L30.0646 22.5223C30.0357 22.8468 30.0068 23.169 29.9757 23.4934C25.9913 23.4734 22.0046 23.4868 18.0201 23.4846C18.0113 23.1601 18.0001 22.8357 17.9868 22.5112V22.5112Z" fill="#737374"/>
<path d="M13.9688 22.5001C15.3066 22.4801 16.6466 22.4867 17.9866 22.5112C17.9999 22.8356 18.011 23.1601 18.0199 23.4845C18.0266 23.8245 18.0288 24.1645 18.031 24.5067V25.4889C16.6755 25.4956 15.3199 25.4956 13.9644 25.4889C13.9666 25.16 13.9666 24.8334 13.9666 24.5067C13.9688 24.1667 13.9688 23.8245 13.9688 23.4845C13.9688 23.1556 13.9688 22.8289 13.9688 22.5001Z" fill="#E5E5E5"/>
</svg>
