<svg width="32" height="32" viewBox="0 0 32 32" fill="none" xmlns="http://www.w3.org/2000/svg">
<g clip-path="url(#clip0_477_11090)">
<path d="M14.9667 0H17.0244C20.3356 0.24 23.5778 1.49111 26.14 3.60889C29.5578 6.36444 31.6956 10.5889 32 14.96V17.0289C31.7578 20.3444 30.5044 23.5889 28.3822 26.1533C25.6222 29.5667 21.3978 31.7 17.0267 32H14.9733C11.66 31.7578 8.41556 30.5067 5.85111 28.3844C2.43556 25.6267 0.3 21.4 0 17.0289V14.9756C0.297778 10.6044 2.43333 6.37778 5.84667 3.61778C8.41111 1.49556 11.6533 0.244444 14.9667 0ZM14.7022 2.05778C9.62444 2.44889 4.97333 5.91556 3.05778 10.62C1.48 14.4244 1.66889 18.9422 3.62444 22.5733C4.98222 25.1378 7.16222 27.2578 9.76 28.5489C13.3378 30.3467 17.7 30.48 21.3911 28.9356C24.5689 27.62 27.22 25.0867 28.6778 21.9711C29.9356 19.3756 30.2422 16.3933 29.8 13.5644C29.1511 9.75333 26.8222 6.28 23.5644 4.20667C20.9644 2.51556 17.7867 1.76444 14.7022 2.05778Z" fill="black"/>
<path d="M14.7022 2.05769C17.7867 1.76435 20.9645 2.51546 23.5645 4.20657C26.8222 6.27991 29.1511 9.75324 29.8 13.5644C30.2422 16.3932 29.9356 19.3755 28.6778 21.971C27.22 25.0866 24.5689 27.6199 21.3911 28.9355C17.7 30.4799 13.3378 30.3466 9.76001 28.5488C7.16223 27.2577 4.98223 25.1377 3.62446 22.5732C1.6689 18.9421 1.48001 14.4244 3.05779 10.6199C4.97335 5.91546 9.62446 2.4488 14.7022 2.05769ZM13.4267 3.24435C8.64223 4.15324 4.57779 7.99102 3.40668 12.7221C2.46446 16.2732 3.13112 20.2132 5.19557 23.2532C6.88223 25.7844 9.49112 27.6821 12.4156 28.5088C15.9422 29.5288 19.9022 28.9821 22.9911 26.9844C25.6533 25.2955 27.6445 22.5999 28.5133 19.5732C30.1467 14.251 27.8067 8.07546 23.1156 5.10435C20.2978 3.24435 16.7356 2.56657 13.4267 3.24435Z" fill="#EBA300"/>
<path d="M14.3177 4.12446C16.7266 3.82223 19.2333 4.17112 21.3977 5.29557C24.5577 6.88223 26.9444 9.92223 27.7044 13.38C28.2999 16.1689 27.9355 19.1778 26.5533 21.6867C24.491 25.56 20.1777 28.1489 15.7688 27.9689C10.4866 28.0022 5.57326 24.02 4.36437 18.9022C3.71104 16.1956 3.97771 13.2467 5.22437 10.7445C6.9266 7.22446 10.4377 4.64668 14.3177 4.12446ZM8.99326 7.50668C8.47993 7.97334 7.98882 8.46446 7.51993 8.97557C6.13771 10.6933 5.27548 12.7911 5.02437 14.9822C5.01771 15.66 5.01771 16.34 5.0266 17.0178C5.27326 19.2022 6.13326 21.2933 7.5066 23.0089C7.97993 23.5267 8.47771 24.0245 8.99771 24.4978C10.711 25.8689 12.7999 26.7267 14.9799 26.9733C15.6599 26.9822 16.3377 26.9822 17.0177 26.9733C19.2044 26.7245 21.2977 25.8645 23.0133 24.4867C23.5288 24.0178 24.0199 23.5267 24.4888 23.0133C25.8644 21.2956 26.7244 19.2045 26.9733 17.02C26.9822 16.34 26.9822 15.6622 26.9755 14.9822C26.7266 12.8022 25.8688 10.7133 24.4977 8.99779C24.0222 8.47557 23.5244 7.97779 23.0022 7.50223C21.2844 6.1289 19.191 5.27112 17.0088 5.02446C16.3355 5.01779 15.6644 5.01779 14.9933 5.02223C12.8066 5.27335 10.711 6.1289 8.99326 7.50668Z" fill="#EBA300"/>
<path d="M13.4266 3.24449C16.7355 2.56671 20.2977 3.24449 23.1155 5.10449C27.8066 8.0756 30.1466 14.2512 28.5133 19.5734C27.6444 22.6 25.6533 25.2956 22.9911 26.9845C19.9022 28.9823 15.9422 29.5289 12.4155 28.5089C9.49106 27.6823 6.88217 25.7845 5.1955 23.2534C3.13106 20.2134 2.46439 16.2734 3.40661 12.7223C4.57772 7.99116 8.64217 4.15338 13.4266 3.24449ZM14.3177 4.12449C10.4377 4.64671 6.92661 7.22449 5.22439 10.7445C3.97772 13.2467 3.71106 16.1956 4.36439 18.9023C5.57328 24.02 10.4866 28.0023 15.7688 27.9689C20.1777 28.1489 24.4911 25.56 26.5533 21.6867C27.9355 19.1778 28.2999 16.1689 27.7044 13.38C26.9444 9.92227 24.5577 6.88227 21.3977 5.2956C19.2333 4.17116 16.7266 3.82227 14.3177 4.12449Z" fill="#FFD679"/>
<path d="M8.99316 7.50666C10.7109 6.12888 12.8065 5.27333 14.9932 5.02222C14.9865 5.34888 14.9843 5.67333 14.9843 5.99777C13.0621 6.31333 11.1976 7.01111 9.66428 8.23777C9.44428 7.99111 9.21761 7.74888 8.99316 7.50666Z" fill="#E5E5E5"/>
<path d="M17.0088 5.02441C19.191 5.27108 21.2843 6.12886 23.0021 7.50219C22.7777 7.74664 22.5532 7.9933 22.3332 8.23997C20.7999 7.0133 18.9399 6.30664 17.0132 6.00219C17.0132 5.67553 17.0132 5.34886 17.0088 5.02441Z" fill="#E5E5E5"/>
<path d="M5.02441 14.9823C5.27553 12.7911 6.13775 10.6934 7.51997 8.97559C7.74886 9.22003 7.97552 9.46892 8.2133 9.7067C6.99552 11.2223 6.32886 13.0778 5.99997 14.9756C5.67553 14.9734 5.35108 14.9756 5.02441 14.9823Z" fill="#E5E5E5"/>
<path d="M23.7598 9.66891C24.0064 9.44669 24.2531 9.22225 24.4975 8.9978C25.8687 10.7134 26.7264 12.8022 26.9753 14.9822C26.6487 14.9778 26.3242 14.9756 25.9998 14.9756C25.6842 13.0556 24.9842 11.1978 23.7598 9.66891Z" fill="#E5E5E5"/>
<path d="M5.02686 17.0178C5.34908 17.0245 5.67352 17.0267 5.99797 17.0267C6.31797 18.9445 7.00908 20.8045 8.23797 22.3289C7.9913 22.5534 7.74908 22.78 7.50686 23.0089C6.13352 21.2934 5.27352 19.2023 5.02686 17.0178Z" fill="#E5E5E5"/>
<path d="M25.9978 17.0222C26.3222 17.0245 26.6489 17.0245 26.9733 17.02C26.7245 19.2045 25.8644 21.2956 24.4889 23.0134C24.2556 22.7734 24.0244 22.5311 23.7822 22.3022C25.0067 20.7867 25.6822 18.9289 25.9978 17.0222Z" fill="#E5E5E5"/>
<path d="M8.99756 24.4978C9.21978 24.2533 9.44422 24.0089 9.66645 23.7622C11.1953 24.9889 13.0576 25.6755 14.9731 26.0089C14.9709 26.3311 14.9731 26.6511 14.9798 26.9733C12.7998 26.7267 10.7109 25.8689 8.99756 24.4978Z" fill="#E5E5E5"/>
<path d="M22.302 23.7866C22.5331 24.0266 22.7754 24.2555 23.0131 24.4866C21.2976 25.8644 19.2042 26.7244 17.0176 26.9733C17.0242 26.6488 17.0265 26.3244 17.0265 26C18.9287 25.6755 20.782 25 22.302 23.7866Z" fill="#E5E5E5"/>
<path d="M14.9933 5.02214C15.6644 5.0177 16.3355 5.0177 17.0088 5.02436C17.0133 5.34881 17.0133 5.67547 17.0133 6.00214C16.9688 6.33547 17.0888 6.79992 16.6999 6.96658C16.2355 7.0377 15.7577 7.03325 15.291 6.96881C14.9199 6.78214 15.0244 6.33547 14.9844 5.9977C14.9844 5.67325 14.9866 5.34881 14.9933 5.02214Z" fill="#E81224"/>
<path d="M10.769 10.5066C12.3379 11.351 13.8224 12.3444 15.3513 13.2577C15.7935 13.5288 16.2402 13.7955 16.6935 14.051C16.7313 14.071 16.8046 14.1133 16.8424 14.1333C16.0735 13.9177 15.2557 14.0377 14.5846 14.4688C13.2602 13.2021 11.8846 11.9688 10.769 10.5066Z" fill="#E81224"/>
<path d="M9.66423 8.2378C11.1976 7.01114 13.062 6.31336 14.9842 5.9978C15.0242 6.33558 14.9198 6.78225 15.2909 6.96891C15.7576 7.03336 16.2353 7.0378 16.6998 6.96669C17.0887 6.80003 16.9687 6.33558 17.0131 6.00225C18.9398 6.30669 20.7998 7.01336 22.3331 8.24003C22.1309 8.46669 21.9309 8.69336 21.7309 8.92002C22.1353 9.41336 22.5864 9.86669 23.0798 10.2689C23.3064 10.0689 23.5331 9.86891 23.7598 9.66891C24.9842 11.1978 25.6842 13.0556 25.9998 14.9756C25.6664 15.0267 25.2064 14.9267 25.0376 15.3089C24.9487 15.7622 24.9464 16.2356 25.042 16.6867C25.1931 17.0822 25.6664 16.9667 25.9976 17.0222C25.682 18.9289 25.0064 20.7867 23.782 22.3022C23.5664 22.1356 23.3509 21.9667 23.1064 21.8467C22.5509 22.0067 22.122 22.4711 21.8687 22.9756C21.8487 23.2956 22.1509 23.5311 22.302 23.7867C20.782 25 18.9287 25.6756 17.0264 26C17.0064 25.6956 16.9842 25.3889 16.8687 25.1045C16.302 24.9089 15.6842 24.9622 15.1087 25.0822C15.0376 25.3867 15.002 25.6978 14.9731 26.0089C13.0576 25.6756 11.1953 24.9889 9.66645 23.7622C9.86645 23.5356 10.0687 23.3111 10.2687 23.0845C9.86422 22.5889 9.41311 22.1356 8.91978 21.7289C8.69089 21.9289 8.46423 22.1267 8.23756 22.3289C7.00867 20.8045 6.31756 18.9445 5.99756 17.0267C6.30645 16.9978 6.61978 16.9689 6.91534 16.8734C7.02867 16.36 7.07311 15.82 6.962 15.3022C6.78645 14.9289 6.33089 15.0267 5.99978 14.9756C6.32867 13.0778 6.99534 11.2222 8.21311 9.70669C8.46423 9.88669 8.722 10.0689 9.01756 10.1711C9.53311 9.86447 9.88645 9.36447 10.262 8.91114C10.0642 8.68669 9.86423 8.46225 9.66423 8.2378ZM15.9798 9.29114C15.7131 10.6045 15.6087 11.9422 15.3509 13.2578C13.822 12.3445 12.3376 11.3511 10.7687 10.5067C10.542 10.3067 10.2753 10.1578 10.0198 9.9978C11.0464 11.8134 12.1776 13.5667 13.2509 15.3534C11.9331 15.6089 10.5931 15.72 9.27534 15.9778C10.8309 16.3467 12.4287 16.5067 14.0153 16.6734C14.0753 16.76 14.1909 16.9356 14.2509 17.0222C13.8287 17.5934 13.4509 18.1956 13.1553 18.84C13.8064 18.5467 14.4131 18.1711 14.9842 17.7445L15.1331 17.8334C15.4398 19.4622 15.5709 21.1289 16.0264 22.7267C16.3264 21.42 16.4264 20.0756 16.7753 18.7822C18.4998 19.8645 20.2264 20.9445 21.982 21.9756C20.9464 20.2289 19.882 18.4978 18.8109 16.7711C20.0998 16.4289 21.4331 16.3311 22.7287 16.0222C21.1242 15.5756 19.4576 15.4378 17.8242 15.1311L17.7264 14.9867C18.1598 14.4289 18.5331 13.8245 18.8242 13.1778C18.1953 13.4667 17.6042 13.8245 17.0398 14.2222L16.842 14.1334C16.8042 14.1134 16.7309 14.0711 16.6931 14.0511C16.4887 12.46 16.3531 10.8534 15.9798 9.29114Z" fill="white"/>
<path d="M15.4045 15.189C16.0089 14.6668 17.0489 15.2112 17.0089 15.9934C17.06 16.7823 16.0111 17.3357 15.4023 16.809C14.8534 16.4445 14.8556 15.5534 15.4045 15.189Z" fill="white"/>
<path d="M7.52002 8.97548C7.98891 8.46437 8.48002 7.97326 8.99335 7.50659C9.2178 7.74881 9.44446 7.99104 9.66446 8.2377C9.86446 8.46215 10.0645 8.68659 10.2622 8.91104C9.88669 9.36437 9.53335 9.86437 9.0178 10.171C8.72224 10.0688 8.46446 9.88659 8.21335 9.70659C7.97557 9.46881 7.74891 9.21993 7.52002 8.97548Z" fill="#CCCCCC"/>
<path d="M23.0026 7.5022C23.5248 7.97775 24.0226 8.47553 24.4981 8.99775C24.2537 9.2222 24.007 9.44664 23.7603 9.66886C23.5337 9.86886 23.307 10.0689 23.0803 10.2689C22.587 9.86664 22.1359 9.41331 21.7314 8.91998C21.9314 8.69331 22.1314 8.46664 22.3337 8.23998C22.5537 7.99331 22.7781 7.74664 23.0026 7.5022Z" fill="#CCCCCC"/>
<path d="M15.98 9.29102C16.3533 10.8532 16.4889 12.4599 16.6933 14.051C16.24 13.7955 15.7933 13.5288 15.3511 13.2577C15.6089 11.9421 15.7133 10.6043 15.98 9.29102Z" fill="#CCCCCC"/>
<path d="M17.04 14.2222C17.6045 13.8244 18.1956 13.4666 18.8245 13.1777C18.5334 13.8244 18.16 14.4288 17.7267 14.9866C17.5156 14.7177 17.2845 14.4622 17.04 14.2222Z" fill="#CCCCCC"/>
<path d="M17.8247 15.1311C19.458 15.4378 21.1247 15.5755 22.7292 16.0222C21.4336 16.3311 20.1003 16.4289 18.8114 16.7711C18.5647 16.3733 18.3269 15.9689 18.0892 15.5644C18.0225 15.4555 17.8914 15.24 17.8247 15.1311Z" fill="#CCCCCC"/>
<path d="M9.27588 15.9777C10.5937 15.7199 11.9337 15.6088 13.2514 15.3533C13.4603 15.7022 13.6603 16.0555 13.8603 16.4088C13.9003 16.4755 13.9781 16.6066 14.0159 16.6733C12.4292 16.5066 10.8314 16.3466 9.27588 15.9777Z" fill="#CCCCCC"/>
<path d="M15.1333 17.8333C15.2377 17.8888 15.4489 18.0021 15.5555 18.0577C15.9733 18.2799 16.3755 18.5288 16.7755 18.7821C16.4266 20.0755 16.3266 21.4199 16.0266 22.7266C15.5711 21.1288 15.44 19.4621 15.1333 17.8333Z" fill="#CCCCCC"/>
<path d="M8.23795 22.3288C8.46461 22.1265 8.69128 21.9288 8.92017 21.7288C9.4135 22.1354 9.86461 22.5888 10.2691 23.0843C10.0691 23.311 9.86684 23.5354 9.66684 23.7621C9.44461 24.0088 9.22017 24.2532 8.99795 24.4976C8.47795 24.0243 7.98017 23.5265 7.50684 23.0088C7.74906 22.7799 7.99128 22.5532 8.23795 22.3288Z" fill="#CCCCCC"/>
<path d="M21.8691 22.9756C22.1224 22.4711 22.5513 22.0067 23.1069 21.8467C23.3513 21.9667 23.5669 22.1356 23.7824 22.3022C24.0247 22.5311 24.2558 22.7733 24.4891 23.0133C24.0202 23.5267 23.5291 24.0178 23.0136 24.4867C22.7758 24.2556 22.5336 24.0267 22.3024 23.7867C22.1513 23.5311 21.8491 23.2956 21.8691 22.9756Z" fill="#CCCCCC"/>
<path d="M10.02 9.9978C10.2756 10.1578 10.5422 10.3067 10.7689 10.5067C11.8845 11.9689 13.26 13.2022 14.5845 14.4689C14.1889 15.0489 14.0067 15.7311 13.86 16.4089C13.66 16.0556 13.46 15.7022 13.2511 15.3534C12.1778 13.5667 11.0467 11.8134 10.02 9.9978Z" fill="#C50F1F"/>
<path d="M14.5843 14.4688C15.2554 14.0377 16.0732 13.9177 16.8421 14.1332L17.0399 14.2221C17.2843 14.4621 17.5154 14.7177 17.7265 14.9866L17.8243 15.131C17.891 15.2399 18.0221 15.4555 18.0888 15.5644C17.9576 16.2088 17.9288 16.9555 17.4154 17.4377C16.9354 17.9377 16.2043 17.9932 15.5554 18.0577C15.4488 18.0021 15.2376 17.8888 15.1332 17.8332L14.9843 17.7444C14.7199 17.5221 14.4754 17.2821 14.251 17.0221C14.191 16.9355 14.0754 16.7599 14.0154 16.6732C13.9776 16.6066 13.8999 16.4755 13.8599 16.4088C14.0065 15.731 14.1888 15.0488 14.5843 14.4688ZM15.4043 15.1888C14.8554 15.5532 14.8532 16.4444 15.4021 16.8088C16.011 17.3355 17.0599 16.7821 17.0088 15.9932C17.0488 15.211 16.0088 14.6666 15.4043 15.1888Z" fill="#757575"/>
<path d="M5.02428 14.9821C5.35095 14.9754 5.67539 14.9732 5.99984 14.9754C6.33095 15.0266 6.78651 14.9288 6.96206 15.3021C7.07317 15.8199 7.02873 16.3599 6.91539 16.8732C6.61984 16.9688 6.30651 16.9977 5.99762 17.0266C5.67317 17.0266 5.34873 17.0243 5.02651 17.0177C5.01762 16.3399 5.01762 15.6599 5.02428 14.9821Z" fill="#A6A6A6"/>
<path d="M25.0376 15.3089C25.2065 14.9267 25.6665 15.0267 25.9999 14.9756C26.3243 14.9756 26.6488 14.9778 26.9754 14.9823C26.9821 15.6623 26.9821 16.34 26.9732 17.02C26.6488 17.0245 26.3221 17.0245 25.9976 17.0223C25.6665 16.9667 25.1932 17.0823 25.0421 16.6867C24.9465 16.2356 24.9488 15.7623 25.0376 15.3089Z" fill="#A6A6A6"/>
<path d="M18.089 15.5645C18.3268 15.9689 18.5646 16.3733 18.8112 16.7711C19.8823 18.4978 20.9468 20.2289 21.9823 21.9756C20.2268 20.9445 18.5001 19.8645 16.7757 18.7822C16.3757 18.5289 15.9734 18.28 15.5557 18.0578C16.2046 17.9933 16.9357 17.9378 17.4157 17.4378C17.929 16.9556 17.9579 16.2089 18.089 15.5645Z" fill="#A6A6A6"/>
<path d="M15.109 25.0821C15.6846 24.9621 16.3024 24.9088 16.869 25.1043C16.9846 25.3888 17.0068 25.6954 17.0268 25.9999C17.0268 26.3243 17.0246 26.6488 17.0179 26.9732C16.3379 26.9821 15.6602 26.9821 14.9802 26.9732C14.9735 26.651 14.9713 26.331 14.9735 26.0088C15.0024 25.6977 15.0379 25.3866 15.109 25.0821Z" fill="#A6A6A6"/>
<path d="M13.1558 18.84C13.4513 18.1956 13.8291 17.5933 14.2513 17.0222C14.4758 17.2822 14.7202 17.5222 14.9847 17.7444C14.4135 18.1711 13.8069 18.5467 13.1558 18.84Z" fill="#CECECE"/>
</g>
<defs>
<clipPath id="clip0_477_11090">
<rect width="32" height="32" fill="white"/>
</clipPath>
</defs>
</svg>
