<svg width="32" height="32" viewBox="0 0 32 32" fill="none" xmlns="http://www.w3.org/2000/svg">
<path d="M10.1736 0H21.8203C22.827 0.991111 23.8136 2.00444 24.8203 2.99556C26.4536 2.87333 28.2114 3.16667 29.4203 4.36222C30.4047 5.29778 31.0114 6.64 30.9936 8.00667C30.9914 14.3733 30.9981 20.7422 30.9892 27.1111C30.9981 29.5667 28.9292 31.7222 26.5225 32H5.51141C3.07586 31.7711 0.986968 29.58 1.0003 27.1111C0.982524 20.8111 1.0003 14.5089 0.991413 8.20889C0.926968 6.56222 1.72697 4.90222 3.07586 3.94889C4.24252 3.04667 5.76252 2.92667 7.18252 2.99556C8.18919 2.00667 9.16475 0.986667 10.1736 0V0ZM10.3803 2.60222C9.61586 3.41333 8.76253 4.14222 8.03364 4.98444C7.11364 5.01556 6.18252 4.90889 5.27141 5.06889C3.98252 5.40222 2.97808 6.64667 2.99808 7.98889C2.98697 14.2933 2.99586 20.6022 2.99364 26.9089C2.92475 28.4356 4.2203 29.9311 5.76919 29.96C7.85364 29.9911 9.93808 29.9467 12.0225 29.98C14.6736 29.96 17.327 29.98 19.9781 29.9644C21.9892 29.9711 24.0025 29.9711 26.0136 29.9689C27.567 30.0444 28.9803 28.6356 28.987 27.0978C29.0092 25.7356 28.9825 24.3733 28.9936 23.0133C29.0025 21.0133 28.9959 19.0156 28.9981 17.0156C28.9981 16.34 28.9981 15.6644 28.9959 14.9889C28.987 12.6578 29.0003 10.3267 28.9914 7.99778C29.0159 6.77556 28.1892 5.61778 27.0581 5.18444C26.0736 4.82444 24.9959 5.05111 23.9714 4.98C22.9736 3.97333 22.0003 2.93778 20.9381 1.99778C17.6492 1.97111 14.3536 1.90444 11.0692 2.03333C10.7759 2.12444 10.6025 2.40889 10.3803 2.60222Z" fill="black"/>
<path d="M10.3796 2.60225C10.6019 2.40891 10.7752 2.12447 11.0685 2.03336C12.7041 3.36891 14.3663 4.67114 16.0174 5.98669C17.6619 4.66225 19.3352 3.37336 20.9374 1.9978C21.9996 2.9378 22.973 3.97336 23.9708 4.98003C23.9419 7.0178 24.013 9.06003 23.9441 11.0956C23.9952 11.6822 23.2085 12.0934 22.7685 11.68C21.6019 10.82 20.5574 9.80003 19.4308 8.88891C18.2908 7.92669 17.1708 6.94669 16.0174 6.00447C14.8685 6.95114 13.7308 7.91114 12.593 8.87114C11.6708 9.63558 10.753 10.4045 9.84631 11.1845C9.46631 11.4822 9.0352 11.9089 8.50631 11.7311C7.88409 11.5356 8.01298 10.7378 7.96187 10.2311C7.99964 8.48225 7.89742 6.72891 8.03298 4.98447C8.76187 4.14225 9.6152 3.41336 10.3796 2.60225Z" fill="#83BEEC"/>
<path d="M20.9931 17.0222C23.662 16.9822 26.3287 16.9956 28.9976 17.0156C28.9954 19.0156 29.002 21.0134 28.9931 23.0134C27.6131 23.5934 26.3531 24.4822 24.9265 24.9289C23.5865 24.3534 22.3043 23.6422 21.002 22.9822C20.9776 20.9956 20.9998 19.0089 20.9931 17.0222Z" fill="#83BEEC"/>
<path d="M11.0684 2.03321C14.3528 1.90432 17.6484 1.97099 20.9372 1.99766C19.335 3.37321 17.6617 4.6621 16.0172 5.98654C14.3661 4.67099 12.7039 3.36877 11.0684 2.03321Z" fill="#0063B1"/>
<path d="M5.27064 5.06867C6.18175 4.90867 7.11286 5.01534 8.03286 4.98423C7.89731 6.72867 7.99953 8.482 7.96175 10.2309C8.01286 10.7376 7.88397 11.5353 8.50619 11.7309C9.03508 11.9087 9.4662 11.482 9.8462 11.1842C10.7529 10.4042 11.6706 9.63534 12.5929 8.87089C13.0618 9.57534 13.5262 10.2798 13.9795 10.9953C13.3618 17.3264 12.6262 23.6464 12.0218 29.9798C9.93731 29.9464 7.85286 29.9909 5.76842 29.9598C4.21953 29.9309 2.92397 28.4353 2.99286 26.9087C2.99508 20.602 2.98619 14.2931 2.99731 7.98867C2.97731 6.64645 3.98175 5.402 5.27064 5.06867Z" fill="#3A96DD"/>
<path d="M23.9711 4.9799C24.9956 5.05101 26.0734 4.82434 27.0578 5.18434C28.1889 5.61768 29.0156 6.77545 28.9911 7.99768C29 10.3266 28.9867 12.6577 28.9956 14.9888C26.3289 15.0021 23.6622 14.9866 20.9978 14.9977C20.9934 15.6732 20.9934 16.3466 20.9934 17.0221C21 19.0088 20.9778 20.9955 21.0022 22.9821C22.3045 23.6421 23.5867 24.3532 24.9267 24.9288C26.3534 24.4821 27.6134 23.5932 28.9934 23.0132C28.9822 24.3732 29.0089 25.7355 28.9867 27.0977C28.98 28.6355 27.5667 30.0443 26.0134 29.9688C24.0022 29.971 21.9889 29.971 19.9778 29.9643C19.3756 23.6355 18.6467 17.3177 18.02 10.991C18.4756 10.2799 18.9489 9.58212 19.4311 8.88879C20.5578 9.7999 21.6022 10.8199 22.7689 11.6799C23.2089 12.0932 23.9956 11.6821 23.9445 11.0955C24.0134 9.0599 23.9422 7.01768 23.9711 4.9799Z" fill="#3A96DD"/>
<path d="M12.5938 8.87106C13.7315 7.91106 14.8693 6.95106 16.0182 6.00439C17.1715 6.94662 18.2915 7.92662 19.4315 8.88884C18.9493 9.58217 18.476 10.28 18.0204 10.9911C16.6737 11.0088 15.3271 11.0044 13.9804 10.9955C13.5271 10.28 13.0626 9.57551 12.5938 8.87106Z" fill="#AF0D1A"/>
<path d="M13.9802 10.9957C15.3269 11.0045 16.6736 11.009 18.0202 10.9912C18.6469 17.3179 19.3758 23.6357 19.978 29.9645C17.3269 29.9801 14.6736 29.9601 12.0225 29.9801C12.6269 23.6468 13.3625 17.3268 13.9802 10.9957Z" fill="#F03A17"/>
<path d="M20.9976 14.9977C23.6621 14.9865 26.3287 15.0021 28.9954 14.9888C28.9976 15.6643 28.9976 16.3399 28.9976 17.0154C26.3287 16.9954 23.6621 16.9821 20.9932 17.0221C20.9932 16.3465 20.9932 15.6732 20.9976 14.9977Z" fill="#B3DBF2"/>
</svg>
