<svg width="30" height="31" viewBox="0 0 30 31" fill="none" xmlns="http://www.w3.org/2000/svg">
<g clip-path="url(#clip0_447_943)">
<path d="M24.375 19.25C24.1287 19.2499 23.8849 19.2983 23.6573 19.3924C23.4298 19.4866 23.223 19.6247 23.0489 19.7989C22.8747 19.973 22.7366 20.1798 22.6424 20.4073C22.5483 20.6349 22.4999 20.8787 22.5 21.125V26.75H3.75V8H9.375C9.87228 8 10.3492 7.80246 10.7008 7.45083C11.0525 7.0992 11.25 6.62228 11.25 6.125C11.25 5.62772 11.0525 5.15081 10.7008 4.79918C10.3492 4.44754 9.87228 4.25 9.375 4.25H1.875C1.62873 4.24986 1.38485 4.29826 1.1573 4.39244C0.929755 4.48662 0.723001 4.62473 0.548864 4.79886C0.374726 4.973 0.23662 5.17976 0.142442 5.4073C0.0482636 5.63485 -0.000139369 5.87873 3.01411e-07 6.125V28.625C-0.000139369 28.8713 0.0482636 29.1151 0.142442 29.3427C0.23662 29.5702 0.374726 29.777 0.548864 29.9511C0.723001 30.1253 0.929755 30.2634 1.1573 30.3576C1.38485 30.4517 1.62873 30.5001 1.875 30.5H24.375C24.6213 30.5001 24.8651 30.4517 25.0927 30.3576C25.3202 30.2634 25.527 30.1253 25.7011 29.9511C25.8753 29.777 26.0134 29.5702 26.1076 29.3427C26.2017 29.1151 26.2501 28.8713 26.25 28.625V21.125C26.2501 20.8787 26.2017 20.6349 26.1076 20.4073C26.0134 20.1798 25.8753 19.973 25.7011 19.7989C25.527 19.6247 25.3202 19.4866 25.0927 19.3924C24.8651 19.2983 24.6213 19.2499 24.375 19.25Z" fill="white"/>
<path d="M29.4507 4.79932L25.7007 1.04932C25.5266 0.875174 25.32 0.737028 25.0925 0.642776C24.865 0.548523 24.6212 0.500011 24.375 0.500011C24.1288 0.500011 23.885 0.548523 23.6575 0.642776C23.43 0.737028 23.2234 0.875174 23.0493 1.04932L11.7993 12.2993C11.6251 12.4734 11.487 12.68 11.3927 12.9075C11.2985 13.135 11.25 13.3788 11.25 13.625V17.375C11.2499 17.6213 11.2983 17.8652 11.3924 18.0927C11.4866 18.3203 11.6247 18.527 11.7989 18.7011C11.973 18.8753 12.1798 19.0134 12.4073 19.1076C12.6349 19.2017 12.8787 19.2501 13.125 19.25H16.875C17.1212 19.25 17.365 19.2016 17.5925 19.1073C17.82 19.013 18.0267 18.8749 18.2007 18.7007L29.4507 7.4507C29.6248 7.27663 29.763 7.06997 29.8572 6.8425C29.9515 6.61504 30 6.37123 30 6.12501C30 5.87879 29.9515 5.63498 29.8572 5.40751C29.763 5.18005 29.6248 4.97338 29.4507 4.79932ZM16.0986 15.5H15V14.4014L24.375 5.02638L25.4736 6.12501L16.0986 15.5Z" fill="white"/>
</g>
<defs>
<clipPath id="clip0_447_943">
<rect width="30" height="30" fill="white" transform="translate(0 0.5)"/>
</clipPath>
</defs>
</svg>
