<svg width="32" height="32" viewBox="0 0 32 32" fill="none" xmlns="http://www.w3.org/2000/svg">
<g clip-path="url(#clip0_477_11240)">
<path d="M3.89356 0H5.00912C5.8869 0.193333 6.7469 0.62 7.28912 1.36C7.8469 2.05111 7.95356 2.96 8.1069 3.80222C10.0447 4.00222 12.018 4.07333 13.9469 3.75556C15.7091 3.48222 17.3069 2.60667 19.0713 2.33778C23.058 1.65556 27.3091 1.91333 31.0069 3.65333C30.9869 9.76 31.0136 15.8667 30.9958 21.9733C29.2758 21.3 27.5936 20.4578 25.7447 20.2089C23.9247 19.9622 22.0625 19.9622 20.2447 20.2111C18.4402 20.4489 16.8136 21.3556 15.0225 21.6467C12.378 22.1178 9.6469 22.0867 7.00023 21.6622V32H1.96912C2.1069 29.1133 1.91356 26.2244 1.99134 23.3378C2.0269 18.2267 1.95134 13.1178 2.03579 8.00667C2.02468 7.15333 2.1469 6.21333 1.62468 5.47333C1.04468 4.59778 0.802453 3.49333 1.14245 2.47778C1.50023 1.20667 2.64245 0.306667 3.89356 0V0ZM3.19356 2.74222C2.66912 3.56 3.18468 4.55111 3.95801 4.97333C4.06912 13.3244 3.98023 21.6756 4.04023 30.0267H4.99134C5.00912 26.3578 4.99579 22.6911 5.00023 19.0244C7.79579 20.0733 10.8513 20.1356 13.7891 19.8222C15.9402 19.6178 17.8558 18.4844 19.998 18.2267C23.0002 17.8333 26.118 17.9578 28.9936 18.9733C29.0225 14.32 28.9691 9.66667 29.0202 5.01333C26.1713 3.89333 23.0069 3.81556 20.0002 4.20889C18.0669 4.41333 16.338 5.40444 14.4269 5.70444C11.2958 6.22222 8.05356 6.02 5.01801 5.08444L5.02023 4.98444C5.68023 4.59556 6.18023 3.89333 5.94468 3.09556C5.70912 1.83778 3.76023 1.62222 3.19356 2.74222V2.74222Z" fill="black"/>
<path d="M19.2242 8.34003C19.4598 8.29559 19.6998 8.26892 19.9398 8.25781C19.9642 8.73781 19.9642 9.21781 19.8931 9.69115C19.5998 9.70003 19.3064 9.70448 19.0131 9.70003C19.0598 9.25115 18.8442 8.6867 19.2242 8.34003V8.34003Z" fill="black"/>
<path d="M16.1201 8.78873C16.4046 8.78206 16.6912 8.77762 16.9779 8.78206C16.989 9.20873 16.989 9.63317 16.9823 10.0598C16.6779 10.1576 16.3579 10.371 16.0623 10.1287C15.9801 9.68429 16.0535 9.23095 16.1201 8.78873Z" fill="black"/>
<path d="M17.4136 10.56C17.6647 10.2578 17.6425 9.51333 18.1758 9.59111C18.3158 9.87333 18.4291 10.1689 18.5514 10.46C18.1714 10.4956 17.7936 10.5289 17.4136 10.56V10.56Z" fill="black"/>
<path d="M3.19358 2.7421C3.76024 1.6221 5.70913 1.83766 5.94469 3.09544C6.18024 3.89321 5.68024 4.59544 5.02024 4.98432L5.01802 5.08432C4.9758 9.73099 5.01358 14.3777 5.00024 19.0243C4.9958 22.691 5.00913 26.3577 4.99135 30.0265C4.6758 30.0265 4.35802 30.0265 4.04024 30.0265C3.98024 21.6754 4.06913 13.3243 3.95802 4.97321C3.18469 4.55099 2.66913 3.55988 3.19358 2.7421V2.7421Z" fill="#CCCCCC"/>
<path d="M20.0005 4.20883C23.0071 3.8155 26.1716 3.89328 29.0205 5.01328C28.9693 9.66661 29.0227 14.3199 28.9938 18.9733C26.1182 17.9577 23.0005 17.8333 19.9982 18.2266C17.856 18.4844 15.9405 19.6177 13.7893 19.8222C10.8516 20.1355 7.79601 20.0733 5.00046 19.0244C5.01379 14.3777 4.97601 9.73106 5.01823 5.08439C8.05379 6.01995 11.296 6.22217 14.4271 5.70439C16.3382 5.40439 18.0671 4.41328 20.0005 4.20883V4.20883ZM15.0338 9.54883C15.3516 10.5022 15.5516 11.5177 16.1693 12.3377C16.3671 12.2888 16.7627 12.1888 16.9627 12.1399C16.976 12.0222 17.0071 11.7844 17.0227 11.6666L17.3693 11.6044C17.5538 12.4488 18.6405 11.9466 18.6827 11.2822C18.8471 11.4622 19.0116 11.6399 19.1805 11.8155C19.4005 11.7688 19.6227 11.7244 19.8449 11.6799C20.0382 11.3222 20.236 10.9666 20.4316 10.6111C20.5293 9.50883 21.3116 8.46883 20.9027 7.34661C20.4516 6.12883 18.9249 5.70883 17.7649 6.0355C16.1982 6.35772 14.6849 7.84883 15.0338 9.54883V9.54883ZM21.5916 12.0844C20.4138 12.8555 19.1916 13.5555 18.0005 14.3066C16.8382 13.9333 15.6293 13.7088 14.4938 13.2644C14.2405 12.9066 14.1249 12.4711 13.9049 12.0911C13.5671 11.9288 13.1138 12.0555 12.9893 12.4311C13.0249 12.7466 13.0849 13.0599 13.1716 13.3666C12.8405 13.6466 12.1471 13.8111 12.3071 14.3777C12.3716 14.4911 12.5027 14.7222 12.5693 14.8355C13.116 14.6177 13.616 14.2377 14.2005 14.1399C15.1405 14.3511 16.0538 14.6666 16.9871 14.8999C16.1493 15.4222 15.3227 15.9622 14.4671 16.4555C13.8471 16.8777 13.0471 16.2644 12.4182 16.6399C12.336 16.8888 12.296 17.1488 12.2427 17.4066C12.556 17.5066 12.8693 17.6022 13.1871 17.6933C13.1005 18.0244 13.0293 18.3599 12.9716 18.6999C13.1782 18.9799 13.4427 19.0511 13.7693 18.9177C14.2293 18.3577 14.1693 17.4377 14.8893 17.0955C15.9205 16.4555 16.9693 15.8444 17.996 15.1955C19.1849 15.5333 20.3738 15.8688 21.5627 16.2022C21.7405 16.6311 21.8916 17.0733 22.1338 17.4711C22.376 17.4799 22.7049 17.5444 22.856 17.2911C23.2027 16.9977 22.8471 16.5044 22.8271 16.1466C23.096 15.9622 23.3738 15.7911 23.6182 15.5755C23.7671 15.3155 23.636 14.9911 23.6605 14.7111C23.0182 14.8355 22.4227 15.1111 21.8449 15.4111C20.9205 15.1199 19.9871 14.8644 19.0538 14.6066C19.9827 13.9599 20.9605 13.3866 21.9338 12.8111C22.4093 12.8999 22.8871 13.0422 23.376 13.0044C23.7738 12.7999 23.6827 12.3444 23.676 11.9799C23.3871 11.9355 23.096 11.8911 22.8071 11.8488C22.9138 11.3799 23.3093 10.3844 22.4493 10.5333C21.836 10.7644 21.8293 11.5599 21.5916 12.0844Z" fill="#383838"/>
<path d="M15.0335 9.54895C14.6846 7.84895 16.198 6.35784 17.7646 6.03561C18.9246 5.70895 20.4513 6.12895 20.9024 7.34673C21.3113 8.46895 20.5291 9.50895 20.4313 10.6112C20.2358 10.9667 20.038 11.3223 19.8446 11.6801C19.6224 11.7245 19.4002 11.7689 19.1802 11.8156C19.0113 11.6401 18.8469 11.4623 18.6824 11.2823C18.6402 11.9467 17.5535 12.4489 17.3691 11.6045C17.2824 11.6201 17.1091 11.6512 17.0224 11.6667C17.0069 11.7845 16.9758 12.0223 16.9624 12.1401C16.7624 12.1889 16.3669 12.2889 16.1691 12.3378C15.5513 11.5178 15.3513 10.5023 15.0335 9.54895V9.54895ZM19.2246 8.34006C18.8446 8.68672 19.0602 9.25117 19.0135 9.70006C19.3069 9.7045 19.6002 9.70006 19.8935 9.69117C19.9646 9.21784 19.9646 8.73784 19.9402 8.25784C19.7002 8.26895 19.4602 8.29561 19.2246 8.34006V8.34006ZM16.1202 8.78895C16.0535 9.23117 15.9802 9.6845 16.0624 10.1289C16.358 10.3712 16.678 10.1578 16.9824 10.0601C16.9891 9.63339 16.9891 9.20895 16.978 8.78228C16.6913 8.77784 16.4046 8.78228 16.1202 8.78895ZM17.4135 10.5601C17.7935 10.5289 18.1713 10.4956 18.5513 10.4601C18.4291 10.1689 18.3158 9.87339 18.1758 9.59117C17.6424 9.51339 17.6646 10.2578 17.4135 10.5601Z" fill="#F2F2F2"/>
<path d="M21.5911 12.0844C21.8289 11.56 21.8355 10.7644 22.4489 10.5333C23.3089 10.3844 22.9133 11.38 22.8066 11.8489C23.0955 11.8911 23.3866 11.9356 23.6755 11.98C23.6822 12.3444 23.7733 12.8 23.3755 13.0044C22.8866 13.0422 22.4089 12.9 21.9333 12.8111C20.96 13.3867 19.9822 13.96 19.0533 14.6067C19.9866 14.8644 20.92 15.12 21.8444 15.4111C22.4222 15.1111 23.0177 14.8356 23.66 14.7111C23.6355 14.9911 23.7666 15.3156 23.6177 15.5756C23.3733 15.7911 23.0955 15.9622 22.8266 16.1467C22.8466 16.5044 23.2022 16.9978 22.8555 17.2911C22.7044 17.5444 22.3755 17.48 22.1333 17.4711C21.8911 17.0733 21.74 16.6311 21.5622 16.2022C20.3733 15.8689 19.1844 15.5333 17.9955 15.1956C16.9689 15.8444 15.92 16.4556 14.8889 17.0956C14.1689 17.4378 14.2289 18.3578 13.7689 18.9178C13.4422 19.0511 13.1777 18.98 12.9711 18.7C13.0289 18.36 13.1 18.0244 13.1866 17.6933C12.8689 17.6022 12.5555 17.5067 12.2422 17.4067C12.2955 17.1489 12.3355 16.8889 12.4177 16.64C13.0466 16.2644 13.8466 16.8778 14.4666 16.4556C15.3222 15.9622 16.1489 15.4222 16.9866 14.9C16.0533 14.6667 15.14 14.3511 14.2 14.14C13.6155 14.2378 13.1155 14.6178 12.5689 14.8356C12.5022 14.7222 12.3711 14.4911 12.3066 14.3778C12.1466 13.8111 12.84 13.6467 13.1711 13.3667C13.0844 13.06 13.0244 12.7467 12.9889 12.4311C13.1133 12.0556 13.5666 11.9289 13.9044 12.0911C14.1244 12.4711 14.24 12.9067 14.4933 13.2644C15.6289 13.7089 16.8377 13.9333 18 14.3067C19.1911 13.5556 20.4133 12.8556 21.5911 12.0844V12.0844Z" fill="#F2F2F2"/>
</g>
<defs>
<clipPath id="clip0_477_11240">
<rect width="32" height="32" fill="white"/>
</clipPath>
</defs>
</svg>
