<svg width="32" height="32" viewBox="0 0 32 32" fill="none" xmlns="http://www.w3.org/2000/svg">
<g clip-path="url(#clip0_477_11202)">
<path d="M4.99778 6.30222C6.99556 5.20222 9.24444 4.25111 11.5756 4.55778C12.5111 4.69778 13.24 5.48445 14.2067 5.48667C15.3244 5.5 16.4444 5.48 17.5644 5.49334C18.7044 5.59778 19.5422 4.59334 20.6533 4.52667C22.9089 4.33334 25.0689 5.23111 27.0022 6.3C27.0044 6.65334 27.0089 7.00445 27.0156 7.35556C27.6667 8 28.3333 8.68445 28.6333 9.57334C29.3867 11.6289 29.9444 13.7511 30.7067 15.8044C31.3356 17.4933 31.8733 19.2356 32 21.0422V22.6022C31.8022 24.2756 31.0422 26.0111 29.5622 26.9267C28.2533 27.7733 26.3422 27.7111 25.2333 26.5489C23.7378 25.0778 22.2622 23.5822 20.7756 22.1C20.4067 21.7 19.8911 21.4511 19.3378 21.4867C17.1867 21.4756 15.0356 21.4933 12.8844 21.48C12.3267 21.46 11.7311 21.56 11.34 21.9911C9.76222 23.5311 8.24444 25.1311 6.65778 26.6578C5.7 27.58 4.20222 27.7111 3.00667 27.22C1.16222 26.4422 0.184444 24.4289 0 22.5244V21.1156C0.117778 19.4 0.575556 17.7311 1.18 16.1289C1.99111 13.9711 2.56889 11.7356 3.36667 9.57556C3.66889 8.68667 4.34222 8.01334 4.98667 7.36C4.99111 7.00889 4.99556 6.65556 4.99778 6.30222ZM7.01778 7.49334C7 7.84 6.98889 8.18667 6.96667 8.53334C6.11556 8.86445 5.44 9.59556 5.17111 10.4667C4.59778 12.2067 4.01778 13.9444 3.44222 15.6844C2.96889 17.1933 2.26667 18.6511 2.11778 20.2444C1.95778 21.7822 1.87333 23.5689 3 24.7911C3.54 25.4667 4.68889 25.8111 5.35111 25.1222C6.93556 23.5911 8.45778 21.9933 10.04 20.46C10.74 19.7844 11.7222 19.4778 12.6822 19.4911H19.3311C20.2933 19.48 21.2756 19.7867 21.9733 20.4711C23.4333 21.9044 24.8689 23.36 26.3133 24.8089C26.66 25.1444 27.0444 25.56 27.58 25.4911C28.8844 25.4622 29.6578 24.1022 29.8844 22.96C30.1111 21.2289 29.8867 19.44 29.3 17.7978C28.3978 15.3222 27.6333 12.8 26.7733 10.3111C26.4911 9.5 25.8289 8.84 25.0311 8.53556C25.0178 8.18445 24.9911 7.83556 24.9822 7.48667C23.8489 6.91334 22.6044 6.53111 21.3289 6.50445C20.3956 6.42889 19.6533 7.09111 18.8689 7.48667C16.9533 7.48 15.0378 7.48 13.12 7.48667C12.4667 7.14889 11.86 6.66 11.1222 6.52C9.69778 6.43556 8.28 6.84667 7.01778 7.49334Z" fill="black"/>
<path d="M7.01791 7.49333C8.28013 6.84666 9.69791 6.43555 11.1224 6.51999C11.8601 6.65999 12.4668 7.14888 13.1201 7.48666C11.0379 7.55777 8.94235 7.83999 6.9668 8.53333C6.98902 8.18666 7.00013 7.83999 7.01791 7.49333Z" fill="#2B2B2B"/>
<path d="M18.8687 7.4867C19.6531 7.09115 20.3953 6.42893 21.3287 6.50448C22.6042 6.53115 23.8487 6.91337 24.982 7.4867C24.9909 7.83559 25.0175 8.18448 25.0309 8.53559C23.0487 7.86004 20.9575 7.55115 18.8687 7.4867Z" fill="#2B2B2B"/>
<path d="M6.96652 8.53336C8.94207 7.84002 11.0376 7.5578 13.1199 7.48669C15.0376 7.48002 16.9532 7.48002 18.8687 7.48669C20.9576 7.55113 23.0487 7.86002 25.031 8.53558C25.8287 8.84002 26.491 9.50002 26.7732 10.3111C27.6332 12.8 28.3976 15.3222 29.2999 17.7978C29.8865 19.44 30.111 21.2289 29.8843 22.96C29.6576 24.1022 28.8843 25.4622 27.5799 25.4911C27.0443 25.56 26.6599 25.1445 26.3132 24.8089C24.8687 23.36 23.4332 21.9045 21.9732 20.4711C21.2754 19.7867 20.2932 19.48 19.331 19.4911C17.1154 19.4911 14.8976 19.4911 12.6821 19.4911C11.7221 19.4778 10.7399 19.7845 10.0399 20.46C8.45763 21.9934 6.93541 23.5911 5.35096 25.1222C4.68874 25.8111 3.53985 25.4667 2.99985 24.7911C1.87319 23.5689 1.95763 21.7822 2.11763 20.2445C2.26652 18.6511 2.96874 17.1934 3.44207 15.6845C4.01763 13.9445 4.59763 12.2067 5.17096 10.4667C5.43985 9.59558 6.11541 8.86447 6.96652 8.53336ZM21.6399 10C21.8532 10.2911 22.0132 10.7822 22.4621 10.7511C23.2176 10.8711 23.5687 9.6778 22.8865 9.35336C22.351 8.96447 21.8465 9.5378 21.6399 10ZM8.07096 10.5622C7.04652 10.8356 6.61763 12.28 7.41763 13.02C8.17541 13.9422 9.8843 13.4022 9.9643 12.2089C10.1932 11.1578 9.0643 10.24 8.07096 10.5622ZM15.0732 11.1222C14.7399 11.8134 15.3865 12.4067 16.0021 12.5756C16.5287 12.3911 17.1487 11.9889 16.9932 11.3311C16.8821 10.3667 15.3887 10.2045 15.0732 11.1222ZM19.6332 12C19.8532 12.2867 20.0132 12.7289 20.4399 12.7467C21.1999 12.8778 21.5776 11.6734 20.8754 11.3511C20.3421 10.9734 19.8487 11.5511 19.6332 12ZM23.6399 12.0022C23.8599 12.2845 24.0132 12.7489 24.4465 12.7422C25.2043 12.88 25.5865 11.6689 24.8799 11.3489C24.3421 10.9689 23.8443 11.5445 23.6399 12.0022ZM22.051 13.3822C21.6221 13.6978 21.6999 14.5534 22.2487 14.7111C22.711 14.9022 23.2865 14.5045 23.251 14C23.3065 13.3956 22.5087 12.9934 22.051 13.3822ZM11.0376 15.5111C11.0199 15.8378 10.9999 16.1645 10.9776 16.4934C10.6643 16.5067 10.3532 16.52 10.0399 16.5311C10.0465 16.8445 10.0443 17.1578 10.0399 17.4734C10.351 17.4778 10.6621 17.4889 10.9754 17.5089C10.9976 17.8356 11.0221 18.1622 11.0443 18.4889C11.3354 18.4778 11.6265 18.4778 11.9154 18.4889C11.9599 18.16 12.0043 17.8334 12.051 17.5045C12.3576 17.4978 12.6665 17.4867 12.9754 17.4734C12.9687 17.1534 12.9621 16.8334 12.9465 16.5134C12.6487 16.5045 12.3487 16.4978 12.0487 16.4978C12.0043 16.1667 11.9576 15.8334 11.911 15.5022C11.6199 15.5178 11.3287 15.52 11.0376 15.5111ZM18.9465 15.6089C17.8732 15.98 17.6954 17.6134 18.6487 18.2178C19.5221 18.9445 20.9599 18.2156 20.991 17.1134C21.1176 16.0622 19.9221 15.1356 18.9465 15.6089Z" fill="#383838"/>
<path d="M21.6396 10.0002C21.8463 9.538 22.3508 8.96466 22.8863 9.35355C23.5685 9.678 23.2174 10.8713 22.4619 10.7513C22.013 10.7824 21.853 10.2913 21.6396 10.0002Z" fill="#FCE100"/>
<path d="M8.07105 10.5625C9.06438 10.2403 10.1933 11.1581 9.96438 12.2092C9.88438 13.4025 8.17549 13.9425 7.41772 13.0203C6.61772 12.2803 7.0466 10.8359 8.07105 10.5625Z" fill="#757575"/>
<path d="M11.0378 15.5113C11.3289 15.5202 11.62 15.518 11.9111 15.5024C11.9578 15.8336 12.0045 16.1669 12.0489 16.498C12.3489 16.498 12.6489 16.5047 12.9467 16.5136C12.9623 16.8336 12.9689 17.1536 12.9756 17.4736C12.6667 17.4869 12.3578 17.498 12.0512 17.5047C12.0045 17.8336 11.96 18.1602 11.9156 18.4891C11.6267 18.478 11.3356 18.478 11.0445 18.4891C11.0223 18.1624 10.9978 17.8358 10.9756 17.5091C10.6623 17.4891 10.3512 17.478 10.04 17.4736C10.0445 17.158 10.0467 16.8447 10.04 16.5313C10.3534 16.5202 10.6645 16.5069 10.9778 16.4936C11 16.1647 11.02 15.838 11.0378 15.5113Z" fill="#757575"/>
<path d="M18.9466 15.6092C19.9222 15.1359 21.1178 16.0625 20.9911 17.1137C20.96 18.2159 19.5222 18.9448 18.6489 18.2181C17.6955 17.6137 17.8733 15.9803 18.9466 15.6092Z" fill="#757575"/>
<path d="M15.0732 11.1221C15.3888 10.2044 16.8821 10.3666 16.9932 11.331C17.1488 11.9888 16.5288 12.391 16.0021 12.5755C15.3866 12.4066 14.7399 11.8132 15.0732 11.1221Z" fill="#F2F2F2"/>
<path d="M19.6338 11.9999C19.8493 11.551 20.3427 10.9732 20.876 11.351C21.5782 11.6732 21.2005 12.8777 20.4405 12.7465C20.0138 12.7288 19.8538 12.2865 19.6338 11.9999Z" fill="#3A96DD"/>
<path d="M23.6396 12.0023C23.8441 11.5445 24.3419 10.969 24.8796 11.349C25.5863 11.669 25.2041 12.8801 24.4463 12.7423C24.013 12.749 23.8596 12.2845 23.6396 12.0023Z" fill="#F03A17"/>
<path d="M22.0509 13.3821C22.5087 12.9932 23.3065 13.3954 23.2509 13.9999C23.2865 14.5043 22.7109 14.9021 22.2487 14.711C21.6998 14.5532 21.622 13.6977 22.0509 13.3821Z" fill="#16C60C"/>
</g>
<defs>
<clipPath id="clip0_477_11202">
<rect width="32" height="32" fill="white"/>
</clipPath>
</defs>
</svg>
