<svg width="71" height="71" viewBox="0 0 71 71" fill="none" xmlns="http://www.w3.org/2000/svg">
<path d="M60.9315 26.7088L60.5985 26.5876L59.2981 23.4189L59.4391 23.0933C63.3787 13.9728 63.1071 13.7007 62.4536 13.0395L57.1986 7.80654C56.9837 7.58896 56.6065 7.43593 56.2813 7.43593C55.9856 7.43593 55.09 7.43593 47.3288 11.0242L47.0176 11.1668L43.8155 9.85049L43.6869 9.5251C40.0372 0.300049 39.6633 0.300049 38.7551 0.300049H31.3338C30.4289 0.300049 30.0168 0.300049 26.6325 9.54114L26.5051 9.87754L23.3196 11.2031L23.015 11.0738C17.7617 8.81306 14.6944 7.66664 13.8948 7.66664C13.5704 7.66664 13.1918 7.81523 12.976 8.03222L7.71605 13.2803C7.04879 13.9521 6.77204 14.2335 10.918 23.1636L11.0704 23.4948L9.76782 26.6601L9.44904 26.7859C0.200111 30.4344 0.200111 30.7901 0.200111 31.7404V39.1638C0.200111 40.1166 0.200111 40.5124 9.46741 43.9025L9.79867 44.0219L11.1014 47.1779L10.9615 47.5004C7.02191 56.6252 7.27178 56.8721 7.94245 57.5531L13.1895 62.7932C13.4095 63.009 13.7901 63.1632 14.1148 63.1632C14.4086 63.1632 15.302 63.1632 23.0684 59.5767L23.3794 59.4281L26.5836 60.751L26.7082 61.0781C30.3602 70.3 30.7354 70.3 31.6442 70.3H39.0678C39.9999 70.3 40.3864 70.3 43.7735 61.0528L43.8997 60.7162L47.0903 59.3995L47.3939 59.5259C52.6428 61.793 55.7087 62.9371 56.5031 62.9371C56.8247 62.9371 57.2067 62.7932 57.4261 62.5714L62.6946 57.3119C63.3573 56.6366 63.6335 56.3605 59.4802 47.4388L59.3257 47.1037L60.626 43.9522L60.9364 43.8279C70.2001 40.1603 70.2001 39.8028 70.2001 38.8514V31.4324C70.1999 30.4798 70.1999 30.0864 60.9315 26.7088ZM35.1999 47.3395C28.5674 47.3395 23.1718 41.937 23.1718 35.3014C23.1718 28.6656 28.5676 23.2703 35.1999 23.2703C41.8296 23.2703 47.2243 28.6668 47.2243 35.3014C47.2245 41.9359 41.8298 47.3395 35.1999 47.3395Z" fill="white"/>
</svg>
