<svg width="32" height="32" viewBox="0 0 32 32" fill="none" xmlns="http://www.w3.org/2000/svg">
<g clip-path="url(#clip0_477_11250)">
<path d="M6.98018 2.41996C9.18241 1.87996 11.3802 1.3244 13.578 0.768849C14.4135 1.51996 15.0891 2.45774 16.0313 3.0844C16.8269 2.32663 17.578 1.5244 18.3713 0.764404C20.5624 1.33774 22.7624 1.87996 24.9602 2.42218C24.9757 3.67774 24.9535 4.93329 24.9757 6.18885C25.2491 6.45329 25.518 6.71774 25.7869 6.98663C27.0446 7.01107 28.3024 6.9644 29.558 7.01774C30.0624 9.21996 30.6246 11.4088 31.1935 13.5955C30.5735 14.2555 29.9202 14.88 29.2824 15.52C29.1135 15.7022 28.7891 15.9733 29.0513 16.22C29.738 16.9755 30.5024 17.6577 31.1913 18.4111C30.6269 20.5977 30.0624 22.7844 29.5535 24.9844C28.2935 25.02 27.0335 24.9844 25.7757 25.0088C25.5091 25.28 25.2157 25.5288 24.9913 25.8377C24.9224 27.08 24.9957 28.3288 24.958 29.5733C22.7602 30.1088 20.5624 30.6555 18.3735 31.2266C17.5757 30.4711 16.8269 29.6666 16.0313 28.9111C15.0846 29.5289 14.4113 30.4711 13.5757 31.2222C11.3802 30.6711 9.18463 30.1089 6.98463 29.5777C6.96018 28.3266 6.98241 27.0755 6.96907 25.8266C6.68463 25.5466 6.40018 25.2711 6.11352 24.9933C4.87352 25.0022 3.63574 25.0066 2.39796 24.9933C1.86018 22.7888 1.30241 20.5888 0.746851 18.3888C1.51574 17.5888 2.33796 16.84 3.06685 16C2.34241 15.1577 1.5113 14.4177 0.744629 13.6155C1.30463 11.4133 1.86018 9.20885 2.39796 6.99996C3.62018 6.97107 4.84241 7.02218 6.06463 6.97996C6.42018 6.77996 6.67352 6.43996 6.9713 6.1644C6.97796 4.91552 6.96685 3.66663 6.98018 2.41996ZM8.97352 3.97996C8.94907 4.97996 8.95796 5.97996 8.96463 6.97774C8.31352 7.66218 7.64018 8.32663 6.97352 8.99552C5.96907 8.99329 4.96241 8.99107 3.95574 8.99774C3.64018 10.3311 3.29574 11.6555 2.96018 12.9844C3.62907 13.66 4.3113 14.3244 4.9713 15.0088C4.96463 15.6688 4.96463 16.3288 4.97352 16.9888C4.3113 17.6755 3.62907 18.3377 2.96018 19.0177C3.29796 20.34 3.63796 21.6622 3.95796 22.9888C4.96241 22.9977 5.96907 22.9933 6.97352 22.9933C7.63796 23.6666 8.31352 24.3288 8.96685 25.0155C8.95796 26.0177 8.95352 27.02 8.9713 28.0222C10.3024 28.3288 11.6291 28.6533 12.9513 29.0022C13.6335 28.3488 14.3002 27.68 14.9646 27.0066C15.6291 26.9977 16.2935 27 16.958 26.9977C17.6269 27.6555 18.3002 28.3111 18.9513 28.9888C20.2935 28.6777 21.6224 28.3155 22.9669 28.0177C22.9802 27.0111 22.9691 26.0066 22.9757 25C23.6424 24.3355 24.3069 23.6688 24.9669 22.9955C25.978 22.9866 26.9891 23.0088 27.998 22.9777C28.2891 21.6577 28.6157 20.3444 28.9846 19.0444C28.3402 18.3355 27.6469 17.6777 26.9713 17.0022C26.9646 16.3311 26.9646 15.66 26.9713 14.9888C27.6469 14.3111 28.3424 13.6555 28.9846 12.9466C28.6135 11.6466 28.2913 10.3311 27.998 9.00885C26.9846 8.97774 25.9691 9.00218 24.9557 8.98885C24.3024 8.31774 23.638 7.65552 22.9757 6.99107C22.9691 5.98885 22.9802 4.98663 22.9669 3.9844C21.6446 3.67552 20.3224 3.36218 19.018 2.98885C18.3046 3.62885 17.6535 4.33329 16.958 4.99107C16.2957 4.98663 15.6335 4.98663 14.9691 4.9844C14.3024 4.31996 13.6357 3.65552 12.9646 2.99329C11.6357 3.32663 10.3091 3.67774 8.97352 3.97996Z" fill="black"/>
<path d="M14.7668 13.2512C16.3402 12.4712 18.3735 13.4712 18.838 15.1334C19.438 16.8623 18.0468 18.8757 16.238 18.9934C14.5535 19.189 12.9224 17.6801 12.9713 15.9912C12.9446 14.8245 13.7202 13.7245 14.7668 13.2512Z" fill="black"/>
<path d="M8.9733 3.97988C10.3089 3.67766 11.6355 3.32655 12.9644 2.99321C13.6355 3.65544 14.3022 4.31988 14.9689 4.98433C15.6333 4.98655 16.2955 4.98655 16.9577 4.99099C17.6533 4.33321 18.3044 3.62877 19.0177 2.98877C20.3222 3.3621 21.6444 3.67544 22.9666 3.98433C22.98 4.98655 22.9689 5.98877 22.9755 6.99099C23.6377 7.65544 24.3022 8.31766 24.9555 8.98877C25.9689 9.0021 26.9844 8.97766 27.9977 9.00877C28.2911 10.331 28.6133 11.6465 28.9844 12.9465C28.3422 13.6554 27.6466 14.311 26.9711 14.9888C26.9644 15.6599 26.9644 16.331 26.9711 17.0021C27.6466 17.6777 28.34 18.3354 28.9844 19.0443C28.6155 20.3443 28.2889 21.6577 27.9977 22.9777C26.9889 23.0088 25.9777 22.9865 24.9666 22.9954C24.3066 23.6688 23.6422 24.3354 22.9755 24.9999C22.9689 26.0065 22.98 27.011 22.9666 28.0177C21.6222 28.3154 20.2933 28.6777 18.9511 28.9888C18.3 28.311 17.6266 27.6554 16.9577 26.9977C16.2933 26.9999 15.6288 26.9977 14.9644 27.0065C14.3 27.6799 13.6333 28.3488 12.9511 29.0021C11.6288 28.6532 10.3022 28.3288 8.97107 28.0221C8.95329 27.0199 8.95774 26.0177 8.96663 25.0154C8.31329 24.3288 7.63774 23.6665 6.97329 22.9932C5.96885 22.9932 4.96218 22.9977 3.95774 22.9888C3.63774 21.6621 3.29774 20.3399 2.95996 19.0177C3.62885 18.3377 4.31107 17.6754 4.97329 16.9888C4.96441 16.3288 4.96441 15.6688 4.97107 15.0088C4.31107 14.3243 3.62885 13.6599 2.95996 12.9843C3.29552 11.6554 3.63996 10.331 3.95552 8.99766C4.96218 8.99099 5.96885 8.99321 6.97329 8.99544C7.63996 8.32655 8.31329 7.6621 8.96441 6.97766C8.95774 5.97988 8.94885 4.97988 8.9733 3.97988ZM14.3089 8.16433C11.1666 8.79988 8.56885 11.4888 8.08885 14.6643C7.49107 17.8665 9.11996 21.3332 11.9666 22.9177C13.66 23.9421 15.7377 24.1821 17.6622 23.8154C20.1111 23.2754 22.2622 21.5399 23.2733 19.2399C23.9533 17.8154 24.0777 16.1865 23.8577 14.6377C23.4177 12.1332 21.7266 9.87766 19.42 8.79544C17.8555 7.99099 16.0222 7.87321 14.3089 8.16433Z" fill="#E5E5E5"/>
<path d="M14.5157 9.14677C17.9668 8.32899 21.7268 10.609 22.6802 14.0045C23.7202 17.2001 22.0046 20.9334 18.9646 22.3134C15.9957 23.8157 12.0713 22.7468 10.2202 20.0001C8.81571 18.0334 8.56016 15.3157 9.58905 13.1268C10.489 11.1245 12.369 9.60677 14.5157 9.14677ZM14.9624 10.0868C12.5246 10.4512 10.4802 12.4934 10.0579 14.9134C9.54238 17.4268 10.9002 20.1379 13.1668 21.3068C14.9979 22.2712 17.3513 22.2045 19.1068 21.1001C20.8513 20.0534 21.9957 18.0512 21.9513 16.009C21.9957 14.4379 21.3268 12.8868 20.229 11.7757C18.8846 10.4068 16.8535 9.74677 14.9624 10.0868Z" fill="#E5E5E5"/>
<path d="M14.3087 8.16453C16.0221 7.87342 17.8554 7.9912 19.4199 8.79564C21.7265 9.87786 23.4176 12.1334 23.8576 14.6379C24.0776 16.1868 23.9532 17.8156 23.2732 19.2401C22.2621 21.5401 20.111 23.2756 17.6621 23.8156C15.7376 24.1823 13.6599 23.9423 11.9665 22.9179C9.11985 21.3334 7.49096 17.8668 8.08874 14.6645C8.56874 11.489 11.1665 8.80009 14.3087 8.16453ZM14.5154 9.14675C12.3687 9.60675 10.4887 11.1245 9.58874 13.1268C8.55985 15.3156 8.81541 18.0334 10.2199 20.0001C12.071 22.7468 15.9954 23.8156 18.9643 22.3134C22.0043 20.9334 23.7199 17.2001 22.6799 14.0045C21.7265 10.609 17.9665 8.32897 14.5154 9.14675Z" fill="#757575"/>
<path d="M14.9622 10.0867C16.8534 9.74672 18.8845 10.4067 20.2289 11.7756C21.3267 12.8867 21.9956 14.4378 21.9511 16.0089C21.9956 18.0512 20.8511 20.0534 19.1067 21.1001C17.3511 22.2045 14.9978 22.2712 13.1667 21.3067C10.9 20.1378 9.54225 17.4267 10.0578 14.9134C10.48 12.4934 12.5245 10.4512 14.9622 10.0867ZM14.7667 13.2512C13.72 13.7245 12.9445 14.8245 12.9711 15.9912C12.9222 17.6801 14.5534 19.1889 16.2378 18.9934C18.0467 18.8756 19.4378 16.8623 18.8378 15.1334C18.3734 13.4712 16.34 12.4712 14.7667 13.2512Z" fill="#CCCCCC"/>
</g>
<defs>
<clipPath id="clip0_477_11250">
<rect width="32" height="32" fill="white"/>
</clipPath>
</defs>
</svg>
