<svg width="32" height="32" viewBox="0 0 32 32" fill="none" xmlns="http://www.w3.org/2000/svg">
<path d="M1.09121 0.942139C11.0245 0.951028 20.9579 0.944361 30.8934 0.944361L31.0112 1.02214C30.9801 10.9955 31.0245 20.9688 30.989 30.9421C20.9957 30.9488 11.0023 30.9488 1.00899 30.9421C0.9801 20.9732 1.01788 11.0021 0.991211 1.03325L1.09121 0.942139ZM3.08454 2.94214L2.98677 3.00881C3.01788 5.65547 2.98677 8.30214 3.00232 10.9466C2.99566 11.2755 2.99788 11.6021 3.00232 11.931C3.0001 14.6155 2.99343 17.2977 3.00677 19.9821C2.99343 20.2821 2.99343 20.5844 3.00454 20.8866C2.99566 21.8955 2.99788 22.9066 3.00454 23.9177C2.99788 24.911 2.98677 25.9066 3.01343 26.8999V26.9021C2.99121 27.5799 2.98899 28.2621 3.01566 28.9399C5.68899 28.9532 8.36454 28.9488 11.0401 28.9421C11.3534 28.9488 11.6645 28.9488 11.9779 28.9444C14.6534 28.9488 17.3312 28.9488 20.009 28.9444C20.3245 28.9488 20.6401 28.9488 20.9557 28.9421C23.6357 28.951 26.3134 28.9444 28.9912 28.9466C29.0068 26.2577 29.0023 23.571 28.9934 20.8821C29.0045 20.5821 29.0045 20.2821 28.9934 19.9844C29.0068 17.3021 28.9979 14.6199 28.9979 11.9399C29.0045 11.611 29.0045 11.2821 28.9957 10.9555C29.0001 10.2888 29.009 9.62214 28.9912 8.95547C29.0068 7.96214 29.0134 6.96881 28.9845 5.97547C28.9757 4.97325 29.0801 3.89103 28.9312 2.93769C26.3068 2.95547 23.6823 2.94436 21.0557 2.94436C20.7023 2.94658 20.349 2.93992 19.9957 2.94881C17.3201 2.94658 14.6468 2.94214 11.9734 2.95103C11.6312 2.94214 11.289 2.94436 10.9468 2.94436C8.32677 2.94658 5.70677 2.95325 3.08454 2.94214Z" fill="black"/>
<path d="M3.08459 2.94238C5.70682 2.95349 8.32682 2.94683 10.9468 2.94461C10.9979 5.59127 11.0335 8.24905 10.9313 10.8935C8.29348 11.0157 5.64459 10.9157 3.00237 10.9468C2.98682 8.30238 3.01793 5.65572 2.98682 3.00905L3.08459 2.94238Z" fill="#F2F2F2"/>
<path d="M11.9736 2.95112C14.647 2.94223 17.3203 2.94667 19.9959 2.9489C19.9759 5.59112 20.0447 8.23334 19.9692 10.8711C18.5114 11.0489 17.0336 10.8956 15.567 10.9489C14.3936 10.9022 13.2025 11.0489 12.0425 10.8756C11.9181 8.24001 12.0447 5.59112 11.9736 2.95112Z" fill="#F2F2F2"/>
<path d="M21.0552 2.94465C23.6819 2.94465 26.3063 2.95577 28.9308 2.93799C29.0797 3.89132 28.9752 4.97354 28.9841 5.97577C27.2819 7.58465 25.6774 9.29576 24.0174 10.9469C23.033 10.9424 22.0486 10.9847 21.0663 10.9047C20.9686 8.25577 20.9952 5.59577 21.0552 2.94465Z" fill="#F2F2F2"/>
<path d="M27.1919 10.7536C27.8008 10.1625 28.3986 9.56026 28.9919 8.95581C29.0097 9.62248 29.0008 10.2891 28.9963 10.9558C28.3963 10.9136 27.7319 11.0936 27.1919 10.7536Z" fill="#F2F2F2"/>
<path d="M3.00266 11.9311C5.33377 11.9223 7.66489 11.9445 9.996 11.9223C10.3382 11.9378 10.7182 11.86 11.0182 12.0734C11.0204 14.6889 11.0116 17.3023 11.0204 19.9178C10.3382 19.9511 9.64044 19.8623 8.976 20.0689C8.63822 19.76 8.33377 19.4156 7.98933 19.1134C7.66266 19.4245 7.34489 19.7445 7.00711 20.0445C5.68711 19.8267 4.336 19.9223 3.00711 19.9823C2.99377 17.2978 3.00044 14.6156 3.00266 11.9311Z" fill="#F2F2F2"/>
<path d="M12.0334 12.0069C12.9023 11.8514 13.789 11.9514 14.6668 11.9269C16.4334 11.9736 18.209 11.8469 19.9712 11.9869C20.0468 12.9736 19.9401 13.9625 20.049 14.9491C18.3868 16.6714 16.6979 18.3647 15.0023 20.0558C14.0356 19.8002 13.0312 19.9891 12.0468 19.9247C11.9601 19.3602 11.9756 18.7869 11.9979 18.218C12.0779 16.1491 11.9534 14.0736 12.0334 12.0069Z" fill="#F2F2F2"/>
<path d="M20.9824 12.0491C21.5557 11.878 22.3246 11.7647 22.8224 12.1713C22.2379 12.7513 21.6513 13.3291 21.0824 13.9247C20.9513 13.3091 20.9513 12.6758 20.9824 12.0491Z" fill="#F2F2F2"/>
<path d="M20.9185 17.0557C22.5962 15.3357 24.314 13.6535 26.0073 11.949C27.0051 11.9046 28.0029 11.9246 28.9985 11.9401C28.9985 14.6201 29.0073 17.3023 28.994 19.9846C26.3251 19.8468 23.6496 19.9846 20.9785 19.9135C20.9651 18.9601 21.0451 18.0046 20.9185 17.0557Z" fill="#F2F2F2"/>
<path d="M18.1089 19.8447C18.6933 19.2602 19.2822 18.678 19.8622 18.0891C20.06 18.6758 20.0422 19.3047 19.9444 19.9113C19.3333 19.9669 18.7133 19.9491 18.1089 19.8447Z" fill="#F2F2F2"/>
<path d="M3.00489 20.8867C3.98711 21.0467 5.00044 20.8045 5.96266 21.0712C4.97155 22.0156 3.97822 22.9556 3.00489 23.9178C2.99822 22.9067 2.996 21.8956 3.00489 20.8867Z" fill="#F2F2F2"/>
<path d="M12.0536 20.9605C12.7314 20.9094 13.4114 20.9516 14.0892 20.9871C13.3958 21.6894 12.7114 22.4071 11.9914 23.0849C11.9736 22.376 11.9914 21.6649 12.0536 20.9605Z" fill="#F2F2F2"/>
<path d="M17.0647 20.9001C18.0247 20.9846 18.9891 20.9201 19.9491 20.9601C20.1069 23.6157 19.9291 26.2846 20.0091 28.9446C17.3314 28.949 14.6536 28.949 11.978 28.9446C12.0469 27.9224 11.898 26.889 12.0914 25.8801C13.7336 24.2046 15.4002 22.5535 17.0647 20.9001Z" fill="#F2F2F2"/>
<path d="M20.9822 20.9779C23.6511 20.8623 26.3289 21.0468 28.9933 20.8823C29.0022 23.5712 29.0067 26.2579 28.9911 28.9468C26.3133 28.9445 23.6356 28.9512 20.9556 28.9423C21.0222 26.289 20.9689 23.6312 20.9822 20.9779Z" fill="#F2F2F2"/>
<path d="M3.01332 26.9003C4.71554 25.3136 6.29554 23.5914 7.98887 21.998C9.06665 22.958 10.06 24.0314 11.0822 25.0536C10.9489 26.3469 11.02 27.6469 11.04 28.9425C8.36443 28.9492 5.68887 28.9536 3.01554 28.9403C2.98887 28.2625 2.99109 27.5803 3.01332 26.9025V26.9003Z" fill="#F2F2F2"/>
<path d="M10.9467 2.94443C11.2889 2.94443 11.6311 2.94221 11.9734 2.9511C12.0445 5.5911 11.9178 8.23998 12.0423 10.8755C13.2023 11.0489 14.3934 10.9022 15.5667 10.9489C17.0334 10.8955 18.5111 11.0489 19.9689 10.8711C20.0445 8.23332 19.9756 5.5911 19.9956 2.94887C20.3489 2.93998 20.7023 2.94665 21.0556 2.94443C20.9956 5.59554 20.9689 8.25554 21.0667 10.9044C22.0489 10.9844 23.0334 10.9422 24.0178 10.9467C23.6134 11.3489 23.2178 11.76 22.8223 12.1711C22.3245 11.7644 21.5556 11.8778 20.9823 12.0489C20.9511 12.6755 20.9511 13.3089 21.0823 13.9244C20.7489 14.2778 20.3978 14.6111 20.0489 14.9489C19.94 13.9622 20.0467 12.9733 19.9711 11.9867C18.2089 11.8467 16.4334 11.9733 14.6667 11.9267C13.7889 11.9511 12.9023 11.8511 12.0334 12.0067C11.9534 14.0733 12.0778 16.1489 11.9978 18.2178C11.9756 18.7867 11.96 19.36 12.0467 19.9244C13.0311 19.9889 14.0356 19.8 15.0023 20.0555C14.7134 20.38 14.4 20.6822 14.0889 20.9867C13.4111 20.9511 12.7311 20.9089 12.0534 20.96C11.9911 21.6644 11.9734 22.3755 11.9911 23.0844C11.6134 22.7311 11.2534 22.3578 10.8889 21.9933C11.0067 21.6467 11.1534 21.2244 10.8845 20.9067C10.5423 20.8978 10.2 20.9155 9.85781 20.9578C9.56003 20.6644 9.26225 20.3711 8.97559 20.0689C9.64003 19.8622 10.3378 19.9511 11.02 19.9178C11.0111 17.3022 11.02 14.6889 11.0178 12.0733C10.7178 11.86 10.3378 11.9378 9.99559 11.9222C7.66448 11.9444 5.33337 11.9222 3.00225 11.9311C2.99781 11.6022 2.99559 11.2755 3.00225 10.9467C5.64448 10.9155 8.29337 11.0155 10.9311 10.8933C11.0334 8.24887 10.9978 5.5911 10.9467 2.94443Z" fill="#CCCCCC"/>
<path d="M19.8622 18.089C20.2089 17.7401 20.5556 17.3912 20.9178 17.0557C21.0445 18.0046 20.9645 18.9601 20.9778 19.9134C23.6489 19.9846 26.3245 19.8468 28.9933 19.9846C29.0045 20.2823 29.0045 20.5823 28.9933 20.8823C26.3289 21.0468 23.6511 20.8623 20.9822 20.9779C20.9689 23.6312 21.0222 26.289 20.9556 28.9423C20.64 28.949 20.3245 28.949 20.0089 28.9446C19.9289 26.2846 20.1067 23.6157 19.9489 20.9601C18.9889 20.9201 18.0245 20.9846 17.0645 20.9001C17.4089 20.5446 17.7556 20.1912 18.1089 19.8446C18.7133 19.949 19.3333 19.9668 19.9445 19.9112C20.0422 19.3046 20.06 18.6757 19.8622 18.089Z" fill="#CCCCCC"/>
<path d="M3.00688 19.9821C4.33577 19.9221 5.68688 19.8266 7.00688 20.0443C6.66466 20.3932 6.32021 20.7377 5.96243 21.071C5.00021 20.8043 3.98688 21.0466 3.00466 20.8866C2.99355 20.5843 2.99355 20.2821 3.00688 19.9821Z" fill="#CCCCCC"/>
<path d="M11.0825 25.0535C11.4358 25.2957 11.6581 25.809 12.0914 25.8801C11.8981 26.889 12.047 27.9224 11.9781 28.9446C11.6647 28.949 11.3536 28.949 11.0403 28.9424C11.0203 27.6468 10.9492 26.3468 11.0825 25.0535Z" fill="#CCCCCC"/>
<path d="M24.018 10.9467C25.678 9.29559 27.2824 7.58447 28.9846 5.97559C29.0135 6.96892 29.0069 7.96225 28.9913 8.95559C28.398 9.56003 27.8002 10.1623 27.1913 10.7534C26.798 11.1511 26.4047 11.5511 26.0069 11.9489C24.3135 13.6534 22.5958 15.3356 20.918 17.0556C20.5558 17.3911 20.2091 17.74 19.8624 18.0889C19.2824 18.6778 18.6935 19.26 18.1091 19.8445C17.7558 20.1911 17.4091 20.5445 17.0647 20.9C15.4002 22.5534 13.7335 24.2045 12.0913 25.88C11.658 25.8089 11.4358 25.2956 11.0824 25.0534C10.0602 24.0311 9.06687 22.9578 7.9891 21.9978C6.29576 23.5911 4.71576 25.3134 3.01354 26.9C2.98687 25.9067 2.99798 24.9111 3.00465 23.9178C3.97798 22.9556 4.97132 22.0156 5.96243 21.0711C6.32021 20.7378 6.66465 20.3934 7.00687 20.0445C7.34465 19.7445 7.66243 19.4245 7.9891 19.1134C8.33354 19.4156 8.63798 19.76 8.97576 20.0689C9.26243 20.3711 9.56021 20.6645 9.85799 20.9578C10.1958 21.3089 10.5358 21.6556 10.8891 21.9934C11.2535 22.3578 11.6135 22.7311 11.9913 23.0845C12.7113 22.4067 13.3958 21.6889 14.0891 20.9867C14.4002 20.6823 14.7135 20.38 15.0024 20.0556C16.698 18.3645 18.3869 16.6711 20.0491 14.9489C20.398 14.6111 20.7491 14.2778 21.0824 13.9245C21.6513 13.3289 22.238 12.7511 22.8224 12.1711C23.218 11.76 23.6135 11.3489 24.018 10.9467Z" fill="#F03A17"/>
<path d="M26.0068 11.949C26.4046 11.5512 26.7979 11.1512 27.1913 10.7534C27.7313 11.0934 28.3957 10.9134 28.9957 10.9556C29.0046 11.2823 29.0046 11.6112 28.9979 11.9401C28.0024 11.9245 27.0046 11.9045 26.0068 11.949Z" fill="#CBCBCB"/>
<path d="M9.85791 20.9579C10.2001 20.9157 10.5424 20.8979 10.8846 20.9068C11.1535 21.2246 11.0068 21.6468 10.889 21.9934C10.5357 21.6557 10.1957 21.309 9.85791 20.9579Z" fill="#EBE9E9"/>
</svg>
