<svg width="32" height="32" viewBox="0 0 32 32" fill="none" xmlns="http://www.w3.org/2000/svg">
<g clip-path="url(#clip0_477_11182)">
<path d="M2.43333 0H29.4022C30.7044 0.2 31.7689 1.27778 32 2.56667V3.38C31.8867 3.86667 31.6933 4.33333 31.4378 4.76222C29.38 8.19556 27.3244 11.6289 25.2822 15.0689C26.5511 17.1311 27.2044 19.5822 26.9622 22.0044C26.6911 25.0356 25.0822 27.9089 22.6556 29.7467C20.9511 31.0511 18.86 31.8244 16.7244 32H15.3178C12.5911 31.7978 9.94 30.5844 8.06 28.5911C5.6 26.0644 4.48222 22.2978 5.21556 18.8422C5.46667 17.4978 6.03333 16.24 6.72444 15.0689C4.93111 12.0422 3.12222 9.02667 1.32444 6.00444C0.837778 5.17111 0.253333 4.37111 0 3.42667V2.63333C0.177778 1.34889 1.20444 0.331111 2.43333 0V0ZM2.44 2.16222C1.91556 2.50444 1.93333 3.25111 2.27556 3.71556C4.55778 7.54222 6.85333 11.36 9.12222 15.1933C7.19778 17.46 6.49111 20.7 7.36889 23.5511C8.42889 27.26 12.1044 30.0867 15.9911 29.9711C20.1689 30.1133 24.0756 26.8444 24.8311 22.76C25.3844 20.1089 24.6222 17.2556 22.8822 15.1889C25.1756 11.3111 27.5022 7.44889 29.7956 3.56889C30.12 3.09778 30.0022 2.33556 29.44 2.10222C28.8422 1.89111 28.1911 1.98222 27.5689 1.96889C26.9222 1.97333 26.2756 1.97111 25.6311 1.94889L25.5 2.15778L25.6067 1.98C24.6 1.95778 23.5933 1.97556 22.5867 1.96444L22.5378 2.05111C22.2156 2.00667 21.8911 1.97778 21.5644 1.96444C17.8556 1.97111 14.1467 1.97111 10.4378 1.96444C10.1111 1.97778 9.78667 2.00667 9.46444 2.05111L9.41556 1.96444C8.40889 1.97556 7.4 1.95778 6.39333 1.98222L6.5 2.15778L6.36889 1.94889C5.71556 1.97111 5.06222 1.97111 4.40889 1.97778L4.52444 2.18L4.38889 1.94667C3.74222 1.99556 3.04444 1.87111 2.44 2.16222Z" fill="black"/>
<path d="M11.7646 5.97758C14.5824 5.98869 17.4069 5.90869 20.2246 6.02202C19.0446 8.03091 17.858 10.0354 16.6802 12.0442C16.2269 12.0265 15.7758 12.0242 15.3246 12.0442C14.1424 10.0198 12.9358 8.00869 11.7646 5.97758Z" fill="black"/>
<path d="M2.43984 2.16233C3.04428 1.87122 3.74206 1.99567 4.38873 1.94678L4.52428 2.18011C6.71539 5.93122 8.92873 9.67122 11.1243 13.4201C10.3843 13.9201 9.70428 14.5134 9.12206 15.1934C6.85317 11.3601 4.55762 7.54233 2.27539 3.71567C1.93317 3.25122 1.91539 2.50455 2.43984 2.16233Z" fill="#31D2F7"/>
<path d="M6.49973 2.15793L6.39307 1.98238C7.39973 1.95793 8.40862 1.97571 9.41529 1.9646L9.46418 2.05127C10.1953 3.38016 10.9886 4.67571 11.7642 5.97793C12.9353 8.00904 14.142 10.0202 15.3242 12.0446C14.4131 12.1002 13.5153 12.3046 12.6642 12.6357C10.6153 9.14016 8.5664 5.6446 6.49973 2.15793Z" fill="#31D2F7"/>
<path d="M22.5375 2.05127L22.5864 1.9646C23.593 1.97571 24.5997 1.95793 25.6064 1.98016L25.4997 2.15793C23.4397 5.64682 21.3886 9.14238 19.3397 12.6379C18.4886 12.3024 17.5908 12.1024 16.6797 12.0446C17.8575 10.0357 19.0441 8.03127 20.2241 6.02238C20.9952 4.70016 21.8019 3.39571 22.5375 2.05127Z" fill="#31D2F7"/>
<path d="M27.5693 1.96911C28.1915 1.98245 28.8426 1.89134 29.4404 2.10245C30.0026 2.33578 30.1204 3.098 29.796 3.56911C27.5026 7.44911 25.176 11.3113 22.8826 15.1891C22.2982 14.5113 21.6182 13.918 20.876 13.4202C23.0938 9.59578 25.3982 5.82022 27.5693 1.96911Z" fill="#31D2F7"/>
<path d="M4.52425 2.18009L4.40869 1.97786C5.06202 1.9712 5.71536 1.9712 6.36869 1.94897L6.4998 2.15786C8.56647 5.64453 10.6154 9.14009 12.6642 12.6356C12.1331 12.8579 11.6198 13.1245 11.1242 13.4201C8.92869 9.6712 6.71536 5.9312 4.52425 2.18009Z" fill="white"/>
<path d="M25.5003 2.15762L25.6314 1.94873C26.2759 1.97095 26.9226 1.97317 27.5692 1.96873C25.3981 5.81984 23.0937 9.5954 20.8759 13.4198C20.3803 13.1243 19.8692 12.8598 19.3403 12.6376C21.3892 9.14206 23.4403 5.64651 25.5003 2.15762Z" fill="white"/>
<path d="M9.46436 2.05102C9.78658 2.00658 10.111 1.97769 10.4377 1.96436C14.1466 1.97102 17.8555 1.97102 21.5644 1.96436C21.891 1.97769 22.2155 2.00658 22.5377 2.05102C21.8021 3.39547 20.9955 4.69991 20.2244 6.02213C17.4066 5.9088 14.5821 5.9888 11.7644 5.97769C10.9888 4.67547 10.1955 3.37991 9.46436 2.05102Z" fill="#0078D7"/>
<path d="M15.3241 12.0445C15.7752 12.0245 16.2263 12.0267 16.6796 12.0445C17.5907 12.1022 18.4885 12.3022 19.3396 12.6378C19.8685 12.86 20.3796 13.1245 20.8752 13.42C21.6174 13.9178 22.2974 14.5111 22.8818 15.1889C24.6218 17.2556 25.3841 20.1089 24.8307 22.76C24.0752 26.8445 20.1685 30.1133 15.9907 29.9711C12.1041 30.0867 8.42851 27.26 7.36851 23.5511C6.49074 20.7 7.1974 17.46 9.12185 15.1933C9.70407 14.5133 10.3841 13.92 11.1241 13.42C11.6196 13.1245 12.133 12.8578 12.6641 12.6356C13.5152 12.3045 14.413 12.1 15.3241 12.0445ZM14.3107 15.24C11.793 15.96 9.88185 18.4756 10.0307 21.1178C9.98185 23.5622 11.693 25.86 13.9818 26.6556C16.3374 27.5378 19.1796 26.7111 20.7107 24.7222C22.2307 22.8511 22.4085 20.0178 21.1663 17.96C19.8463 15.6356 16.8685 14.4333 14.3107 15.24Z" fill="#CCCCCC"/>
<path d="M13.0068 17.971C13.3357 17.6488 13.6646 17.3266 13.9913 17.0044C15.3313 16.9932 16.6691 16.9955 18.0091 17.0021C18.3357 17.351 18.7579 17.6399 18.9802 18.0688C19.0557 18.911 18.9868 19.7599 19.0068 20.6044C18.0268 21.4155 17.0091 22.1799 16.0224 22.9844C17.0157 22.9977 18.0113 22.9933 19.0046 22.9955C19.0068 23.6621 19.0091 24.331 19.0046 24.9977C17.0024 25.0044 15.0002 25.0021 12.9979 24.9977C13.0291 24.3221 12.8891 23.611 13.0735 22.9577C14.3513 21.9377 15.7002 21.0066 16.9957 20.0066C16.9979 19.671 17.0002 19.3377 17.0024 19.0021C15.6646 18.9977 14.3268 19.0066 12.9868 18.9977C12.9935 18.6555 13.0002 18.3132 13.0068 17.971Z" fill="#CCCCCC"/>
<path d="M14.3106 15.2399C16.8684 14.4332 19.8462 15.6355 21.1662 17.9599C22.4084 20.0177 22.2306 22.851 20.7106 24.7221C19.1795 26.711 16.3373 27.5377 13.9817 26.6554C11.6928 25.8599 9.98171 23.5621 10.0306 21.1177C9.88171 18.4754 11.7928 15.9599 14.3106 15.2399ZM13.0062 17.971C12.9995 18.3132 12.9928 18.6554 12.9862 18.9977C14.3262 19.0066 15.6639 18.9977 17.0017 19.0021C16.9995 19.3377 16.9973 19.671 16.995 20.0066C15.6995 21.0066 14.3506 21.9377 13.0728 22.9577C12.8884 23.611 13.0284 24.3221 12.9973 24.9977C14.9995 25.0021 17.0017 25.0043 19.0039 24.9977C19.0084 24.331 19.0062 23.6621 19.0039 22.9955C18.0106 22.9932 17.015 22.9977 16.0217 22.9843C17.0084 22.1799 18.0262 21.4155 19.0062 20.6043C18.9862 19.7599 19.055 18.911 18.9795 18.0688C18.7573 17.6399 18.335 17.351 18.0084 17.0021C16.6684 16.9955 15.3306 16.9932 13.9906 17.0043C13.6639 17.3266 13.335 17.6488 13.0062 17.971Z" fill="#757575"/>
</g>
<defs>
<clipPath id="clip0_477_11182">
<rect width="32" height="32" fill="white"/>
</clipPath>
</defs>
</svg>
