<svg width="32" height="32" viewBox="0 0 32 32" fill="none" xmlns="http://www.w3.org/2000/svg">
<g clip-path="url(#clip0_476_446)">
<path d="M7.12444 0H9.19778C11.2867 0.113333 13.3444 0.54 15.3489 1.12889C15.8 0.617778 16.3467 0.18 17.0178 0H20.4467C21.5667 0.2 22.4022 1.04222 22.8933 2.02667C24.6844 3.06444 25.9511 4.74444 27.1867 6.36444C30.0422 10.2178 31.7311 14.9044 32 19.6933V24.7889C31.76 26.6489 30.9044 28.4333 29.5578 29.7444C28.2467 30.9978 26.5178 31.7844 24.72 32H23.0067C20.8533 31.8978 18.7222 31.4911 16.6644 30.8511C16.2044 31.3756 15.6444 31.8244 14.9556 32H11.6711C10.5044 31.8644 9.54667 31.0067 9.12444 29.9356C7.9 29.3133 6.96 28.2867 6.06222 27.2756C2.40444 23.0911 0.353333 17.6267 0 12.1044V7.23111C0.213333 5.67333 0.817778 4.16222 1.81778 2.94C3.11778 1.31556 5.08222 0.304444 7.12444 0V0ZM2.02444 7.77556C1.99111 10.4267 1.91333 13.1133 2.49111 15.72C3.45333 20.2 5.82222 24.3689 9.11333 27.5467C9.58 28.1689 10.6733 28.12 10.9644 27.3533C11.2222 26.5667 10.4778 26.0578 10.0067 25.5711C9.14889 24.7822 8.48222 23.8244 7.76444 22.9156C8.45111 23.5578 9.09778 24.2422 9.82667 24.84C13.8022 28.1933 19.0089 30.0867 24.2156 29.9644C26.3644 29.9644 28.4067 28.5978 29.3533 26.6889C30.0911 25.3644 30.0222 23.8022 29.9111 22.3422C30.4733 15.9044 27.8044 9.45111 23.3356 4.87111C22.9022 4.47111 22.4711 3.85556 21.7889 4.03556C21.0533 4.10889 20.7222 5.14444 21.2578 5.64889C22.2689 6.73556 23.3244 7.78667 24.1778 9.00889C23.58 8.48 23.0222 7.90667 22.42 7.38444C18.3511 3.85111 12.94 1.82667 7.54 2.03111C4.59556 2.17333 2.04667 4.82667 2.02444 7.77556V7.77556ZM17.4156 2.13556C17.0311 2.27333 17.16 2.98 17.6089 2.8C18.0844 2.73111 17.7778 2.06889 17.4156 2.13556ZM19.9778 2.06667C19.9733 2.63778 19.5756 2.87111 19.0822 2.96667C19.4956 3.12889 19.9267 3.31333 19.9578 3.82889C20.1356 3.38889 20.4311 3.07778 20.9311 3.05333C20.6956 2.94 20.4622 2.82 20.2311 2.70222C20.1511 2.48667 20.0667 2.27556 19.9778 2.06667V2.06667ZM11.9822 28.0711C11.9644 28.6156 11.5489 28.86 11.0933 29.0022C11.5444 29.1311 11.9533 29.3467 11.9622 29.8844C12.1 29.3867 12.48 29.0822 12.9533 28.9178C12.3956 28.9444 12.0956 28.5711 11.9822 28.0711V28.0711ZM14.4333 29.2C13.98 29.2578 14.2267 29.9133 14.6022 29.8111C14.9422 29.6889 14.8244 29.0756 14.4333 29.2Z" fill="black"/>
<path d="M2.02509 7.77542C2.04732 4.82654 4.59621 2.1732 7.54065 2.03098C12.9407 1.82654 18.3518 3.85098 22.4206 7.38431C23.0229 7.90654 23.5807 8.47987 24.1784 9.00876C26.6807 12.5065 28.0784 16.811 27.9695 21.1221C27.9806 22.9888 26.7762 24.7688 25.0873 25.5376C23.9318 26.1154 22.6029 25.9865 21.3584 25.911C17.6562 25.5465 14.1051 23.8154 11.5273 21.1354C8.89843 18.4643 7.29176 14.831 7.03398 11.0954C6.98065 10.231 6.92065 9.28654 7.39843 8.51987C7.92509 7.58431 8.96732 6.97765 10.0407 6.99098C11.5784 6.98876 13.114 7.3132 14.5407 7.87987C14.8184 7.94654 14.9695 8.17987 15.0895 8.41542C14.0118 8.10209 12.8829 7.97765 11.7629 8.04209C10.8695 8.08209 10.074 8.88209 10.0451 9.77765C9.78509 14.7043 13.1007 19.4599 17.6695 21.1932C19.1162 21.7465 20.674 22.0376 22.2251 21.951C23.1251 21.9221 23.9318 21.1154 23.9584 20.2154C24.0095 19.1443 23.9318 18.0621 23.7029 17.0132C23.7784 15.471 23.1184 14.0199 22.4784 12.6554C20.1295 7.89987 14.8718 4.73987 9.56065 5.0132C7.13843 5.18654 5.06065 7.3532 5.00732 9.78431C4.91176 14.5488 6.86287 19.3065 10.2251 22.6776C13.0006 25.4954 16.7406 27.331 20.6562 27.8532C22.3829 28.0132 24.2318 28.1665 25.8429 27.391C27.9118 26.4799 29.4095 24.5265 29.9118 22.3421C30.0229 23.8021 30.0918 25.3643 29.354 26.6888C28.4073 28.5976 26.3651 29.9643 24.2162 29.9643C19.0095 30.0865 13.8029 28.1932 9.82732 24.8399C9.09843 24.2421 8.45176 23.5576 7.76509 22.9154C8.48287 23.8243 9.14954 24.7821 10.0073 25.571C10.4784 26.0576 11.2229 26.5665 10.9651 27.3532C10.674 28.1199 9.58065 28.1688 9.11398 27.5465C5.82287 24.3688 3.45398 20.1999 2.49176 15.7199C1.91398 13.1132 1.99176 10.4265 2.02509 7.77542V7.77542ZM3.21398 6.98209C3.47176 7.23542 3.73176 7.48876 3.99176 7.74209C4.25621 7.49542 4.52065 7.25098 4.78287 7.00654C4.52287 6.7532 4.26287 6.49987 4.00065 6.24876C3.73843 6.4932 3.47621 6.73765 3.21398 6.98209V6.98209ZM19.3984 23.1999C18.9206 23.3265 19.3695 24.1154 19.7095 23.7065C19.9873 23.4932 19.6918 23.0932 19.3984 23.1999ZM21.7162 23.731C21.4962 23.8199 21.2806 23.9088 21.0606 23.9954C21.5784 24.0954 21.9095 24.4332 22.0006 24.9554C22.0918 24.4265 22.4251 24.0843 22.9584 23.9976C22.4518 23.9065 22.1118 23.5954 22.0006 23.0932C21.9073 23.3043 21.8118 23.5176 21.7162 23.731Z" fill="#0078D7"/>
<path d="M11.9826 28.0713C12.096 28.5713 12.396 28.9446 12.9538 28.918C12.4804 29.0824 12.1004 29.3868 11.9626 29.8846C11.9538 29.3468 11.5449 29.1313 11.0938 29.0024C11.5493 28.8602 11.9649 28.6157 11.9826 28.0713Z" fill="#0078D7"/>
<path d="M17.4158 2.13557C17.778 2.0689 18.0847 2.73112 17.6092 2.80001C17.1603 2.98001 17.0314 2.27335 17.4158 2.13557Z" fill="#3A96DD"/>
<path d="M19.9781 2.06665C20.067 2.27554 20.1514 2.48665 20.2314 2.70221C20.4625 2.81998 20.6959 2.93998 20.9314 3.05332C20.4314 3.07776 20.1359 3.38887 19.9581 3.82887C19.927 3.31332 19.4959 3.12887 19.0825 2.96665C19.5759 2.87109 19.9736 2.63776 19.9781 2.06665V2.06665Z" fill="#3A96DD"/>
<path d="M21.2579 5.64895C20.7223 5.1445 21.0534 4.10895 21.789 4.03561C22.4712 3.85561 22.9023 4.47117 23.3357 4.87117C27.8046 9.45117 30.4734 15.9045 29.9112 22.3423C29.409 24.5267 27.9112 26.4801 25.8423 27.3912C24.2312 28.1667 22.3823 28.0134 20.6557 27.8534C16.7401 27.3312 13.0001 25.4956 10.2245 22.6778C6.86233 19.3067 4.91122 14.5489 5.00677 9.7845C5.06011 7.35339 7.13788 5.18672 9.56011 5.01339C14.8712 4.74006 20.129 7.90006 22.4779 12.6556C23.1179 14.0201 23.7779 15.4712 23.7023 17.0134C23.2823 15.9534 22.9268 14.8578 22.3245 13.8801C20.749 11.2001 18.1001 9.19561 15.089 8.41561C14.969 8.18006 14.8179 7.94672 14.5401 7.88006C13.1134 7.31339 11.5779 6.98895 10.0401 6.99117C8.96677 6.97783 7.92455 7.5845 7.39788 8.52006C6.92011 9.28672 6.98011 10.2312 7.03344 11.0956C7.29122 14.8312 8.89788 18.4645 11.5268 21.1356C14.1045 23.8156 17.6557 25.5467 21.3579 25.9112C22.6023 25.9867 23.9312 26.1156 25.0868 25.5378C26.7757 24.7689 27.9801 22.9889 27.969 21.1223C28.0779 16.8112 26.6801 12.5067 24.1779 9.00895C23.3246 7.78672 22.269 6.73561 21.2579 5.64895V5.64895Z" fill="#3A96DD"/>
<path d="M3.21338 6.98211L4.00005 6.24878C4.26227 6.49989 4.52227 6.75322 4.78227 7.00656C4.52005 7.251 4.2556 7.49545 3.99116 7.74211C3.73116 7.48878 3.47116 7.23545 3.21338 6.98211Z" fill="#2C8FDC"/>
<path d="M10.0446 9.77792C10.0735 8.88237 10.869 8.08237 11.7623 8.04237C12.8823 7.97792 14.0112 8.10237 15.089 8.4157C18.1001 9.1957 20.749 11.2001 22.3246 13.8801C22.9268 14.8579 23.2823 15.9535 23.7023 17.0135C23.9312 18.0624 24.009 19.1446 23.9579 20.2157C23.9312 21.1157 23.1246 21.9224 22.2246 21.9513C20.6735 22.0379 19.1157 21.7468 17.669 21.1935C13.1001 19.4601 9.78457 14.7046 10.0446 9.77792V9.77792ZM11.7135 9.70904C11.5646 9.78015 11.269 9.92237 11.1223 9.99348C11.3157 10.0935 11.5112 10.1913 11.7068 10.2935C11.8068 10.4824 11.9068 10.6757 12.0068 10.8668C12.0757 10.7224 12.209 10.4335 12.2757 10.2913C12.4801 10.1913 12.6868 10.0935 12.8912 9.99348C12.7401 9.92681 12.4401 9.79348 12.2912 9.72681C12.2179 9.57126 12.0712 9.26459 11.9979 9.11126C11.9023 9.30904 11.8068 9.50904 11.7135 9.70904V9.70904ZM14.4423 9.18681C14.009 9.24904 14.209 9.9157 14.5979 9.7957C14.9623 9.69348 14.8246 9.0757 14.4423 9.18681ZM14.0823 11.2246C13.3157 11.5979 12.9001 12.4846 13.0046 13.3179C13.1023 16.3601 15.8379 19.0068 18.8823 19.0001C19.9468 19.0846 20.9668 18.1824 20.989 17.1113C21.0979 14.4468 19.1646 11.9001 16.5979 11.2179C15.7868 11.0224 14.8646 10.8335 14.0823 11.2246Z" fill="#B4A0FF"/>
<path d="M21.7156 23.731C21.8112 23.5177 21.9067 23.3044 22.0001 23.0933C22.1112 23.5955 22.4512 23.9066 22.9578 23.9977C22.4245 24.0844 22.0912 24.4266 22.0001 24.9555C21.9089 24.4333 21.5778 24.0955 21.0601 23.9955C21.2801 23.9088 21.4956 23.8199 21.7156 23.731V23.731Z" fill="#B4A0FF"/>
<path d="M11.7132 9.70886C11.8065 9.50886 11.9021 9.30886 11.9976 9.11108C12.071 9.26442 12.2176 9.57108 12.291 9.72664C12.4398 9.79331 12.7398 9.92664 12.891 9.99331C12.6865 10.0933 12.4798 10.1911 12.2754 10.2911C12.2087 10.4333 12.0754 10.7222 12.0065 10.8666C11.9065 10.6755 11.8065 10.4822 11.7065 10.2933C11.511 10.1911 11.3154 10.0933 11.1221 9.99331C11.2687 9.9222 11.5643 9.77997 11.7132 9.70886V9.70886Z" fill="white"/>
<path d="M14.0825 11.2245C14.8647 10.8334 15.7869 11.0223 16.598 11.2178C19.1647 11.9 21.098 14.4467 20.9891 17.1112C20.9669 18.1823 19.9469 19.0845 18.8825 19C15.838 19.0067 13.1025 16.36 13.0047 13.3178C12.9002 12.4845 13.3158 11.5978 14.0825 11.2245Z" fill="white"/>
<path d="M14.4422 9.18666C14.8244 9.07555 14.9622 9.69332 14.5978 9.79554C14.2089 9.91554 14.0089 9.24888 14.4422 9.18666Z" fill="#E4DCFF"/>
<path d="M19.398 23.2001C19.6913 23.0935 19.9869 23.4935 19.7091 23.7068C19.3691 24.1157 18.9202 23.3268 19.398 23.2001Z" fill="#6F91F0"/>
<path d="M14.4334 29.1999C14.8245 29.0755 14.9423 29.6888 14.6023 29.811C14.2267 29.9133 13.9801 29.2577 14.4334 29.1999Z" fill="#004C88"/>
</g>
<defs>
<clipPath id="clip0_476_446">
<rect width="32" height="32" fill="white"/>
</clipPath>
</defs>
</svg>
