<svg width="32" height="32" viewBox="0 0 32 32" fill="none" xmlns="http://www.w3.org/2000/svg">
<g clip-path="url(#clip0_477_11074)">
<path d="M14.9933 0H16.9689C20.2956 0.237778 23.56 1.48667 26.1356 3.62C29.5644 6.38667 31.6956 10.6311 32 15.0156V16.8533C31.7911 20.3356 30.44 23.7444 28.16 26.3889C25.4111 29.6622 21.2933 31.6644 17.0489 32H15.5022C13.4644 31.8022 11.5556 30.5333 10.6489 28.6889C10.0422 27.5422 9.9 26.1889 10.12 24.92C10.38 23.7356 11.3578 22.9444 12.0178 21.9889C9.8 21.9244 7.58222 22.02 5.36667 21.94C2.58 21.7333 0.264444 19.2956 0 16.5467V15.0933C0.28 10.6844 2.41556 6.40889 5.86 3.62667C8.42667 1.49778 11.6778 0.248889 14.9933 0V0ZM14.7311 2.06444C10.8111 2.38444 7.08667 4.49111 4.76 7.65778C2.90222 10.1556 1.88222 13.2956 2.04444 16.4133C2.12444 17.7578 3.02444 18.98 4.20889 19.5822C5.15778 20.1044 6.28 19.9533 7.32 20.0067C8.65333 19.9156 9.98444 20.0556 11.3178 20.0244C11.9978 20.02 12.7733 19.9756 13.3 20.4889C14.0178 21.0644 14.1156 22.1 13.8267 22.92C13.4111 23.7933 12.4733 24.3067 12.1222 25.2178C11.6667 26.9267 12.6311 28.7978 14.1911 29.5667C15.14 30.0956 16.2622 29.9756 17.3044 29.9267C21.5311 29.5733 25.5156 27.1378 27.7822 23.5556C29.9311 20.2689 30.5222 16.06 29.4978 12.2844C28.6067 8.98667 26.4511 6.05556 23.5689 4.22222C20.9756 2.52444 17.8111 1.79111 14.7311 2.06444V2.06444Z" fill="black"/>
<path d="M14.7313 2.06456C17.8113 1.79122 20.9758 2.52456 23.5691 4.22234C26.4513 6.05567 28.6069 8.98678 29.498 12.2846C30.5224 16.0601 29.9313 20.269 27.7824 23.5557C25.5158 27.1379 21.5313 29.5734 17.3046 29.9268C16.2624 29.9757 15.1402 30.0957 14.1913 29.5668C12.6313 28.7979 11.6669 26.9268 12.1224 25.2179C12.4735 24.3068 13.4113 23.7934 13.8269 22.9201C14.1158 22.1001 14.018 21.0646 13.3002 20.489C12.7735 19.9757 11.998 20.0201 11.318 20.0246C9.98464 20.0557 8.65353 19.9157 7.3202 20.0068C6.2802 19.9534 5.15797 20.1046 4.20908 19.5823C3.02464 18.9801 2.12464 17.7579 2.04464 16.4134C1.88242 13.2957 2.90242 10.1557 4.7602 7.65789C7.08686 4.49122 10.8113 2.38456 14.7313 2.06456V2.06456ZM15.6069 5.15345C14.7958 5.46456 14.1402 6.22456 14.0446 7.09789C13.7513 8.52678 14.9846 10.029 16.4469 9.97567C17.8758 10.0957 19.1446 8.72678 19.0024 7.32011C18.9424 5.71345 17.098 4.50234 15.6069 5.15345ZM7.61575 9.15789C6.64242 9.51122 5.93575 10.5223 6.02242 11.569C5.98242 12.9357 7.32686 14.129 8.67797 13.9646C10.1002 13.9534 11.2424 12.4779 10.978 11.0957C10.7646 9.60011 9.02686 8.55345 7.61575 9.15789V9.15789ZM22.7469 10.1157C21.2513 10.5268 20.4891 12.4823 21.3602 13.7823C22.0869 15.069 23.9735 15.4023 25.0913 14.429C26.2602 13.5334 26.2891 11.5623 25.1513 10.6312C24.5202 10.0223 23.5669 9.90011 22.7469 10.1157V10.1157ZM21.6758 18.1401C20.6646 18.5157 19.9091 19.5712 20.0335 20.6712C20.0491 22.0001 21.3602 23.109 22.6669 22.9934C24.198 22.9334 25.4158 21.2468 24.9002 19.7779C24.5269 18.4357 22.978 17.6779 21.6758 18.1401V18.1401ZM16.7158 23.1468C15.6513 23.7134 15.938 25.2623 16.6224 26.0268C17.3246 26.929 18.9713 27.4957 19.7691 26.4312C20.6691 24.6712 18.5335 22.3912 16.7158 23.1468Z" fill="#FFB900"/>
<path d="M15.6067 5.1534C17.0978 4.50229 18.9423 5.7134 19.0023 7.32006C19.1445 8.72673 17.8756 10.0956 16.4467 9.97562C14.9845 10.029 13.7511 8.52673 14.0445 7.09784C14.14 6.22451 14.7956 5.46451 15.6067 5.1534Z" fill="#F03A17"/>
<path d="M7.61566 9.15783C9.02677 8.55338 10.7645 9.60005 10.9779 11.0956C11.2423 12.4778 10.1001 13.9534 8.67788 13.9645C7.32677 14.1289 5.98233 12.9356 6.02233 11.5689C5.93566 10.5223 6.64233 9.51116 7.61566 9.15783Z" fill="#16C60C"/>
<path d="M22.7466 10.1156C23.5666 9.90007 24.5199 10.0223 25.151 10.6312C26.2888 11.5623 26.2599 13.5334 25.091 14.429C23.9732 15.4023 22.0866 15.069 21.3599 13.7823C20.4888 12.4823 21.251 10.5267 22.7466 10.1156V10.1156Z" fill="#FCE100"/>
<path d="M21.6757 18.1399C22.9779 17.6777 24.5268 18.4355 24.9001 19.7777C25.4157 21.2466 24.1979 22.9333 22.6668 22.9933C21.3601 23.1088 20.049 21.9999 20.0334 20.671C19.909 19.571 20.6646 18.5155 21.6757 18.1399V18.1399Z" fill="#0046FF"/>
<path d="M16.7157 23.1466C18.5335 22.391 20.669 24.671 19.769 26.431C18.9713 27.4955 17.3246 26.9288 16.6224 26.0266C15.9379 25.2621 15.6513 23.7132 16.7157 23.1466Z" fill="white"/>
</g>
<defs>
<clipPath id="clip0_477_11074">
<rect width="32" height="32" fill="white"/>
</clipPath>
</defs>
</svg>
