<svg width="32" height="32" viewBox="0 0 32 32" fill="none" xmlns="http://www.w3.org/2000/svg">
<g clip-path="url(#clip0_477_11053)">
<path d="M0 0H20.8533C22.4089 1.54889 23.9489 3.11778 25.52 4.65556C26.2889 3.82 27.2422 2.98667 28.4511 3.00222C30.1622 2.88 31.7133 4.25556 32 5.90889V6.89333C31.8511 7.59778 31.54 8.27556 31.0244 8.78667C29.3644 10.4556 27.6933 12.1156 26.0356 13.7889C26.0244 19.8578 26.0356 25.9289 26.0311 32H0L0 0ZM1.94 2.17111C2.05778 2.54889 2.03333 2.94444 1.99111 3.33333C1.96 6.21778 2.05556 9.10222 1.98444 11.9889C1.95778 17.9778 2.06 23.96 1.96444 29.9467C9.01111 30.0022 16.0578 29.9467 23.1022 29.9733C23.4178 29.98 23.7333 29.9533 24.0467 29.9111C23.9244 28.0889 24.0644 26.2644 23.9889 24.4444C24.1 23.5533 23.9133 22.66 23.9822 21.7667C24.0244 21.1778 24.0533 20.5889 23.9911 20C24.0689 18.1444 23.9956 16.2867 23.9911 14.4311C23.9978 13.9867 24.12 13.5156 23.9289 13.0933C24.9444 12.0467 25.9867 11.0289 27.0111 9.99111C27.68 9.33778 28.3289 8.66222 28.9956 8.00667C29.42 7.56222 30.02 7.12 29.9733 6.43556C30.0622 5.68444 29.3956 5.01556 28.6667 4.99556C27.9311 4.91111 27.4489 5.56444 26.9778 6.01333C26.3178 6.67778 25.6556 7.33556 24.9956 7.99778C24.6756 8.32444 24.3467 8.64222 24.0244 8.96889C24.0467 7.98667 24.02 7.00444 24.0289 6.02222C22.7089 4.72222 21.4289 3.38 20.0778 2.11556L20.0889 1.97556C14.3556 1.95778 8.62222 1.97778 2.88889 1.96444C2.56222 1.98222 2.18 1.88667 1.94 2.17111Z" fill="black"/>
<path d="M1.93994 2.17116C2.17994 1.88672 2.56216 1.98227 2.88883 1.96449C8.62216 1.97783 14.3555 1.95783 20.0888 1.9756L20.0777 2.1156C19.9555 3.39116 19.9044 4.67561 20.0311 5.95338C21.2755 5.99338 22.5199 5.92005 23.7622 6.04227C23.7844 7.08894 23.7599 8.1356 23.8155 9.18227C22.1955 10.7889 20.5955 12.4134 18.9688 14.0134C14.6511 13.9112 10.3288 14.0023 6.00661 13.9667C5.32661 13.9534 4.64661 13.9712 3.96883 14.04C3.96883 14.3534 3.97105 14.6667 3.96883 14.9801C8.64661 15.0112 13.3244 14.9801 17.9999 14.9956C17.3266 15.6689 16.6533 16.34 15.9777 17.0112C11.9755 16.9978 7.97105 16.9934 3.96883 17.0134C3.97105 17.3267 3.97105 17.64 3.96883 17.9534C7.62883 18.0734 11.2955 17.8978 14.9533 18.0423C14.2888 18.7067 13.6222 19.3689 12.9577 20.0312C9.95994 20.04 6.96439 19.9689 3.96883 20.0445C3.97105 20.3556 3.97105 20.6667 3.96883 20.9801C6.64661 21.0112 9.32216 20.98 11.9999 20.9956C11.3466 21.6623 10.6599 22.2956 10.0333 22.9867C8.01772 23.0089 6.00439 22.98 3.98883 23.0023C3.97994 23.3178 3.96883 23.6334 3.95994 23.9512C5.80216 23.9912 7.64661 23.9512 9.49105 23.9734C9.32661 24.3134 9.1755 24.66 9.00883 25C8.83327 25.3445 8.64661 25.6823 8.4755 26.0267C6.97327 26.0356 5.47105 26.0089 3.96883 26.0445C3.97105 26.3578 3.97105 26.6712 3.96883 26.9867C5.3955 26.9489 6.84439 27.1201 8.2555 26.8978C8.83327 26.5934 9.41105 26.2889 9.99994 26.0045C10.6911 25.6534 11.4044 25.34 12.0666 24.9334C12.4022 24.62 12.7155 24.2867 13.0377 23.9623C15.6866 23.9734 18.3377 23.9667 20.9866 23.9667C20.9888 23.6445 20.9933 23.3245 20.9977 23.0023C18.6711 22.9756 16.3444 23.0178 14.0177 22.9801C14.6799 22.3112 15.3488 21.6467 16.0177 20.9845C17.3333 20.9978 18.6511 20.9978 19.9688 20.9867C19.9688 20.6689 19.9666 20.3489 19.9688 20.0312C18.9911 20.0378 18.0133 20.0267 17.0377 19.9556C17.7022 19.2912 18.3666 18.6289 19.0333 17.9667C20.0311 17.9756 21.0266 17.9845 22.0244 17.9534C22.0222 17.64 22.0244 17.3289 22.0266 17.0156C21.3511 17.0023 20.6777 16.9956 20.0044 16.9978C21.3155 15.7023 22.6066 14.38 23.9288 13.0934C24.1199 13.5156 23.9977 13.9867 23.9911 14.4312C23.9955 16.2867 24.0688 18.1445 23.9911 20C24.0533 20.5889 24.0244 21.1778 23.9822 21.7667C23.9133 22.66 24.0999 23.5534 23.9888 24.4445C24.0644 26.2645 23.9244 28.0889 24.0466 29.9112C23.7333 29.9534 23.4177 29.9801 23.1022 29.9734C16.0577 29.9467 9.01105 30.0023 1.96439 29.9467C2.05994 23.96 1.95772 17.9778 1.98439 11.9889C2.0555 9.10227 1.95994 6.21783 1.99105 3.33338C2.03327 2.94449 2.05772 2.54894 1.93994 2.17116ZM4.01105 4.98672C3.98883 5.30672 3.97105 5.62894 3.9555 5.95116C6.96661 5.98672 9.97994 5.96005 12.9911 5.97338C12.9911 5.64672 12.9933 5.32227 12.9955 4.9956C10.0022 4.9756 7.00661 4.9956 4.01105 4.98672ZM3.96216 8.98005C9.98439 9.00005 16.0066 9.00449 22.0266 8.97783C22.0244 8.66894 22.0199 8.36227 22.0177 8.05338C21.7199 8.00449 21.4199 7.97783 21.1199 7.96672C15.5555 7.9756 9.98883 7.96894 4.42439 7.96894C3.8155 7.87116 3.98216 8.62005 3.96216 8.98005ZM4.01994 11.0045C4.02216 11.3267 4.02439 11.6489 4.02661 11.9712C9.34216 11.9645 14.6533 12.0156 19.9666 11.9712C19.9688 11.6489 19.9688 11.3289 19.9711 11.0067C14.6555 11 9.33772 11.0023 4.01994 11.0045Z" fill="white"/>
<path d="M20.0777 2.11548C21.4288 3.37992 22.7088 4.72215 24.0288 6.02215C24.0199 7.00437 24.0466 7.98659 24.0244 8.96881C23.971 9.02215 23.8688 9.12881 23.8155 9.18215C23.7599 8.13548 23.7844 7.08881 23.7621 6.04215C22.5199 5.91992 21.2755 5.99326 20.031 5.95326C19.9044 4.67548 19.9555 3.39103 20.0777 2.11548Z" fill="#E5E5E5"/>
<path d="M4.01112 4.9867C7.00668 4.99559 10.0022 4.97559 12.9956 4.99559C12.9933 5.32226 12.9911 5.6467 12.9911 5.97337C9.98001 5.96004 6.96668 5.9867 3.95557 5.95115C3.97112 5.62892 3.9889 5.3067 4.01112 4.9867Z" fill="#A5A5A5"/>
<path d="M3.96219 8.98004C3.98219 8.62004 3.81552 7.87115 4.42441 7.96893C9.98885 7.96893 15.5555 7.97559 21.12 7.96671C21.42 7.97782 21.72 8.00448 22.0177 8.05337C22.02 8.36226 22.0244 8.66893 22.0266 8.97782C16.0066 9.00448 9.98441 9.00004 3.96219 8.98004Z" fill="#A5A5A5"/>
<path d="M4.02002 11.0044C9.3378 11.0022 14.6556 11 19.9711 11.0066C19.9689 11.3289 19.9689 11.6489 19.9667 11.9711C14.6534 12.0155 9.34224 11.9644 4.02669 11.9711C4.02446 11.6489 4.02224 11.3266 4.02002 11.0044Z" fill="#A5A5A5"/>
<path d="M3.96875 14.0398C4.64653 13.971 5.32653 13.9532 6.00653 13.9665C10.3288 14.0021 14.651 13.911 18.9688 14.0132C18.6443 14.3398 18.3243 14.6687 17.9999 14.9954C13.3243 14.9798 8.64653 15.011 3.96875 14.9798C3.97097 14.6665 3.96875 14.3532 3.96875 14.0398Z" fill="#A5A5A5"/>
<path d="M3.96875 17.0134C7.97097 16.9934 11.9754 16.9978 15.9776 17.0112C15.6354 17.3556 15.2954 17.7 14.9532 18.0423C11.2954 17.8978 7.62875 18.0734 3.96875 17.9534C3.97097 17.64 3.97097 17.3267 3.96875 17.0134Z" fill="#A5A5A5"/>
<path d="M19.0337 17.9664C19.3581 17.6442 19.6804 17.3219 20.0048 16.9975C20.6781 16.9953 21.3515 17.0019 22.027 17.0153C22.0248 17.3286 22.0226 17.6397 22.0248 17.953C21.027 17.9842 20.0315 17.9753 19.0337 17.9664Z" fill="#A5A5A5"/>
<path d="M3.96875 20.0444C6.96431 19.9689 9.95986 20.04 12.9576 20.0311C12.6376 20.3533 12.3199 20.6755 11.9999 20.9955C9.32208 20.98 6.64653 21.0111 3.96875 20.98C3.97097 20.6667 3.97097 20.3555 3.96875 20.0444Z" fill="#A5A5A5"/>
<path d="M16.0181 20.9845C16.3581 20.64 16.6958 20.2978 17.0381 19.9556C18.0136 20.0267 18.9914 20.0378 19.9692 20.0311C19.967 20.3489 19.9692 20.6689 19.9692 20.9867C18.6514 20.9978 17.3336 20.9978 16.0181 20.9845Z" fill="#A5A5A5"/>
<path d="M3.98885 23.0024C6.00441 22.9801 8.01774 23.009 10.0333 22.9868L10.0177 23.009C9.82885 23.3224 9.65107 23.6446 9.49107 23.9735C7.64663 23.9513 5.80218 23.9913 3.95996 23.9513C3.96885 23.6335 3.97996 23.3179 3.98885 23.0024Z" fill="#A5A5A5"/>
<path d="M13.0381 23.9624C13.3625 23.6336 13.6914 23.3091 14.0181 22.9802C16.3448 23.018 18.6714 22.9758 20.9981 23.0024C20.9936 23.3247 20.9892 23.6447 20.987 23.9669C18.3381 23.9669 15.687 23.9736 13.0381 23.9624Z" fill="#A5A5A5"/>
<path d="M3.96875 26.0445C5.47097 26.009 6.97319 26.0356 8.47542 26.0267C8.38653 26.3134 8.32208 26.6067 8.25542 26.8979C6.84431 27.1201 5.39542 26.949 3.96875 26.9867C3.97097 26.6712 3.97097 26.3579 3.96875 26.0445Z" fill="#A5A5A5"/>
<path d="M26.9775 6.0135C27.4487 5.56461 27.9309 4.91127 28.6664 4.99572C29.3953 5.01572 30.062 5.68461 29.9731 6.43572C30.0198 7.12016 29.4198 7.56238 28.9953 8.00683C28.3442 7.32016 27.6842 6.64238 26.9775 6.0135Z" fill="#EE9889"/>
<path d="M24.9956 7.99787C25.6556 7.33565 26.3178 6.67787 26.9778 6.01343C27.6845 6.64232 28.3445 7.32009 28.9956 8.00676C28.3289 8.66232 27.68 9.33787 27.0112 9.99121C26.3312 9.33565 25.6689 8.66232 24.9956 7.99787Z" fill="#CCCCCC"/>
<path d="M24.0242 8.96891C24.3465 8.64225 24.6754 8.32447 24.9954 7.9978C25.6687 8.66225 26.3309 9.33558 27.0109 9.99114C25.9865 11.0289 24.9442 12.0467 23.9287 13.0934C22.6065 14.38 21.3154 15.7022 20.0042 16.9978C19.6798 17.3222 19.3576 17.6445 19.0331 17.9667C18.3665 18.6289 17.702 19.2911 17.0376 19.9556C16.6954 20.2978 16.3576 20.64 16.0176 20.9845C15.3487 21.6467 14.6798 22.3111 14.0176 22.98C13.6909 23.3089 13.362 23.6334 13.0376 23.9622C12.7154 24.2867 12.402 24.62 12.0665 24.9334C12.0287 24.6356 11.9909 24.34 11.9531 24.0422C11.642 24.0067 11.3331 23.9734 11.0242 23.9356C11.0109 23.6178 10.9976 23.3022 10.9842 22.9845C10.662 22.9911 10.3398 23 10.0176 23.0089L10.0331 22.9867C10.6598 22.2956 11.3465 21.6622 11.9998 20.9956C12.3198 20.6756 12.6376 20.3534 12.9576 20.0311C13.622 19.3689 14.2887 18.7067 14.9531 18.0422C15.2954 17.7 15.6354 17.3556 15.9776 17.0111C16.6531 16.34 17.3265 15.6689 17.9998 14.9956C18.3242 14.6689 18.6442 14.34 18.9687 14.0134C20.5954 12.4134 22.1954 10.7889 23.8154 9.18225C23.8687 9.12891 23.9709 9.02225 24.0242 8.96891Z" fill="#FFC83D"/>
<path d="M10.0177 23.0088C10.3399 22.9999 10.6621 22.991 10.9843 22.9844C10.9977 23.3022 11.011 23.6177 11.0243 23.9355C11.3332 23.9733 11.6421 24.0066 11.9532 24.0422C11.991 24.3399 12.0288 24.6355 12.0666 24.9333C11.4043 25.3399 10.691 25.6533 9.9999 26.0044C9.66879 25.6688 9.3399 25.3333 9.00879 24.9999C9.17546 24.6599 9.32657 24.3133 9.49101 23.9733C9.65101 23.6444 9.82879 23.3222 10.0177 23.0088Z" fill="#F7D7C4"/>
<path d="M9.0087 25C9.33982 25.3333 9.6687 25.6689 9.99982 26.0044C9.41093 26.2889 8.83315 26.5933 8.25537 26.8978C8.32204 26.6067 8.38648 26.3133 8.47537 26.0267C8.64648 25.6822 8.83315 25.3444 9.0087 25Z" fill="#757575"/>
</g>
<defs>
<clipPath id="clip0_477_11053">
<rect width="32" height="32" fill="white"/>
</clipPath>
</defs>
</svg>
