<svg width="32" height="32" viewBox="0 0 32 32" fill="none" xmlns="http://www.w3.org/2000/svg">
<g clip-path="url(#clip0_477_11153)">
<path d="M14.3733 2.49567C14.8711 2.11789 15.36 1.65789 16 1.55789C16.8911 1.43344 17.8 1.46011 18.6956 1.51122C19.4578 1.53567 20.06 2.049 20.6267 2.49789C22.04 2.53567 23.4556 2.46678 24.8667 2.52233C26.38 2.58678 27.7667 3.53789 28.4556 4.87122C28.9356 5.83789 29.9022 6.39344 30.5511 7.22456C31.34 8.209 31.7756 9.429 32 10.6579V12.1246C31.82 13.8779 30.9867 15.5668 29.6644 16.7401C29.0133 17.3157 28.2333 17.7112 27.4756 18.1223C28.1178 18.8046 28.8267 19.4223 29.4711 20.1023C30.8978 21.6179 31.7711 23.6201 32 25.6823V27.1068C31.7289 28.3912 30.92 29.6001 29.6933 30.1379C28.1756 30.789 26.4778 30.409 24.88 30.5157C23.4378 30.6201 21.86 30.269 20.9267 29.0801C19.7844 27.8246 20.1378 26.0023 19.5556 24.5134C19.24 24.5134 18.9244 24.5157 18.6089 24.5223C17.7444 25.3801 16.3756 25.8668 15.26 25.1846C14.2467 24.6712 13.9889 23.489 13.9156 22.4534C12.4111 22.1001 11.0689 21.2601 10.0956 20.0623C8.94444 20.6023 7.65778 20.4534 6.42667 20.4734C5.76889 20.4979 5.20222 20.129 4.64667 19.8268C3.21111 20.5757 1.57556 20.5646 0 20.5068V10.509C1.57556 10.4601 3.21556 10.409 4.64889 11.1779C5.77778 10.2423 7.25111 10.6423 8.58 10.5401C7.89111 9.73789 7.20667 8.85344 7.05556 7.77344C6.71111 5.94678 7.64667 3.98456 9.26667 3.08233C10.8111 2.16233 12.6756 2.61567 14.3733 2.49567ZM15.9956 4.50678C14.3422 4.54011 12.6844 4.44678 11.0333 4.54456C9.66 4.729 8.86222 6.14233 8.96 7.44456C9.28889 8.38456 9.95556 9.32233 11.02 9.45122C12.6644 9.56233 14.3178 9.46011 15.9667 9.49122C15.9689 9.82456 15.98 10.1601 16.0022 10.4934C14.9378 10.489 13.7911 10.4646 12.8756 11.0957C11.9667 11.6068 11.4444 12.5468 11.0689 13.4823C10.38 13.4912 9.69111 13.4957 9.00222 13.5068C8.99778 13.2001 8.98667 12.8957 8.97778 12.5912C8.68 12.5646 8.38222 12.5423 8.08222 12.5201C8.04667 12.8446 8.00667 13.1668 7.99111 13.4912C7.66222 13.4979 7.33333 13.5068 7.00444 13.5157C7 13.209 6.98889 12.9023 6.97778 12.5957C6.68 12.5668 6.38222 12.5401 6.08444 12.5157C6.05111 12.8112 6.01556 13.109 6 13.409C5.53333 13.5757 5.07111 13.7601 4.61333 13.9534C4.05556 13.0601 3.06889 12.5579 2.04 12.4446C1.96889 13.4623 1.99111 14.4846 1.98667 15.5046C1.96222 16.5268 2.00667 17.5468 2.04889 18.569C3.04889 18.409 4.09333 17.9801 4.59111 17.0401C5.05333 17.2312 5.51778 17.4157 5.98444 17.5934C5.98667 17.9623 6.00222 18.4312 6.42889 18.5601C6.92667 18.5001 7.21778 17.8401 7.00889 17.4557L7.09778 17.5001C7.40222 17.5468 7.70889 17.5646 8.01778 17.5512C8.03556 17.9112 8.08889 18.269 8.14444 18.6246C8.60667 18.4934 9.12 18.2957 8.99111 17.6979L8.98222 17.4868L9.08222 17.5201C9.73333 17.6112 10.4 17.4846 11.0556 17.4846C11.44 18.4557 11.9978 19.4201 12.9422 19.9423C13.84 20.5312 14.9489 20.5157 15.98 20.5179C15.9467 21.5046 15.9667 22.4934 16.0956 23.4734C16.3778 23.4601 16.6622 23.4446 16.9444 23.4268C16.9778 23.1201 17.0067 22.8134 17.0356 22.5068C18.1867 22.5068 19.3356 22.5134 20.4844 22.5001C21.2644 23.4201 21.82 24.5601 21.92 25.7712C22.0267 26.4979 21.9733 27.3512 22.5511 27.9001C23.1356 28.5601 24.0822 28.5179 24.8867 28.5179C26.0089 28.4846 27.1311 28.5646 28.2489 28.4734C29.0911 28.4179 29.8533 27.7201 29.9511 26.8779C30.1533 24.969 29.38 23.0623 28.1533 21.6246C27.44 20.7779 26.4711 20.169 25.86 19.2334C25.3244 18.4468 25.0267 17.509 25.0089 16.5579C25.8956 16.4423 26.8111 16.2979 27.5756 15.8001C29.3244 14.7801 30.3133 12.629 29.9289 10.6379C29.6889 8.98678 28.5022 7.60011 27.0244 6.88456C26.9622 5.65344 25.92 4.52678 24.66 4.51567C22.7711 4.48678 20.8822 4.52011 18.9933 4.50678C18.9956 4.29122 18.9956 3.86011 18.9978 3.64456C18.0533 3.40678 17.0778 3.49567 16.1156 3.509C16.0667 3.84011 16.0178 4.17122 15.9956 4.50678Z" fill="black"/>
<path d="M24.4621 9.49122C25.1687 9.50677 25.8154 9.18233 26.3709 8.77344C26.9376 9.22455 27.5354 9.71344 27.7909 10.4179C28.1687 11.4845 27.9776 12.7823 27.1376 13.5801C26.5954 14.1957 25.7687 14.3868 25.0065 14.5734C25.0198 13.1823 24.3198 11.8023 23.1132 11.0868C21.8909 10.2957 20.3709 10.5312 18.9932 10.509C18.9976 10.169 19.0021 9.83122 19.0021 9.49122C20.8221 9.47788 22.6421 9.51788 24.4621 9.49122Z" fill="black"/>
<path d="M17.0201 20.5688C17.8312 20.7644 18.6201 21.0622 19.3401 21.4844C18.5646 21.4933 17.7868 21.4933 17.0112 21.4933C17.0135 21.2622 17.0179 20.8 17.0201 20.5688Z" fill="black"/>
<path d="M15.9961 4.50672C16.0183 4.17116 16.0672 3.84005 16.1161 3.50894C17.0783 3.4956 18.0539 3.40671 18.9983 3.64449C18.9961 3.86005 18.9961 4.29116 18.9939 4.50672C18.9894 4.8356 18.9805 5.16449 18.9739 5.49116C17.965 5.49338 16.9583 5.49338 15.9517 5.4956C15.965 5.16449 15.9761 4.8356 15.9961 4.50672Z" fill="#FFB900"/>
<path d="M15.98 6.5066C16.9844 6.5066 17.9889 6.50438 18.9956 6.5066C18.9956 6.83771 18.9956 7.16882 18.9978 7.49994C19.0022 8.16438 19.0022 8.82882 19.0022 9.49105C19.0022 9.83105 18.9978 10.1688 18.9933 10.5088C18.9889 10.8199 18.98 11.131 18.9689 11.4422C18.0067 11.4977 17.0444 11.5022 16.0822 11.4666C16.0533 11.1422 16.0244 10.8177 16.0022 10.4933C15.98 10.1599 15.9689 9.82438 15.9667 9.49105C15.9644 8.82882 15.9733 8.1666 15.9756 7.50438C15.9778 7.17105 15.9778 6.83771 15.98 6.5066Z" fill="#FFB900"/>
<path d="M26.9822 7.44452C26.9933 7.30452 27.0133 7.02452 27.0244 6.88452C28.5022 7.60008 29.6889 8.98674 29.9289 10.6379C30.3133 12.629 29.3244 14.7801 27.5755 15.8001C26.8111 16.2979 25.8955 16.4423 25.0089 16.5579C25 16.209 25.0022 15.8601 25.0044 15.5134C25.0067 15.2001 25.0133 14.8867 25.0067 14.5734C25.7689 14.3867 26.5955 14.1956 27.1378 13.5801C27.9778 12.7823 28.1689 11.4845 27.7911 10.4179C27.5355 9.71341 26.9378 9.22452 26.3711 8.77341C26.6022 8.34452 26.8089 7.9023 26.9822 7.44452Z" fill="#FFB900"/>
<path d="M15.1313 13.3601C16.0246 12.7623 17.1869 12.9734 18.0846 13.4467C19.4046 14.1289 20.7269 14.8112 22.0313 15.5289C19.3135 15.4489 16.5935 15.5134 13.8735 15.4867C14.1291 14.7045 14.3669 13.8067 15.1313 13.3601Z" fill="#FFB900"/>
<path d="M15.9796 20.5178C16.3262 20.5245 16.6729 20.5312 17.0196 20.5689C17.0174 20.8 17.0129 21.2623 17.0107 21.4934C17.7862 21.4934 18.564 21.4934 19.3396 21.4845C19.7529 21.7867 20.1351 22.1289 20.484 22.5C19.3351 22.5134 18.1862 22.5067 17.0351 22.5067C17.0062 22.8134 16.9774 23.12 16.944 23.4267C16.6618 23.4445 16.3774 23.46 16.0951 23.4734C15.9662 22.4934 15.9462 21.5045 15.9796 20.5178Z" fill="#FFB900"/>
<path d="M11.0335 4.54443C12.6847 4.44665 14.3424 4.53999 15.9958 4.50665C15.9758 4.83554 15.9647 5.16443 15.9513 5.49554C14.3447 5.54665 12.7202 5.34221 11.1247 5.60443C11.0847 5.77332 11.0047 6.10888 10.9647 6.27554C12.5802 6.78665 14.3135 6.39554 15.9802 6.50665C15.978 6.83776 15.978 7.1711 15.9758 7.50443C13.638 7.46665 11.298 7.53999 8.96021 7.44443C8.86243 6.14221 9.66021 4.72888 11.0335 4.54443Z" fill="#F7630C"/>
<path d="M18.9931 4.50672C20.882 4.52005 22.7709 4.48672 24.6598 4.51561C25.9198 4.52672 26.962 5.65338 27.0243 6.88449C27.0131 7.02449 26.9931 7.30449 26.982 7.44449C24.322 7.54672 21.6598 7.46227 18.9976 7.50005C18.9954 7.16894 18.9954 6.83783 18.9954 6.50672C21.0754 6.4445 23.1776 6.68672 25.2398 6.31561C24.9843 5.96449 24.7665 5.46005 24.2443 5.51783C22.5176 5.41561 20.7865 5.53116 19.0576 5.49116H18.9731C18.9798 5.16449 18.9887 4.83561 18.9931 4.50672Z" fill="#F7630C"/>
<path d="M2.04015 12.4443C3.06904 12.5577 4.05571 13.0599 4.61348 13.9532C4.82015 14.4488 4.95793 14.9688 5.04682 15.4954C4.02682 15.4954 3.00682 15.4977 1.98682 15.5043C1.99126 14.4843 1.96904 13.4621 2.04015 12.4443Z" fill="#F7630C"/>
<path d="M11.1244 5.6045C12.7199 5.34228 14.3444 5.54673 15.951 5.49561C15.9621 5.83117 15.971 6.16895 15.9799 6.50673C14.3132 6.39561 12.5799 6.78673 10.9644 6.27561C11.0044 6.10895 11.0844 5.77339 11.1244 5.6045Z" fill="#F7894A"/>
<path d="M19.0578 5.49117C20.7867 5.53117 22.5178 5.41562 24.2445 5.51784C24.7667 5.46006 24.9845 5.96451 25.24 6.31562C23.1778 6.68673 21.0756 6.44451 18.9956 6.50673C19.0134 6.16895 19.0356 5.83117 19.0578 5.49117Z" fill="#F7894A"/>
<path d="M15.9512 5.49566C16.9578 5.49343 17.9645 5.49343 18.9734 5.49121H19.0578C19.0356 5.83121 19.0134 6.16899 18.9956 6.50677C17.989 6.50454 16.9845 6.50677 15.9801 6.50677C15.9712 6.16899 15.9623 5.83121 15.9512 5.49566Z" fill="#FFC83D"/>
<path d="M8.95996 7.44434C11.2977 7.53989 13.6377 7.46656 15.9755 7.50434C15.9733 8.16656 15.9644 8.82878 15.9666 9.491C14.3177 9.45989 12.6644 9.56211 11.02 9.451C9.95552 9.32211 9.28885 8.38434 8.95996 7.44434Z" fill="#CA5010"/>
<path d="M18.9976 7.49989C21.6598 7.46211 24.322 7.54656 26.982 7.44434C26.8087 7.90211 26.602 8.34434 26.3709 8.77322C25.8153 9.18211 25.1687 9.50656 24.462 9.491C22.642 9.51767 20.822 9.47767 19.002 9.491C19.002 8.82878 19.002 8.16434 18.9976 7.49989Z" fill="#CA5010"/>
<path d="M1.98695 15.5045C3.00695 15.4978 4.02695 15.4956 5.04695 15.4956C5.02028 15.68 4.96695 16.0445 4.94028 16.2267C4.83806 16.5045 4.72028 16.7756 4.59139 17.04C4.09362 17.98 3.04917 18.4089 2.04917 18.5689C2.00695 17.5467 1.96251 16.5267 1.98695 15.5045Z" fill="#CA5010"/>
<path d="M12.8759 11.0957C13.7915 10.4646 14.9382 10.489 16.0026 10.4935C16.0248 10.8179 16.0537 11.1424 16.0826 11.4668C17.0448 11.5024 18.007 11.4979 18.9693 11.4424C18.9804 11.1313 18.9893 10.8202 18.9937 10.509C20.3715 10.5313 21.8915 10.2957 23.1137 11.0868C24.3204 11.8024 25.0204 13.1824 25.007 14.5735C25.0137 14.8868 25.007 15.2002 25.0048 15.5135C24.0137 15.4979 23.0204 15.4535 22.0315 15.529C20.727 14.8113 19.4048 14.129 18.0848 13.4468C17.187 12.9735 16.0248 12.7624 15.1315 13.3602C14.367 13.8068 14.1293 14.7046 13.8737 15.4868C12.2759 15.489 10.6782 15.4757 9.08038 15.5335C9.07816 16.1957 9.07594 16.8579 9.0826 17.5202L8.9826 17.4868C8.94483 17.4268 8.87372 17.3046 8.83594 17.2446C8.95594 16.0024 9.02483 14.7557 9.0026 13.5068C9.69149 13.4957 10.3804 13.4913 11.0693 13.4824C11.4448 12.5468 11.967 11.6068 12.8759 11.0957Z" fill="#13A10E"/>
<path d="M4.61377 13.9534C5.07155 13.76 5.53377 13.5756 6.00044 13.4089C5.97599 14.0912 6.00044 14.7756 6.00933 15.4578C5.73155 15.5134 5.45155 15.5689 5.17377 15.6245C5.09599 15.8245 5.01821 16.0267 4.94044 16.2267C4.9671 16.0445 5.02044 15.68 5.0471 15.4956C4.95821 14.9689 4.82044 14.4489 4.61377 13.9534Z" fill="#13A10E"/>
<path d="M7.00395 13.5157C7.33284 13.5068 7.66173 13.4979 7.99062 13.4912C7.96173 14.1512 7.98395 14.8112 7.99062 15.4712C7.69062 15.5045 7.39062 15.5379 7.09284 15.569C7.08617 16.2134 7.07728 16.8557 7.09728 17.5001L7.00839 17.4557C6.96173 17.4157 6.87062 17.3379 6.82617 17.3001C6.95284 16.0423 7.02395 14.7801 7.00395 13.5157Z" fill="#13A10E"/>
<path d="M22.5911 20.16C23.32 19.86 23.8578 19.2644 24.4 18.7178C24.9289 19.6956 25.5622 20.6311 26.44 21.3311C27.9089 22.5311 28.9267 24.3311 29.0111 26.2444C29.0578 26.76 28.7956 27.4289 28.2 27.4578C26.9533 27.5755 25.6933 27.5022 24.4422 27.5111C23.9533 27.4956 23.24 27.5 23.1111 26.8911C22.8556 25.8622 22.9 24.7622 22.4444 23.7844C21.9178 22.4467 20.8711 21.4222 19.7822 20.5267C20.7222 20.4933 21.7045 20.5356 22.5911 20.16Z" fill="#13A10E"/>
<path d="M6.08437 12.5156C6.38215 12.5401 6.67993 12.5667 6.97771 12.5956C6.98882 12.9023 6.99993 13.209 7.00438 13.5156C7.02438 14.7801 6.95326 16.0423 6.8266 17.3001C6.87104 17.3378 6.96215 17.4156 7.00882 17.4556C7.21771 17.8401 6.9266 18.5001 6.42882 18.5601C6.00215 18.4312 5.9866 17.9623 5.98438 17.5934C5.98438 16.8801 6.01549 16.169 6.00882 15.4578C5.99993 14.7756 5.97549 14.0912 5.99993 13.409C6.01549 13.109 6.05104 12.8112 6.08437 12.5156Z" fill="#16C60C"/>
<path d="M8.08213 12.52C8.38213 12.5422 8.67991 12.5645 8.97768 12.5911C8.98657 12.8956 8.99768 13.2 9.00213 13.5067C9.02435 14.7556 8.95546 16.0022 8.83546 17.2445C8.87324 17.3045 8.94435 17.4267 8.98213 17.4867L8.99102 17.6978C9.1199 18.2956 8.60657 18.4934 8.14435 18.6245C8.08879 18.2689 8.03546 17.9111 8.01768 17.5511C7.98879 16.86 7.99546 16.1645 7.99102 15.4711C7.98435 14.8111 7.96213 14.1511 7.99102 13.4911C8.00657 13.1667 8.04657 12.8445 8.08213 12.52Z" fill="#16C60C"/>
<path d="M5.17353 15.6244C5.45131 15.5689 5.73131 15.5133 6.00909 15.4578C6.01575 16.1689 5.98464 16.88 5.98464 17.5933C5.51798 17.4155 5.05353 17.2311 4.59131 17.04C4.7202 16.7755 4.83798 16.5044 4.9402 16.2267C5.01798 16.0267 5.09575 15.8244 5.17353 15.6244Z" fill="#107C10"/>
<path d="M7.09281 15.5687C7.39058 15.5376 7.69058 15.5043 7.99058 15.4709C7.99503 16.1643 7.98836 16.8598 8.01725 17.5509C7.70836 17.5643 7.4017 17.5465 7.09725 17.4998C7.07725 16.8554 7.08614 16.2132 7.09281 15.5687Z" fill="#107C10"/>
<path d="M9.08035 15.5333C10.6781 15.4755 12.2759 15.4888 13.8737 15.4866C14.1137 16.1999 14.2959 17.0199 14.9315 17.4977C15.7537 18.1644 16.9492 18.0866 17.8626 17.6555C19.2737 16.991 20.6048 16.1666 22.0315 15.5288C23.0203 15.4533 24.0137 15.4977 25.0048 15.5133C25.0026 15.8599 25.0003 16.2088 25.0092 16.5577C25.027 17.5088 25.3248 18.4466 25.8603 19.2333C26.4715 20.1688 27.4403 20.7777 28.1537 21.6244C29.3803 23.0622 30.1537 24.9688 29.9515 26.8777C29.8537 27.7199 29.0915 28.4177 28.2492 28.4733C27.1315 28.5644 26.0092 28.4844 24.887 28.5177C24.0826 28.5177 23.1359 28.5599 22.5515 27.8999C21.9737 27.351 22.027 26.4977 21.9203 25.771C21.8203 24.5599 21.2648 23.4199 20.4848 22.4999C20.1359 22.1288 19.7537 21.7866 19.3403 21.4844C18.6203 21.0622 17.8315 20.7644 17.0203 20.5688C16.6737 20.531 16.327 20.5244 15.9803 20.5177C14.9492 20.5155 13.8403 20.531 12.9426 19.9422C11.9981 19.4199 11.4403 18.4555 11.0559 17.4844C10.4003 17.4844 9.73368 17.611 9.08257 17.5199C9.0759 16.8577 9.07813 16.1955 9.08035 15.5333ZM22.5915 20.1599C21.7048 20.5355 20.7226 20.4933 19.7826 20.5266C20.8715 21.4222 21.9181 22.4466 22.4448 23.7844C22.9003 24.7622 22.8559 25.8622 23.1115 26.891C23.2403 27.4999 23.9537 27.4955 24.4426 27.511C25.6937 27.5022 26.9537 27.5755 28.2003 27.4577C28.7959 27.4288 29.0581 26.7599 29.0115 26.2444C28.927 24.331 27.9092 22.531 26.4403 21.331C25.5626 20.631 24.9292 19.6955 24.4003 18.7177C23.8581 19.2644 23.3203 19.8599 22.5915 20.1599Z" fill="#107C10"/>
<path d="M13.8735 15.4866C16.5935 15.5132 19.3135 15.4488 22.0313 15.5288C20.6046 16.1666 19.2735 16.991 17.8624 17.6555C16.9491 18.0866 15.7535 18.1643 14.9313 17.4977C14.2958 17.0199 14.1135 16.1999 13.8735 15.4866Z" fill="#D48C00"/>
</g>
<defs>
<clipPath id="clip0_477_11153">
<rect width="32" height="32" fill="white"/>
</clipPath>
</defs>
</svg>
