<svg width="32" height="32" viewBox="0 0 32 32" fill="none" xmlns="http://www.w3.org/2000/svg">
<g clip-path="url(#clip0_477_11267)">
<path d="M6.33579 0H25.738C28.4136 0.357778 30.738 2.61556 30.9625 5.33778C31.0691 7.54667 31.1558 9.88667 30.1091 11.9089C29.0758 14.0956 27.1091 15.7356 24.8647 16.5822C24.2736 18.6889 22.8336 20.5956 20.7647 21.4178C20.5558 21.6067 19.9558 21.6244 20.0536 21.9911C20.7247 22.3556 21.4713 22.58 22.0847 23.0489C22.758 23.5444 23.1936 24.2756 23.6402 24.9667C24.5913 24.9956 25.6247 24.9889 26.4336 25.5711C27.2469 26.12 27.8669 27.0111 27.9425 28.0089C28.0291 29.3378 28.018 30.6689 28.0247 32H3.97134C4.2069 30.0778 3.44023 27.8022 4.85579 26.1978C5.69134 25.1422 7.09579 24.9311 8.36023 24.9667C8.8069 24.2778 9.24245 23.5489 9.91134 23.0511C10.5869 22.5333 11.4002 22.2578 12.1758 21.9356C11.0647 21.3444 9.8669 20.84 8.98912 19.9044C8.06468 18.9978 7.52023 17.7978 7.1269 16.5822C6.05357 16.1156 4.98245 15.5956 4.10912 14.8C2.21801 13.1667 1.03357 10.7267 1.00245 8.21778C1.00468 6.60667 0.820232 4.88667 1.58245 3.4C2.44468 1.54 4.31801 0.26 6.33579 0V0ZM3.0069 5.78222C3.00468 7.43111 2.83134 9.16 3.53134 10.7067C4.43801 12.9578 6.58912 14.5578 8.96023 14.9689C9.03801 16.0467 9.30023 17.1467 9.99357 18.0044C10.9225 19.3022 12.478 19.9489 14.0291 20.08C14.0491 21.3911 13.9802 22.7 13.9558 24.0089C12.9825 23.9756 11.8913 23.9578 11.1158 24.6511C10.3713 25.2022 10.0625 26.1133 9.93801 26.9956C8.93134 27.04 7.89357 26.8711 6.9069 27.1133C5.76023 27.5711 6.00912 28.9889 5.95579 29.9733C12.6513 30.0156 19.3491 29.9978 26.0447 29.9756C25.9936 28.9867 26.2402 27.5622 25.0869 27.1067C24.0891 26.8867 23.0558 27.0311 22.0447 26.9956C21.9491 26.1067 21.6269 25.2044 20.8869 24.6533C20.1136 23.9578 19.0225 23.9756 18.0513 24.0133C17.9758 22.7378 17.9091 21.4533 18.0136 20.18C18.2536 19.8067 18.7891 20.06 19.1402 19.8711C21.3869 19.4044 23.0313 17.24 23.0402 14.9689C25.3002 14.5667 27.3736 13.1111 28.3358 11.0022C29.1691 9.38667 29.0091 7.52667 28.9936 5.76889C28.9425 4.22222 27.878 2.78444 26.4313 2.24889C25.3202 1.84 24.0736 1.99333 23.0069 2.46444C23.0002 2.34 22.9869 2.09333 22.9802 1.97111C20.0647 2.03333 17.1447 1.89778 14.2269 2.01778C12.4913 2 10.7536 1.92222 9.01801 1.98889C9.01357 2.10667 9.00023 2.34444 8.99357 2.46444C8.18468 2.14 7.30912 1.88667 6.43134 2.04C4.58468 2.24222 3.04912 3.92667 3.0069 5.78222Z" fill="black"/>
<path d="M5.0089 6.00445C4.97557 4.9 6.01557 3.89778 7.12446 4.03334C8.14001 4.03334 9.00446 4.98667 8.99112 5.98445C9.01112 8.29778 9.00446 10.6111 8.9889 12.9244C7.65335 12.5533 6.39112 11.7711 5.70446 10.5356C4.85112 9.18667 4.98224 7.52889 5.0089 6.00445Z" fill="black"/>
<path d="M23.8912 4.34885C24.9712 3.57551 26.6823 4.2244 26.9378 5.53996C27.0534 6.57551 27.0267 7.62885 26.9467 8.66663C26.7067 10.7511 25.02 12.4444 23.0112 12.9244C22.9889 10.6888 23.0045 8.45107 23 6.21551C22.9667 5.49329 23.2689 4.74885 23.8912 4.34885Z" fill="black"/>
<path d="M3.0069 5.78228C3.04913 3.92672 4.58468 2.24228 6.43135 2.04006C7.30913 1.88672 8.18468 2.14006 8.99357 2.4645C9.00024 2.3445 9.01357 2.10672 9.01802 1.98895C10.7536 1.92228 12.4913 2.00006 14.2269 2.01783C17.1447 1.89783 20.0647 2.03339 22.9802 1.97117C22.9869 2.09339 23.0002 2.34006 23.0069 2.4645C24.0736 1.99339 25.3202 1.84006 26.4313 2.24895C27.878 2.7845 28.9425 4.22228 28.9936 5.76894C29.0091 7.52672 29.1691 9.38672 28.3358 11.0023C27.3736 13.1112 25.3002 14.5667 23.0402 14.9689C23.0313 17.2401 21.3869 19.4045 19.1402 19.8712C18.7891 20.0601 18.2536 19.8067 18.0136 20.1801C17.9091 21.4534 17.9758 22.7378 18.0513 24.0134C19.0225 23.9756 20.1136 23.9578 20.8869 24.6534C21.6269 25.2045 21.9491 26.1067 22.0447 26.9956C18.0091 27.0045 13.9736 27.0045 9.93802 26.9956C10.0625 26.1134 10.3713 25.2023 11.1158 24.6512C11.8913 23.9578 12.9825 23.9756 13.9558 24.0089C13.9802 22.7001 14.0491 21.3912 14.0291 20.0801C12.478 19.9489 10.9225 19.3023 9.99357 18.0045C9.30024 17.1467 9.03802 16.0467 8.96024 14.9689C6.58913 14.5578 4.43802 12.9578 3.53135 10.7067C2.83135 9.16006 3.00468 7.43117 3.0069 5.78228ZM5.00913 6.0045C4.98246 7.52895 4.85135 9.18672 5.70468 10.5356C6.39135 11.7712 7.65357 12.5534 8.98913 12.9245C9.00468 10.6112 9.01135 8.29783 8.99135 5.9845C9.00468 4.98672 8.14024 4.03339 7.12468 4.03339C6.01579 3.89783 4.97579 4.90006 5.00913 6.0045ZM19.6047 4.07339C18.9758 4.26895 18.9958 5.02672 18.9891 5.56228C19.0113 8.14895 18.9914 10.7334 19.0113 13.3178C19.0047 13.9756 19.0113 14.7067 18.558 15.2356C18.0869 15.8845 17.2113 15.9067 16.518 16.1578C15.9491 16.3556 15.8913 17.1556 16.1847 17.6023C16.4269 17.9823 16.9202 18.0001 17.3225 17.9778C18.8847 17.9178 20.3002 16.7756 20.7913 15.3089C21.0002 14.6712 21.0113 13.9912 21.0113 13.3267C20.9891 10.7356 20.998 8.1445 21.0113 5.55339C20.978 5.14006 21.0447 4.66228 20.7602 4.32228C20.4869 3.98672 19.9913 3.96895 19.6047 4.07339ZM23.8913 4.34895C23.2691 4.74895 22.9669 5.49339 23.0002 6.21561C23.0047 8.45117 22.9891 10.6889 23.0113 12.9245C25.0202 12.4445 26.7069 10.7512 26.9469 8.66672C27.0269 7.62895 27.0536 6.57561 26.938 5.54006C26.6825 4.2245 24.9713 3.57561 23.8913 4.34895Z" fill="#FFB900"/>
<path d="M19.6043 4.07331C19.9909 3.96887 20.4865 3.98665 20.7598 4.3222C21.0443 4.6622 20.9776 5.13998 21.011 5.55331C20.9976 8.14442 20.9887 10.7355 21.011 13.3266C21.011 13.9911 20.9998 14.6711 20.7909 15.3089C20.2998 16.7755 18.8843 17.9178 17.3221 17.9778C16.9198 18 16.4265 17.9822 16.1843 17.6022C15.8909 17.1555 15.9487 16.3555 16.5176 16.1578C17.2109 15.9066 18.0865 15.8844 18.5576 15.2355C19.0109 14.7066 19.0043 13.9755 19.0109 13.3178C18.9909 10.7333 19.0109 8.14887 18.9887 5.5622C18.9954 5.02665 18.9754 4.26887 19.6043 4.07331Z" fill="#FFD679"/>
<path d="M6.90668 27.1134C7.89334 26.8712 8.93112 27.0401 9.93779 26.9956C13.9733 27.0045 18.0089 27.0045 22.0445 26.9956C23.0556 27.0312 24.0889 26.8867 25.0867 27.1067C26.24 27.5623 25.9933 28.9867 26.0445 29.9756C19.3489 29.9979 12.6511 30.0156 5.95557 29.9734C6.0089 28.989 5.76001 27.5712 6.90668 27.1134Z" fill="#8E562E"/>
</g>
<defs>
<clipPath id="clip0_477_11267">
<rect width="32" height="32" fill="white"/>
</clipPath>
</defs>
</svg>
