<svg width="32" height="32" viewBox="0 0 32 32" fill="none" xmlns="http://www.w3.org/2000/svg">
<path d="M15.9732 0H16.0132C20.5044 5.34444 25.0355 10.6533 29.5266 15.9978C25.0355 21.3422 20.4932 26.6444 16.0177 32H15.9866C11.4932 26.6533 6.95769 21.3444 2.46436 15.9978C6.9488 10.6489 11.4932 5.35111 15.9732 0ZM5.09102 15.9978C8.69324 20.3289 12.351 24.6178 15.9977 28.9111C19.6399 24.6133 23.3021 20.3289 26.9021 15.9978C23.3044 11.6644 19.6421 7.38 15.9977 3.08444C12.3488 7.37778 8.68658 11.6644 5.09102 15.9978Z" fill="black"/>
<path d="M5.09131 15.9978C8.68686 11.6645 12.3491 7.37781 15.998 3.08447C19.6424 7.38003 23.3046 11.6645 26.9024 15.9978C23.3024 20.3289 19.6402 24.6134 15.998 28.9111C12.3513 24.6178 8.69353 20.3289 5.09131 15.9978Z" fill="#F03A17"/>
</svg>
