<svg width="70" height="70" viewBox="0 0 70 70" fill="none" xmlns="http://www.w3.org/2000/svg">
<path d="M60.0996 63.0976C62.7907 63.0976 64.9801 60.9082 64.9801 58.2171C64.9801 55.5261 62.7907 53.3367 60.0996 53.3367C57.4085 53.3367 55.2191 55.5261 55.2191 58.2171C55.2191 60.9082 57.4085 63.0976 60.0996 63.0976ZM60.0996 56.1255C61.2529 56.1255 62.1912 57.0638 62.1912 58.2171C62.1912 59.3705 61.2529 60.3088 60.0996 60.3088C58.9463 60.3088 58.008 59.3705 58.008 58.2171C58.008 57.0638 58.9463 56.1255 60.0996 56.1255Z" fill="white"/>
<path d="M47.8287 61.8425C49.8277 61.8425 51.4542 60.2161 51.4542 58.2171C51.4542 56.218 49.8277 54.5916 47.8287 54.5916C45.8296 54.5916 44.2032 56.218 44.2032 58.2171C44.2032 60.2161 45.8296 61.8425 47.8287 61.8425ZM47.8287 57.3804C48.2901 57.3804 48.6653 57.7556 48.6653 58.2171C48.6653 58.6785 48.2901 59.0537 47.8287 59.0537C47.3673 59.0537 46.992 58.6785 46.992 58.2171C46.992 57.7556 47.3673 57.3804 47.8287 57.3804Z" fill="white"/>
<path d="M8.36653 59.6115H38.6255C39.3956 59.6115 40.0199 58.9872 40.0199 58.2171C40.0199 57.4469 39.3956 56.8226 38.6255 56.8226H8.36653C7.59639 56.8226 6.97211 57.4469 6.97211 58.2171C6.97211 58.9872 7.59639 59.6115 8.36653 59.6115Z" fill="white"/>
<path d="M68.6056 25.0299H63.4462V24.5206C63.4462 23.7505 62.8219 23.1262 62.0518 23.1262C61.2817 23.1262 60.6574 23.7505 60.6574 24.5206V25.0299H9.06375V24.5206C9.06375 23.7505 8.43946 23.1262 7.66932 23.1262C6.89918 23.1262 6.2749 23.7505 6.2749 24.5206V25.0299H1.39442C0.624283 25.0299 0 25.6542 0 26.4243V43.4363C0 44.2064 0.624283 44.8307 1.39442 44.8307H6.2749V48.3167H1.39442C0.624283 48.3167 0 48.941 0 49.7112V66.7231C0 67.4932 0.624283 68.1175 1.39442 68.1175H68.6056C69.3757 68.1175 70 67.4932 70 66.7231V49.7112C70 48.941 69.3757 48.3167 68.6056 48.3167H63.4462V44.8307H68.6056C69.3757 44.8307 70 44.2064 70 43.4363V26.4243C70 25.6542 69.3757 25.0299 68.6056 25.0299ZM67.2112 51.1056V65.3287H2.78884V51.1056H67.2112ZM9.06375 48.3167V44.8307H60.6574V48.3167H9.06375ZM67.2112 42.0418H2.78884V27.8187H67.2112V42.0418Z" fill="white"/>
<path d="M60.0996 39.8108C62.7907 39.8108 64.9801 37.6214 64.9801 34.9303C64.9801 32.2392 62.7907 30.0498 60.0996 30.0498C57.4085 30.0498 55.2191 32.2392 55.2191 34.9303C55.2191 37.6214 57.4085 39.8108 60.0996 39.8108ZM60.0996 32.8386C61.2529 32.8386 62.1912 33.777 62.1912 34.9303C62.1912 36.0836 61.2529 37.0219 60.0996 37.0219C58.9463 37.0219 58.008 36.0836 58.008 34.9303C58.008 33.777 58.9463 32.8386 60.0996 32.8386Z" fill="white"/>
<path d="M47.8287 38.5558C49.8277 38.5558 51.4542 36.9294 51.4542 34.9303C51.4542 32.9313 49.8277 31.3048 47.8287 31.3048C45.8296 31.3048 44.2032 32.9313 44.2032 34.9303C44.2032 36.9294 45.8296 38.5558 47.8287 38.5558ZM47.8287 34.0937C48.2901 34.0937 48.6653 34.4689 48.6653 34.9303C48.6653 35.3917 48.2901 35.767 47.8287 35.767C47.3673 35.767 46.992 35.3917 46.992 34.9303C46.992 34.4689 47.3673 34.0937 47.8287 34.0937Z" fill="white"/>
<path d="M8.36653 36.3247H38.6255C39.3956 36.3247 40.0199 35.7005 40.0199 34.9303C40.0199 34.1602 39.3956 33.5359 38.6255 33.5359H8.36653C7.59639 33.5359 6.97211 34.1602 6.97211 34.9303C6.97211 35.7005 7.59639 36.3247 8.36653 36.3247Z" fill="white"/>
<path d="M68.6056 1.88245H1.39442C0.624283 1.88245 0 2.50673 0 3.27687V20.2888C0 21.059 0.624283 21.6832 1.39442 21.6832H68.6056C69.3757 21.6832 70 21.059 70 20.2888V3.27687C70 2.50673 69.3757 1.88245 68.6056 1.88245ZM67.2112 18.8944H2.78884V4.67129H67.2112V18.8944Z" fill="white"/>
<path d="M60.0996 16.6633C62.7907 16.6633 64.9801 14.4739 64.9801 11.7828C64.9801 9.09173 62.7907 6.90234 60.0996 6.90234C57.4085 6.90234 55.2191 9.09173 55.2191 11.7828C55.2191 14.4739 57.4085 16.6633 60.0996 16.6633ZM60.0996 9.69119C61.2529 9.69119 62.1912 10.6295 62.1912 11.7828C62.1912 12.9361 61.2529 13.8745 60.0996 13.8745C58.9463 13.8745 58.008 12.9361 58.008 11.7828C58.008 10.6295 58.9463 9.69119 60.0996 9.69119Z" fill="white"/>
<path d="M47.8287 15.4083C49.8277 15.4083 51.4542 13.7819 51.4542 11.7828C51.4542 9.7838 49.8277 8.15735 47.8287 8.15735C45.8296 8.15735 44.2032 9.7838 44.2032 11.7828C44.2032 13.7819 45.8296 15.4083 47.8287 15.4083ZM47.8287 10.9462C48.2901 10.9462 48.6653 11.3214 48.6653 11.7828C48.6653 12.2443 48.2901 12.6195 47.8287 12.6195C47.3673 12.6195 46.992 12.2443 46.992 11.7828C46.992 11.3214 47.3673 10.9462 47.8287 10.9462Z" fill="white"/>
<path d="M8.36653 13.1773H29.2829C30.053 13.1773 30.6773 12.553 30.6773 11.7829C30.6773 11.0127 30.053 10.3884 29.2829 10.3884H8.36653C7.59639 10.3884 6.97211 11.0127 6.97211 11.7829C6.97211 12.553 7.59639 13.1773 8.36653 13.1773Z" fill="white"/>
<path d="M34.4422 13.1773H38.6255C39.3956 13.1773 40.0199 12.553 40.0199 11.7829C40.0199 11.0127 39.3956 10.3884 38.6255 10.3884H34.4422C33.6721 10.3884 33.0478 11.0127 33.0478 11.7829C33.0478 12.553 33.6721 13.1773 34.4422 13.1773Z" fill="white"/>
</svg>
