<svg width="70" height="70" viewBox="0 0 70 70" fill="none" xmlns="http://www.w3.org/2000/svg">
<path d="M15.8431 51.7H24.0002V46L21.6859 48.3C20.0859 49.9 18.1288 48.8571 17.5573 48.2857C16.4288 47.1429 16.4288 45.3 17.5716 44.1571L24.8573 36.9286C26.0002 35.8 27.8288 35.8 28.9716 36.9286L36.2573 44.1571C37.4002 45.2857 37.4145 47.1429 36.2716 48.2857C35.1431 49.4286 33.2859 49.4429 32.1431 48.3L29.8288 46V51.6857H54.1573C59.6716 51.6857 64.1716 47.2 64.1716 41.6857C64.1716 36.1714 59.6859 31.6714 54.1573 31.6714H15.8431C10.3288 31.6714 5.84306 36.1571 5.84306 41.6857C5.82877 47.2 10.3288 51.7 15.8431 51.7ZM64.1716 15.8429C64.1716 10.3286 59.6859 5.84286 54.1573 5.84286H15.8431C10.3288 5.84286 5.84306 10.3286 5.84306 15.8429C5.84306 21.3571 10.3288 25.8571 15.8431 25.8571H54.1573C59.6716 25.8429 64.1716 21.3571 64.1716 15.8429ZM6.68592 28.7571C2.64306 25.8857 0.000205994 21.1571 0.000205994 15.8286C0.000205994 7.1 7.1002 0 15.8431 0H54.1573C62.9002 0 70.0002 7.1 70.0002 15.8429C70.0002 21.1714 67.3573 25.9 63.3145 28.7714C67.3573 31.6429 70.0002 36.3571 70.0002 41.6857C70.0002 50.4143 62.9002 57.5286 54.1573 57.5286H29.8288V67.0857C29.8288 68.7 28.5288 70 26.9145 70C25.3002 70 24.0002 68.7 24.0002 67.0857V57.5286H15.8431C7.11449 57.5286 0.000205994 50.4286 0.000205994 41.6857C0.000205994 36.3571 2.64306 31.6429 6.68592 28.7571Z" fill="white"/>
<path d="M55.5288 18.7572H54.2574C52.6431 18.7572 51.3431 17.4572 51.3431 15.8429C51.3431 14.2286 52.6431 12.9286 54.2574 12.9286H55.5288C57.1431 12.9286 58.4431 14.2286 58.4431 15.8429C58.4574 17.4572 57.1431 18.7572 55.5288 18.7572Z" fill="white"/>
<path d="M44.6011 18.7572H43.3297C41.7154 18.7572 40.4154 17.4572 40.4154 15.8429C40.4154 14.2286 41.7154 12.9286 43.3297 12.9286H44.6011C46.2154 12.9286 47.5154 14.2286 47.5154 15.8429C47.5154 17.4572 46.2154 18.7572 44.6011 18.7572Z" fill="white"/>
<path d="M53.6147 38.7715H54.8861C56.5004 38.7715 57.8004 40.0715 57.8004 41.6858C57.8004 43.3001 56.5004 44.6001 54.8861 44.6001H53.6147C52.0004 44.6001 50.7004 43.3001 50.7004 41.6858C50.7004 40.0715 52.0147 38.7715 53.6147 38.7715Z" fill="white"/>
<path d="M42.6864 38.7715H43.9578C45.5721 38.7715 46.8721 40.0715 46.8721 41.6858C46.8721 43.3001 45.5721 44.6001 43.9578 44.6001H42.6864C41.0721 44.6001 39.7721 43.3001 39.7721 41.6858C39.7721 40.0715 41.0721 38.7715 42.6864 38.7715Z" fill="white"/>
</svg>
