<svg width="70" height="70" viewBox="0 0 70 70" fill="none" xmlns="http://www.w3.org/2000/svg">
<path d="M67.2 0H2.8C1.25125 0 0 1.25125 0 2.8V67.2C0 68.7487 1.25125 70 2.8 70H67.2C68.7487 70 70 68.7487 70 67.2V2.8C70 1.25125 68.7487 0 67.2 0ZM63.7 63.7H6.3V6.3H63.7V63.7ZM33.25 25.2H49.35C49.735 25.2 50.05 24.885 50.05 24.5V20.3C50.05 19.915 49.735 19.6 49.35 19.6H33.25C32.865 19.6 32.55 19.915 32.55 20.3V24.5C32.55 24.885 32.865 25.2 33.25 25.2ZM33.25 37.8H49.35C49.735 37.8 50.05 37.485 50.05 37.1V32.9C50.05 32.515 49.735 32.2 49.35 32.2H33.25C32.865 32.2 32.55 32.515 32.55 32.9V37.1C32.55 37.485 32.865 37.8 33.25 37.8ZM33.25 50.4H49.35C49.735 50.4 50.05 50.085 50.05 49.7V45.5C50.05 45.115 49.735 44.8 49.35 44.8H33.25C32.865 44.8 32.55 45.115 32.55 45.5V49.7C32.55 50.085 32.865 50.4 33.25 50.4ZM19.95 22.4C19.95 23.3283 20.3187 24.2185 20.9751 24.8749C21.6315 25.5312 22.5217 25.9 23.45 25.9C24.3783 25.9 25.2685 25.5312 25.9249 24.8749C26.5813 24.2185 26.95 23.3283 26.95 22.4C26.95 21.4717 26.5813 20.5815 25.9249 19.9251C25.2685 19.2687 24.3783 18.9 23.45 18.9C22.5217 18.9 21.6315 19.2687 20.9751 19.9251C20.3187 20.5815 19.95 21.4717 19.95 22.4ZM19.95 35C19.95 35.9283 20.3187 36.8185 20.9751 37.4749C21.6315 38.1313 22.5217 38.5 23.45 38.5C24.3783 38.5 25.2685 38.1313 25.9249 37.4749C26.5813 36.8185 26.95 35.9283 26.95 35C26.95 34.0717 26.5813 33.1815 25.9249 32.5251C25.2685 31.8687 24.3783 31.5 23.45 31.5C22.5217 31.5 21.6315 31.8687 20.9751 32.5251C20.3187 33.1815 19.95 34.0717 19.95 35ZM19.95 47.6C19.95 48.5283 20.3187 49.4185 20.9751 50.0749C21.6315 50.7313 22.5217 51.1 23.45 51.1C24.3783 51.1 25.2685 50.7313 25.9249 50.0749C26.5813 49.4185 26.95 48.5283 26.95 47.6C26.95 46.6717 26.5813 45.7815 25.9249 45.1251C25.2685 44.4687 24.3783 44.1 23.45 44.1C22.5217 44.1 21.6315 44.4687 20.9751 45.1251C20.3187 45.7815 19.95 46.6717 19.95 47.6Z" fill="white"/>
</svg>
