<svg width="70" height="70" viewBox="0 0 70 70" fill="none" xmlns="http://www.w3.org/2000/svg">
<path d="M50.3088 28.2427C50.7121 27.81 50.9316 27.2377 50.9211 26.6463C50.9107 26.055 50.6711 25.4907 50.2529 25.0725C49.8347 24.6543 49.2705 24.4147 48.6791 24.4043C48.0877 24.3939 47.5154 24.6134 47.0827 25.0166L30.4345 41.6648L22.9169 34.1472C22.4842 33.744 21.9119 33.5245 21.3205 33.5349C20.7292 33.5454 20.1649 33.7849 19.7467 34.2031C19.3285 34.6214 19.0889 35.1856 19.0785 35.777C19.068 36.3683 19.2876 36.9407 19.6908 37.3734L28.8214 46.504C29.2494 46.9315 29.8296 47.1716 30.4345 47.1716C31.0394 47.1716 31.6196 46.9315 32.0476 46.504L50.3088 28.2427Z" fill="white"/>
<path fill-rule="evenodd" clip-rule="evenodd" d="M41.501 2.1297C39.6159 0.746075 37.3384 0 35 0C32.6616 0 30.3841 0.746075 28.499 2.1297L24.3141 5.20368C23.4795 5.81535 22.5095 6.2163 21.4867 6.3724L16.3552 7.16068C14.0441 7.51504 11.9062 8.59748 10.2526 10.2506C8.59895 11.9036 7.51581 14.0411 7.16068 16.3522L6.3724 21.4867C6.2163 22.5095 5.81535 23.4795 5.20368 24.3141L2.1297 28.499C0.746075 30.3841 0 32.6616 0 35C0 37.3384 0.746075 39.6159 2.1297 41.501L5.20368 45.6859C5.81239 46.5198 6.21718 47.4907 6.3724 48.5133L7.16068 53.6448C7.51504 55.9559 8.59748 58.0938 10.2506 59.7474C11.9036 61.401 14.0411 62.4842 16.3522 62.8393L21.4867 63.6276C22.5093 63.7828 23.4802 64.1846 24.3141 64.7963L28.499 67.8703C30.3841 69.2539 32.6616 70 35 70C37.3384 70 39.6159 69.2539 41.501 67.8703L45.6859 64.7963C46.5205 64.1847 47.4905 63.7837 48.5133 63.6276L53.6448 62.8393C55.9559 62.485 58.0938 61.4025 59.7474 59.7494C61.401 58.0964 62.4842 55.9589 62.8393 53.6478L63.6276 48.5133C63.7837 47.4905 64.1847 46.5205 64.7963 45.6859L67.8703 41.501C69.2539 39.6159 70 37.3384 70 35C70 32.6616 69.2539 30.3841 67.8703 28.499L64.7963 24.3141C64.1847 23.4795 63.7837 22.5095 63.6276 21.4867L62.8393 16.3552C62.485 14.0441 61.4025 11.9062 59.7494 10.2526C58.0964 8.59895 55.9589 7.51581 53.6478 7.16068L48.5133 6.3724C47.4905 6.2163 46.5205 5.81535 45.6859 5.20368L41.501 2.1297ZM31.2017 5.80934C32.3032 5.00129 33.6338 4.5656 35 4.5656C36.3662 4.5656 37.6968 5.00129 38.7983 5.80934L42.9863 8.88333C44.4134 9.93074 46.0726 10.6178 47.8225 10.886L52.9539 11.6712C54.3047 11.8789 55.554 12.5122 56.5201 13.4788C57.4863 14.4455 58.1188 15.6952 58.3257 17.0461L59.1171 22.1775C59.3839 23.9282 60.0699 25.5884 61.1167 27.0168L64.1907 31.2017C64.9987 32.3032 65.4344 33.6338 65.4344 35C65.4344 36.3662 64.9987 37.6968 64.1907 38.7983L61.1167 42.9863C60.0693 44.4134 59.3822 46.0726 59.114 47.8225L58.3288 52.9539C58.1211 54.3047 57.4878 55.554 56.5212 56.5201C55.5545 57.4863 54.3048 58.1188 52.9539 58.3257L47.8225 59.1171C46.0718 59.3839 44.4116 60.0699 42.9832 61.1167L38.7983 64.1907C37.6968 64.9987 36.3662 65.4344 35 65.4344C33.6338 65.4344 32.3032 64.9987 31.2017 64.1907L27.0137 61.1167C25.5865 60.0693 23.9274 59.3822 22.1775 59.114L17.0461 58.3288C15.6947 58.1217 14.4447 57.4887 13.478 56.522C12.5113 55.5553 11.8783 54.3052 11.6712 52.9539L10.886 47.8225C10.6183 46.0715 9.93119 44.4113 8.88333 42.9832L5.80934 38.7983C5.00129 37.6968 4.5656 36.3662 4.5656 35C4.5656 33.6338 5.00129 32.3032 5.80934 31.2017L8.88333 27.0137C9.93074 25.5865 10.6178 23.9274 10.886 22.1775L11.6712 17.0461C11.8783 15.6947 12.5113 14.4447 13.478 13.478C14.4447 12.5113 15.6947 11.8783 17.0461 11.6712L22.1775 10.886C23.9285 10.6183 25.5887 9.93119 27.0168 8.88333L31.2017 5.80934Z" fill="white"/>
</svg>
