<svg width="98" height="86" viewBox="0 0 98 86" fill="none" xmlns="http://www.w3.org/2000/svg">
<path d="M96.9619 74.9325L55.068 4.23975C52.3343 -0.370504 45.6619 -0.370504 42.9315 4.23975L1.03767 74.9325C-1.62858 79.4347 1.61479 85.125 6.84604 85.125H91.1535C96.3848 85.125 99.6282 79.4347 96.9619 74.9325ZM48.9998 75C45.2704 75 42.2498 71.9794 42.2498 68.25C42.2498 64.5206 45.2704 61.5 48.9998 61.5C52.7292 61.5 55.7498 64.5206 55.7498 68.25C55.7498 71.9794 52.7292 75 48.9998 75ZM55.7498 39.1474C55.7498 42.7755 55.1659 46.38 54.0184 49.8191L53.4413 51.5471C52.8034 53.4608 51.0147 54.75 48.9998 54.75C46.9849 54.75 45.1962 53.4608 44.5583 51.5471L43.9812 49.8191C42.8337 46.38 42.2498 42.7755 42.2498 39.1474V29.0561C42.2498 26.4709 44.3457 24.375 46.9309 24.375H51.0653C53.6539 24.375 55.7498 26.4709 55.7498 29.0561V39.1474Z" fill="url(#paint0_linear_474_427)"/>
<defs>
<linearGradient id="paint0_linear_474_427" x1="140.961" y1="115.137" x2="-24.3683" y2="24.8776" gradientUnits="userSpaceOnUse">
<stop stop-color="#D9D9D9"/>
<stop offset="0.0001" stop-color="#583500"/>
<stop offset="1" stop-color="#C7A52D"/>
</linearGradient>
</defs>
</svg>
