<svg width="180" height="42" viewBox="0 0 180 42" fill="none" xmlns="http://www.w3.org/2000/svg">
<rect width="180" height="42" fill="#341111"/>
<mask id="mask0_909_2335" style="mask-type:alpha" maskUnits="userSpaceOnUse" x="0" y="0" width="180" height="42">
<rect width="180" height="42" rx="10" fill="#D9D9D9"/>
</mask>
<g mask="url(#mask0_909_2335)">
<g filter="url(#filter0_d_909_2335)">
<circle cx="90.9016" cy="-28.0984" r="58.9016" fill="url(#paint0_radial_909_2335)"/>
</g>
<g clip-path="url(#clip0_909_2335)">
<path d="M11.9519 16.4199L7.30273 0.263796C6.99921 -0.789914 5.6782 -1.13396 4.89991 -0.361993L-7.03945 11.4738C-7.79947 12.2277 -7.45074 13.5215 -6.41504 13.7912L10.2764 18.1383C11.3121 18.4081 12.2476 17.4487 11.9519 16.4199ZM2.45275 13.9602C1.71439 13.7679 1.27211 13.0141 1.46441 12.2758C1.6567 11.5374 2.41049 11.0951 3.14884 11.2874C3.88719 11.4797 4.32947 12.2335 4.13718 12.9719C3.94488 13.7102 3.1911 14.1525 2.45275 13.9602ZM5.63778 7.21006C5.45071 7.92836 5.14925 8.61189 4.74474 9.23361L4.54138 9.54596C4.31642 9.89194 3.8958 10.055 3.49689 9.95106C3.09798 9.84717 2.81031 9.49969 2.78269 9.08793L2.75753 8.71606C2.70768 7.976 2.77794 7.23227 2.96501 6.51396L3.48534 4.51607C3.61865 4.00423 4.14166 3.69736 4.6535 3.83066L5.47203 4.04384C5.98454 4.17731 6.29141 4.70033 6.15811 5.21216L5.63778 7.21006Z" fill="url(#paint1_radial_909_2335)"/>
</g>
<g clip-path="url(#clip1_909_2335)">
<path d="M40.384 16.4199L35.7349 0.263796C35.4313 -0.789914 34.1103 -1.13396 33.332 -0.361993L21.3927 11.4738C20.6327 12.2277 20.9814 13.5215 22.0171 13.7912L38.7085 18.1383C39.7442 18.4081 40.6798 17.4487 40.384 16.4199ZM30.8849 13.9602C30.1465 13.7679 29.7042 13.0141 29.8965 12.2758C30.0888 11.5374 30.8426 11.0951 31.581 11.2874C32.3193 11.4797 32.7616 12.2335 32.5693 12.9719C32.377 13.7102 31.6232 14.1525 30.8849 13.9602ZM34.0699 7.21006C33.8828 7.92836 33.5814 8.61189 33.1769 9.23361L32.9735 9.54596C32.7485 9.89194 32.3279 10.055 31.929 9.95106C31.5301 9.84717 31.2424 9.49969 31.2148 9.08793L31.1897 8.71606C31.1398 7.976 31.2101 7.23227 31.3971 6.51396L31.9175 4.51607C32.0508 4.00423 32.5738 3.69736 33.0856 3.83066L33.9042 4.04384C34.4167 4.17731 34.7235 4.70033 34.5902 5.21216L34.0699 7.21006Z" fill="url(#paint2_radial_909_2335)"/>
</g>
<g clip-path="url(#clip2_909_2335)">
<path d="M68.8164 16.4199L64.1672 0.263796C63.8637 -0.789914 62.5427 -1.13396 61.7644 -0.361993L49.8251 11.4738C49.065 12.2277 49.4138 13.5215 50.4495 13.7912L67.1409 18.1383C68.1766 18.4081 69.1121 17.4487 68.8164 16.4199ZM59.3172 13.9602C58.5789 13.7679 58.1366 13.0141 58.3289 12.2758C58.5212 11.5374 59.275 11.0951 60.0133 11.2874C60.7517 11.4797 61.194 12.2335 61.0017 12.9719C60.8094 13.7102 60.0556 14.1525 59.3172 13.9602ZM62.5023 7.21006C62.3152 7.92836 62.0138 8.61189 61.6092 9.23361L61.4059 9.54596C61.1809 9.89194 60.7603 10.055 60.3614 9.95106C59.9625 9.84717 59.6748 9.49969 59.6472 9.08793L59.622 8.71606C59.5722 7.976 59.6424 7.23227 59.8295 6.51396L60.3498 4.51607C60.4831 4.00423 61.0062 3.69736 61.518 3.83066L62.3365 4.04384C62.849 4.17731 63.1559 4.70033 63.0226 5.21216L62.5023 7.21006Z" fill="url(#paint3_radial_909_2335)"/>
</g>
<g clip-path="url(#clip3_909_2335)">
<path d="M97.2485 17.605L92.5994 1.44885C92.2958 0.395145 90.9748 0.0511001 90.1965 0.823065L78.2572 12.6589C77.4972 13.4127 77.8459 14.7066 78.8816 14.9763L95.573 19.3234C96.6087 19.5931 97.5443 18.6338 97.2485 17.605ZM87.7494 15.1453C87.011 14.953 86.5687 14.1992 86.761 13.4608C86.9533 12.7225 87.7071 12.2802 88.4455 12.4725C89.1838 12.6648 89.6261 13.4186 89.4338 14.1569C89.2415 14.8953 88.4877 15.3376 87.7494 15.1453ZM90.9344 8.39512C90.7473 9.11342 90.4459 9.79695 90.0414 10.4187L89.838 10.731C89.613 11.077 89.1924 11.24 88.7935 11.1361C88.3946 11.0322 88.1069 10.6847 88.0793 10.273L88.0542 9.90112C88.0043 9.16106 88.0746 8.41733 88.2616 7.69902L88.782 5.70113C88.9153 5.18929 89.4383 4.88241 89.9501 5.01572L90.7687 5.2289C91.2812 5.36237 91.588 5.88539 91.4547 6.39722L90.9344 8.39512Z" fill="url(#paint4_radial_909_2335)"/>
</g>
<g clip-path="url(#clip4_909_2335)">
<path d="M125.68 17.605L121.031 1.44885C120.728 0.395145 119.407 0.0511001 118.628 0.823065L106.689 12.6589C105.929 13.4127 106.278 14.7066 107.313 14.9763L124.005 19.3234C125.041 19.5931 125.976 18.6338 125.68 17.605ZM116.181 15.1453C115.443 14.953 115.001 14.1992 115.193 13.4608C115.385 12.7225 116.139 12.2802 116.877 12.4725C117.616 12.6648 118.058 13.4186 117.866 14.1569C117.673 14.8953 116.92 15.3376 116.181 15.1453ZM119.366 8.39512C119.179 9.11342 118.878 9.79695 118.473 10.4187L118.27 10.731C118.045 11.077 117.624 11.24 117.225 11.1361C116.826 11.0322 116.539 10.6847 116.511 10.273L116.486 9.90112C116.436 9.16106 116.506 8.41733 116.694 7.69902L117.214 5.70113C117.347 5.18929 117.87 4.88241 118.382 5.01572L119.201 5.2289C119.713 5.36237 120.02 5.88539 119.887 6.39722L119.366 8.39512Z" fill="url(#paint5_radial_909_2335)"/>
</g>
<g clip-path="url(#clip5_909_2335)">
<path d="M154.113 17.605L149.464 1.44885C149.16 0.395145 147.839 0.0511001 147.061 0.823065L135.122 12.6589C134.362 13.4127 134.71 14.7066 135.746 14.9763L152.438 19.3234C153.473 19.5931 154.409 18.6338 154.113 17.605ZM144.614 15.1453C143.876 14.953 143.433 14.1992 143.626 13.4608C143.818 12.7225 144.572 12.2802 145.31 12.4725C146.048 12.6648 146.491 13.4186 146.298 14.1569C146.106 14.8953 145.352 15.3376 144.614 15.1453ZM147.799 8.39512C147.612 9.11342 147.31 9.79695 146.906 10.4187L146.703 10.731C146.478 11.077 146.057 11.24 145.658 11.1361C145.259 11.0322 144.971 10.6847 144.944 10.273L144.919 9.90112C144.869 9.16106 144.939 8.41733 145.126 7.69902L145.646 5.70113C145.78 5.18929 146.303 4.88241 146.815 5.01572L147.633 5.2289C148.146 5.36237 148.453 5.88539 148.319 6.39722L147.799 8.39512Z" fill="url(#paint6_radial_909_2335)"/>
</g>
<g clip-path="url(#clip6_909_2335)">
<path d="M182.545 17.605L177.896 1.44885C177.592 0.395145 176.271 0.0511001 175.493 0.823065L163.554 12.6589C162.794 13.4127 163.143 14.7066 164.178 14.9763L180.87 19.3234C181.905 19.5931 182.841 18.6338 182.545 17.605ZM173.046 15.1453C172.308 14.953 171.865 14.1992 172.058 13.4608C172.25 12.7225 173.004 12.2802 173.742 12.4725C174.48 12.6648 174.923 13.4186 174.73 14.1569C174.538 14.8953 173.784 15.3376 173.046 15.1453ZM176.231 8.39512C176.044 9.11342 175.743 9.79695 175.338 10.4187L175.135 10.731C174.91 11.077 174.489 11.24 174.09 11.1361C173.691 11.0322 173.404 10.6847 173.376 10.273L173.351 9.90112C173.301 9.16106 173.371 8.41733 173.558 7.69902L174.079 5.70113C174.212 5.18929 174.735 4.88241 175.247 5.01572L176.065 5.2289C176.578 5.36237 176.885 5.88539 176.751 6.39722L176.231 8.39512Z" fill="url(#paint7_radial_909_2335)"/>
</g>
<g clip-path="url(#clip7_909_2335)">
<path d="M24.9832 35.375L20.334 19.2189C20.0305 18.1652 18.7094 17.8211 17.9312 18.5931L5.9918 30.4289C5.23178 31.1828 5.58051 32.4766 6.61621 32.7463L23.3076 37.0934C24.3433 37.3632 25.2789 36.4038 24.9832 35.375ZM15.484 32.9153C14.7456 32.723 14.3034 31.9692 14.4957 31.2309C14.688 30.4925 15.4417 30.0502 16.1801 30.2425C16.9184 30.4348 17.3607 31.1886 17.1684 31.927C16.9761 32.6653 16.2223 33.1076 15.484 32.9153ZM18.669 26.1651C18.482 26.8834 18.1805 27.567 17.776 28.1887L17.5726 28.501C17.3477 28.847 16.927 29.01 16.5281 28.9061C16.1292 28.8022 15.8416 28.4548 15.8139 28.043L15.7888 27.6711C15.7389 26.9311 15.8092 26.1873 15.9963 25.469L16.5166 23.4711C16.6499 22.9593 17.1729 22.6524 17.6847 22.7857L18.5033 22.9989C19.0158 23.1324 19.3227 23.6554 19.1894 24.1672L18.669 26.1651Z" fill="url(#paint8_radial_909_2335)"/>
</g>
<g clip-path="url(#clip8_909_2335)">
<path d="M53.4155 35.375L48.7664 19.2189C48.4628 18.1652 47.1418 17.8211 46.3635 18.5931L34.4242 30.4289C33.6642 31.1828 34.0129 32.4766 35.0486 32.7463L51.74 37.0934C52.7757 37.3632 53.7113 36.4038 53.4155 35.375ZM43.9164 32.9153C43.178 32.723 42.7357 31.9692 42.928 31.2309C43.1203 30.4925 43.8741 30.0502 44.6125 30.2425C45.3508 30.4348 45.7931 31.1886 45.6008 31.927C45.4085 32.6653 44.6547 33.1076 43.9164 32.9153ZM47.1014 26.1651C46.9143 26.8834 46.6129 27.567 46.2084 28.1887L46.005 28.501C45.78 28.847 45.3594 29.01 44.9605 28.9061C44.5616 28.8022 44.2739 28.4548 44.2463 28.043L44.2212 27.6711C44.1713 26.9311 44.2416 26.1873 44.4286 25.469L44.949 23.4711C45.0823 22.9593 45.6053 22.6524 46.1171 22.7857L46.9357 22.9989C47.4482 23.1324 47.755 23.6554 47.6217 24.1672L47.1014 26.1651Z" fill="url(#paint9_radial_909_2335)"/>
</g>
<g clip-path="url(#clip9_909_2335)">
<path d="M81.8477 35.375L77.1985 19.2189C76.895 18.1652 75.5739 17.8211 74.7957 18.5931L62.8563 30.4289C62.0963 31.1828 62.445 32.4766 63.4807 32.7463L80.1721 37.0934C81.2078 37.3632 82.1434 36.4038 81.8477 35.375ZM72.3485 32.9153C71.6101 32.723 71.1679 31.9692 71.3602 31.2309C71.5525 30.4925 72.3062 30.0502 73.0446 30.2425C73.7829 30.4348 74.2252 31.1886 74.0329 31.927C73.8406 32.6653 73.0869 33.1076 72.3485 32.9153ZM75.5335 26.1651C75.3465 26.8834 75.045 27.567 74.6405 28.1887L74.4371 28.501C74.2122 28.847 73.7915 29.01 73.3926 28.9061C72.9937 28.8022 72.7061 28.4548 72.6784 28.043L72.6533 27.6711C72.6034 26.9311 72.6737 26.1873 72.8608 25.469L73.3811 23.4711C73.5144 22.9593 74.0374 22.6524 74.5492 22.7857L75.3678 22.9989C75.8803 23.1324 76.1872 23.6554 76.0539 24.1672L75.5335 26.1651Z" fill="url(#paint10_radial_909_2335)"/>
</g>
<g clip-path="url(#clip10_909_2335)">
<path d="M110.28 36.5595L105.63 20.4034C105.327 19.3497 104.006 19.0057 103.228 19.7777L91.2882 31.6135C90.5282 32.3673 90.8769 33.6611 91.9126 33.9309L108.604 38.278C109.64 38.5477 110.575 37.5884 110.28 36.5595ZM100.78 34.0999C100.042 33.9076 99.5997 33.1538 99.792 32.4154C99.9843 31.6771 100.738 31.2348 101.476 31.4271C102.215 31.6194 102.657 32.3732 102.465 33.1115C102.273 33.8499 101.519 34.2922 100.78 34.0999ZM103.965 27.3497C103.778 28.068 103.477 28.7515 103.072 29.3733L102.869 29.6856C102.644 30.0316 102.223 30.1946 101.825 30.0907C101.426 29.9868 101.138 29.6393 101.11 29.2276L101.085 28.8557C101.035 28.1157 101.106 27.3719 101.293 26.6536L101.813 24.6557C101.946 24.1439 102.469 23.837 102.981 23.9703L103.8 24.1835C104.312 24.317 104.619 24.84 104.486 25.3518L103.965 27.3497Z" fill="url(#paint11_radial_909_2335)"/>
</g>
<g clip-path="url(#clip11_909_2335)">
<path d="M138.712 36.5595L134.062 20.4034C133.759 19.3497 132.438 19.0057 131.66 19.7777L119.72 31.6135C118.96 32.3673 119.309 33.6611 120.345 33.9309L137.036 38.278C138.072 38.5477 139.007 37.5884 138.712 36.5595ZM129.213 34.0999C128.474 33.9076 128.032 33.1538 128.224 32.4154C128.416 31.6771 129.17 31.2348 129.909 31.4271C130.647 31.6194 131.089 32.3732 130.897 33.1115C130.705 33.8499 129.951 34.2922 129.213 34.0999ZM132.398 27.3497C132.21 28.068 131.909 28.7515 131.505 29.3733L131.301 29.6856C131.076 30.0316 130.656 30.1946 130.257 30.0907C129.858 29.9868 129.57 29.6393 129.542 29.2276L129.517 28.8557C129.467 28.1157 129.538 27.3719 129.725 26.6536L130.245 24.6557C130.378 24.1439 130.901 23.837 131.413 23.9703L132.232 24.1835C132.744 24.317 133.051 24.84 132.918 25.3518L132.398 27.3497Z" fill="url(#paint12_radial_909_2335)"/>
</g>
<g clip-path="url(#clip12_909_2335)">
<path d="M167.144 36.5595L162.495 20.4034C162.191 19.3497 160.87 19.0057 160.092 19.7777L148.152 31.6135C147.392 32.3673 147.741 33.6611 148.777 33.9309L165.468 38.278C166.504 38.5477 167.44 37.5884 167.144 36.5595ZM157.645 34.0999C156.906 33.9076 156.464 33.1538 156.656 32.4154C156.849 31.6771 157.602 31.2348 158.341 31.4271C159.079 31.6194 159.521 32.3732 159.329 33.1115C159.137 33.8499 158.383 34.2922 157.645 34.0999ZM160.83 27.3497C160.643 28.068 160.341 28.7515 159.937 29.3733L159.733 29.6856C159.508 30.0316 159.088 30.1946 158.689 30.0907C158.29 29.9868 158.002 29.6393 157.975 29.2276L157.949 28.8557C157.9 28.1157 157.97 27.3719 158.157 26.6536L158.677 24.6557C158.811 24.1439 159.334 23.837 159.845 23.9703L160.664 24.1835C161.176 24.317 161.483 24.84 161.35 25.3518L160.83 27.3497Z" fill="url(#paint13_radial_909_2335)"/>
</g>
<g clip-path="url(#clip13_909_2335)">
<path d="M195.576 36.5595L190.927 20.4034C190.624 19.3497 189.303 19.0057 188.524 19.7777L176.585 31.6135C175.825 32.3673 176.174 33.6611 177.209 33.9309L193.901 38.278C194.937 38.5477 195.872 37.5884 195.576 36.5595ZM186.077 34.0999C185.339 33.9076 184.897 33.1538 185.089 32.4154C185.281 31.6771 186.035 31.2348 186.773 31.4271C187.512 31.6194 187.954 32.3732 187.762 33.1115C187.569 33.8499 186.816 34.2922 186.077 34.0999ZM189.262 27.3497C189.075 28.068 188.774 28.7515 188.369 29.3733L188.166 29.6856C187.941 30.0316 187.52 30.1946 187.121 30.0907C186.722 29.9868 186.435 29.6393 186.407 29.2276L186.382 28.8557C186.332 28.1157 186.402 27.3719 186.59 26.6536L187.11 24.6557C187.243 24.1439 187.766 23.837 188.278 23.9703L189.097 24.1835C189.609 24.317 189.916 24.84 189.783 25.3518L189.262 27.3497Z" fill="url(#paint14_radial_909_2335)"/>
</g>
<g clip-path="url(#clip14_909_2335)">
<path d="M9.58252 53.1455L4.93335 36.9894C4.62983 35.9357 3.30881 35.5916 2.53053 36.3636L-9.40884 48.1994C-10.1689 48.9533 -9.82013 50.2471 -8.78443 50.5168L7.90701 54.8639C8.94271 55.1337 9.87824 54.1743 9.58252 53.1455ZM0.0833614 50.6858C-0.654991 50.4935 -1.09727 49.7397 -0.904976 49.0014C-0.71268 48.263 0.0411029 47.8207 0.779455 48.013C1.51781 48.2053 1.96009 48.9591 1.76779 49.6975C1.5755 50.4358 0.821714 50.8781 0.0833614 50.6858ZM3.2684 43.9356C3.08132 44.654 2.77987 45.3375 2.37535 45.9592L2.17199 46.2715C1.94703 46.6175 1.52641 46.7805 1.1275 46.6766C0.728592 46.5728 0.440927 46.2253 0.413309 45.8135L0.388148 45.4416C0.338294 44.7016 0.408553 43.9579 0.595628 43.2395L1.11596 41.2417C1.24926 40.7298 1.77228 40.4229 2.28411 40.5562L3.10265 40.7694C3.61515 40.9029 3.92203 41.4259 3.78873 41.9378L3.2684 43.9356Z" fill="url(#paint15_radial_909_2335)"/>
</g>
<g clip-path="url(#clip15_909_2335)">
<path d="M38.0146 53.1455L33.3655 36.9894C33.062 35.9357 31.7409 35.5916 30.9627 36.3636L19.0233 48.1994C18.2633 48.9533 18.612 50.2471 19.6477 50.5168L36.3391 54.8639C37.3748 55.1337 38.3104 54.1743 38.0146 53.1455ZM28.5155 50.6858C27.7771 50.4935 27.3349 49.7397 27.5272 49.0014C27.7194 48.263 28.4732 47.8207 29.2116 48.013C29.9499 48.2053 30.3922 48.9591 30.1999 49.6975C30.0076 50.4358 29.2538 50.8781 28.5155 50.6858ZM31.7005 43.9356C31.5135 44.654 31.212 45.3375 30.8075 45.9592L30.6041 46.2715C30.3792 46.6175 29.9585 46.7805 29.5596 46.6766C29.1607 46.5728 28.8731 46.2253 28.8454 45.8135L28.8203 45.4416C28.7704 44.7016 28.8407 43.9579 29.0278 43.2395L29.5481 41.2417C29.6814 40.7298 30.2044 40.4229 30.7162 40.5562L31.5348 40.7694C32.0473 40.9029 32.3542 41.4259 32.2209 41.9378L31.7005 43.9356Z" fill="url(#paint16_radial_909_2335)"/>
</g>
<g clip-path="url(#clip16_909_2335)">
<path d="M66.447 53.1455L61.7978 36.9894C61.4943 35.9357 60.1733 35.5916 59.395 36.3636L47.4557 48.1994C46.6956 48.9533 47.0444 50.2471 48.0801 50.5168L64.7715 54.8639C65.8072 55.1337 66.7427 54.1743 66.447 53.1455ZM56.9479 50.6858C56.2095 50.4935 55.7672 49.7397 55.9595 49.0014C56.1518 48.263 56.9056 47.8207 57.644 48.013C58.3823 48.2053 58.8246 48.9591 58.6323 49.6975C58.44 50.4358 57.6862 50.8781 56.9479 50.6858ZM60.1329 43.9356C59.9458 44.654 59.6444 45.3375 59.2399 45.9592L59.0365 46.2715C58.8115 46.6175 58.3909 46.7805 57.992 46.6766C57.5931 46.5728 57.3054 46.2253 57.2778 45.8135L57.2527 45.4416C57.2028 44.7016 57.2731 43.9579 57.4601 43.2395L57.9805 41.2417C58.1138 40.7298 58.6368 40.4229 59.1486 40.5562L59.9671 40.7694C60.4797 40.9029 60.7865 41.4259 60.6532 41.9378L60.1329 43.9356Z" fill="url(#paint17_radial_909_2335)"/>
</g>
<g clip-path="url(#clip17_909_2335)">
<path d="M94.8792 54.3296L90.23 38.1735C89.9265 37.1198 88.6054 36.7757 87.8272 37.5477L75.8878 49.3835C75.1278 50.1374 75.4765 51.4312 76.5122 51.7009L93.2036 56.048C94.2393 56.3177 95.1749 55.3584 94.8792 54.3296ZM85.38 51.8699C84.6416 51.6776 84.1994 50.9238 84.3917 50.1855C84.584 49.4471 85.3377 49.0048 86.0761 49.1971C86.8144 49.3894 87.2567 50.1432 87.0644 50.8815C86.8721 51.6199 86.1183 52.0622 85.38 51.8699ZM88.565 45.1197C88.378 45.838 88.0765 46.5216 87.672 47.1433L87.4686 47.4556C87.2437 47.8016 86.823 47.9646 86.4241 47.8607C86.0252 47.7568 85.7376 47.4094 85.7099 46.9976L85.6848 46.6257C85.6349 45.8857 85.7052 45.1419 85.8923 44.4236L86.4126 42.4257C86.5459 41.9139 87.0689 41.607 87.5807 41.7403L88.3993 41.9535C88.9118 42.087 89.2187 42.61 89.0854 43.1218L88.565 45.1197Z" fill="url(#paint18_radial_909_2335)"/>
</g>
<g clip-path="url(#clip18_909_2335)">
<path d="M123.311 54.3296L118.662 38.1735C118.359 37.1198 117.038 36.7757 116.259 37.5477L104.32 49.3835C103.56 50.1374 103.909 51.4312 104.944 51.7009L121.636 56.048C122.671 56.3177 123.607 55.3584 123.311 54.3296ZM113.812 51.8699C113.074 51.6776 112.631 50.9238 112.824 50.1855C113.016 49.4471 113.77 49.0048 114.508 49.1971C115.247 49.3894 115.689 50.1432 115.497 50.8815C115.304 51.6199 114.55 52.0622 113.812 51.8699ZM116.997 45.1197C116.81 45.838 116.509 46.5216 116.104 47.1433L115.901 47.4556C115.676 47.8016 115.255 47.9646 114.856 47.8607C114.457 47.7568 114.17 47.4094 114.142 46.9976L114.117 46.6257C114.067 45.8857 114.137 45.1419 114.324 44.4236L114.845 42.4257C114.978 41.9139 115.501 41.607 116.013 41.7403L116.831 41.9535C117.344 42.087 117.651 42.61 117.517 43.1218L116.997 45.1197Z" fill="url(#paint19_radial_909_2335)"/>
</g>
<g clip-path="url(#clip19_909_2335)">
<path d="M151.743 54.3296L147.094 38.1735C146.791 37.1198 145.47 36.7757 144.691 37.5477L132.752 49.3835C131.992 50.1374 132.341 51.4312 133.376 51.7009L150.068 56.048C151.104 56.3177 152.039 55.3584 151.743 54.3296ZM142.244 51.8699C141.506 51.6776 141.064 50.9238 141.256 50.1855C141.448 49.4471 142.202 49.0048 142.94 49.1971C143.679 49.3894 144.121 50.1432 143.929 50.8815C143.736 51.6199 142.983 52.0622 142.244 51.8699ZM145.429 45.1197C145.242 45.838 144.941 46.5216 144.536 47.1433L144.333 47.4556C144.108 47.8016 143.687 47.9646 143.288 47.8607C142.889 47.7568 142.602 47.4094 142.574 46.9976L142.549 46.6257C142.499 45.8857 142.569 45.1419 142.757 44.4236L143.277 42.4257C143.41 41.9139 143.933 41.607 144.445 41.7403L145.264 41.9535C145.776 42.087 146.083 42.61 145.95 43.1218L145.429 45.1197Z" fill="url(#paint20_radial_909_2335)"/>
</g>
<g clip-path="url(#clip20_909_2335)">
<path d="M180.176 54.3296L175.526 38.1735C175.223 37.1198 173.902 36.7757 173.124 37.5477L161.184 49.3835C160.424 50.1374 160.773 51.4312 161.809 51.7009L178.5 56.048C179.536 56.3177 180.471 55.3584 180.176 54.3296ZM170.676 51.8699C169.938 51.6776 169.496 50.9238 169.688 50.1855C169.88 49.4471 170.634 49.0048 171.372 49.1971C172.111 49.3894 172.553 50.1432 172.361 50.8815C172.169 51.6199 171.415 52.0622 170.676 51.8699ZM173.861 45.1197C173.674 45.838 173.373 46.5216 172.968 47.1433L172.765 47.4556C172.54 47.8016 172.119 47.9646 171.721 47.8607C171.322 47.7568 171.034 47.4094 171.006 46.9976L170.981 46.6257C170.931 45.8857 171.002 45.1419 171.189 44.4236L171.709 42.4257C171.842 41.9139 172.365 41.607 172.877 41.7403L173.696 41.9535C174.208 42.087 174.515 42.61 174.382 43.1218L173.861 45.1197Z" fill="url(#paint21_radial_909_2335)"/>
</g>
</g>
<defs>
<filter id="filter0_d_909_2335" x="17" y="-100" width="147.803" height="147.803" filterUnits="userSpaceOnUse" color-interpolation-filters="sRGB">
<feFlood flood-opacity="0" result="BackgroundImageFix"/>
<feColorMatrix in="SourceAlpha" type="matrix" values="0 0 0 0 0 0 0 0 0 0 0 0 0 0 0 0 0 0 127 0" result="hardAlpha"/>
<feOffset dy="2"/>
<feGaussianBlur stdDeviation="7.5"/>
<feComposite in2="hardAlpha" operator="out"/>
<feColorMatrix type="matrix" values="0 0 0 0 0.862745 0 0 0 0 0.309804 0 0 0 0 0.309804 0 0 0 0.14 0"/>
<feBlend mode="normal" in2="BackgroundImageFix" result="effect1_dropShadow_909_2335"/>
<feBlend mode="normal" in="SourceGraphic" in2="effect1_dropShadow_909_2335" result="shape"/>
</filter>
<radialGradient id="paint0_radial_909_2335" cx="0" cy="0" r="1" gradientUnits="userSpaceOnUse" gradientTransform="translate(91 -45) rotate(90.0744) scale(75.8033)">
<stop stop-color="#6E2020"/>
<stop offset="1" stop-color="#551818"/>
</radialGradient>
<radialGradient id="paint1_radial_909_2335" cx="0" cy="0" r="1" gradientUnits="userSpaceOnUse" gradientTransform="translate(4.10514 7.61556) rotate(104.598) scale(8.62774 10.0074)">
<stop offset="0.015625" stop-color="#AD6363"/>
<stop offset="1" stop-color="#652323" stop-opacity="0.45"/>
</radialGradient>
<radialGradient id="paint2_radial_909_2335" cx="0" cy="0" r="1" gradientUnits="userSpaceOnUse" gradientTransform="translate(32.5373 7.61556) rotate(104.598) scale(8.62774 10.0074)">
<stop offset="0.015625" stop-color="#AD6363"/>
<stop offset="1" stop-color="#652323" stop-opacity="0.45"/>
</radialGradient>
<radialGradient id="paint3_radial_909_2335" cx="0" cy="0" r="1" gradientUnits="userSpaceOnUse" gradientTransform="translate(60.9696 7.61556) rotate(104.598) scale(8.62774 10.0074)">
<stop offset="0.015625" stop-color="#AD6363"/>
<stop offset="1" stop-color="#652323" stop-opacity="0.45"/>
</radialGradient>
<radialGradient id="paint4_radial_909_2335" cx="0" cy="0" r="1" gradientUnits="userSpaceOnUse" gradientTransform="translate(89.4018 8.80062) rotate(104.598) scale(8.62774 10.0074)">
<stop offset="0.015625" stop-color="#AD6363"/>
<stop offset="1" stop-color="#652323" stop-opacity="0.45"/>
</radialGradient>
<radialGradient id="paint5_radial_909_2335" cx="0" cy="0" r="1" gradientUnits="userSpaceOnUse" gradientTransform="translate(117.834 8.80062) rotate(104.598) scale(8.62774 10.0074)">
<stop offset="0.015625" stop-color="#AD6363"/>
<stop offset="1" stop-color="#652323" stop-opacity="0.45"/>
</radialGradient>
<radialGradient id="paint6_radial_909_2335" cx="0" cy="0" r="1" gradientUnits="userSpaceOnUse" gradientTransform="translate(146.266 8.80062) rotate(104.598) scale(8.62774 10.0074)">
<stop offset="0.015625" stop-color="#AD6363"/>
<stop offset="1" stop-color="#652323" stop-opacity="0.45"/>
</radialGradient>
<radialGradient id="paint7_radial_909_2335" cx="0" cy="0" r="1" gradientUnits="userSpaceOnUse" gradientTransform="translate(174.698 8.80062) rotate(104.598) scale(8.62774 10.0074)">
<stop offset="0.015625" stop-color="#AD6363"/>
<stop offset="1" stop-color="#652323" stop-opacity="0.45"/>
</radialGradient>
<radialGradient id="paint8_radial_909_2335" cx="0" cy="0" r="1" gradientUnits="userSpaceOnUse" gradientTransform="translate(17.1364 26.5706) rotate(104.598) scale(8.62774 10.0074)">
<stop offset="0.015625" stop-color="#AD6363"/>
<stop offset="1" stop-color="#652323" stop-opacity="0.45"/>
</radialGradient>
<radialGradient id="paint9_radial_909_2335" cx="0" cy="0" r="1" gradientUnits="userSpaceOnUse" gradientTransform="translate(45.5688 26.5706) rotate(104.598) scale(8.62774 10.0074)">
<stop offset="0.015625" stop-color="#AD6363"/>
<stop offset="1" stop-color="#652323" stop-opacity="0.45"/>
</radialGradient>
<radialGradient id="paint10_radial_909_2335" cx="0" cy="0" r="1" gradientUnits="userSpaceOnUse" gradientTransform="translate(74.0009 26.5706) rotate(104.598) scale(8.62774 10.0074)">
<stop offset="0.015625" stop-color="#AD6363"/>
<stop offset="1" stop-color="#652323" stop-opacity="0.45"/>
</radialGradient>
<radialGradient id="paint11_radial_909_2335" cx="0" cy="0" r="1" gradientUnits="userSpaceOnUse" gradientTransform="translate(102.433 27.7552) rotate(104.598) scale(8.62774 10.0074)">
<stop offset="0.015625" stop-color="#AD6363"/>
<stop offset="1" stop-color="#652323" stop-opacity="0.45"/>
</radialGradient>
<radialGradient id="paint12_radial_909_2335" cx="0" cy="0" r="1" gradientUnits="userSpaceOnUse" gradientTransform="translate(130.865 27.7552) rotate(104.598) scale(8.62774 10.0074)">
<stop offset="0.015625" stop-color="#AD6363"/>
<stop offset="1" stop-color="#652323" stop-opacity="0.45"/>
</radialGradient>
<radialGradient id="paint13_radial_909_2335" cx="0" cy="0" r="1" gradientUnits="userSpaceOnUse" gradientTransform="translate(159.297 27.7552) rotate(104.598) scale(8.62774 10.0074)">
<stop offset="0.015625" stop-color="#AD6363"/>
<stop offset="1" stop-color="#652323" stop-opacity="0.45"/>
</radialGradient>
<radialGradient id="paint14_radial_909_2335" cx="0" cy="0" r="1" gradientUnits="userSpaceOnUse" gradientTransform="translate(187.73 27.7552) rotate(104.598) scale(8.62774 10.0074)">
<stop offset="0.015625" stop-color="#AD6363"/>
<stop offset="1" stop-color="#652323" stop-opacity="0.45"/>
</radialGradient>
<radialGradient id="paint15_radial_909_2335" cx="0" cy="0" r="1" gradientUnits="userSpaceOnUse" gradientTransform="translate(1.73576 44.3412) rotate(104.598) scale(8.62774 10.0074)">
<stop offset="0.015625" stop-color="#AD6363"/>
<stop offset="1" stop-color="#652323" stop-opacity="0.45"/>
</radialGradient>
<radialGradient id="paint16_radial_909_2335" cx="0" cy="0" r="1" gradientUnits="userSpaceOnUse" gradientTransform="translate(30.1679 44.3412) rotate(104.598) scale(8.62774 10.0074)">
<stop offset="0.015625" stop-color="#AD6363"/>
<stop offset="1" stop-color="#652323" stop-opacity="0.45"/>
</radialGradient>
<radialGradient id="paint17_radial_909_2335" cx="0" cy="0" r="1" gradientUnits="userSpaceOnUse" gradientTransform="translate(58.6003 44.3412) rotate(104.598) scale(8.62774 10.0074)">
<stop offset="0.015625" stop-color="#AD6363"/>
<stop offset="1" stop-color="#652323" stop-opacity="0.45"/>
</radialGradient>
<radialGradient id="paint18_radial_909_2335" cx="0" cy="0" r="1" gradientUnits="userSpaceOnUse" gradientTransform="translate(87.0324 45.5252) rotate(104.598) scale(8.62774 10.0074)">
<stop offset="0.015625" stop-color="#AD6363"/>
<stop offset="1" stop-color="#652323" stop-opacity="0.45"/>
</radialGradient>
<radialGradient id="paint19_radial_909_2335" cx="0" cy="0" r="1" gradientUnits="userSpaceOnUse" gradientTransform="translate(115.465 45.5252) rotate(104.598) scale(8.62774 10.0074)">
<stop offset="0.015625" stop-color="#AD6363"/>
<stop offset="1" stop-color="#652323" stop-opacity="0.45"/>
</radialGradient>
<radialGradient id="paint20_radial_909_2335" cx="0" cy="0" r="1" gradientUnits="userSpaceOnUse" gradientTransform="translate(143.897 45.5252) rotate(104.598) scale(8.62774 10.0074)">
<stop offset="0.015625" stop-color="#AD6363"/>
<stop offset="1" stop-color="#652323" stop-opacity="0.45"/>
</radialGradient>
<radialGradient id="paint21_radial_909_2335" cx="0" cy="0" r="1" gradientUnits="userSpaceOnUse" gradientTransform="translate(172.329 45.5252) rotate(104.598) scale(8.62774 10.0074)">
<stop offset="0.015625" stop-color="#AD6363"/>
<stop offset="1" stop-color="#652323" stop-opacity="0.45"/>
</radialGradient>
<clipPath id="clip0_909_2335">
<rect width="22.0954" height="22.0954" fill="white" transform="translate(-4.06177 -4.86084) rotate(14.5978)"/>
</clipPath>
<clipPath id="clip1_909_2335">
<rect width="22.0954" height="22.0954" fill="white" transform="translate(24.3704 -4.86084) rotate(14.5978)"/>
</clipPath>
<clipPath id="clip2_909_2335">
<rect width="22.0954" height="22.0954" fill="white" transform="translate(52.8027 -4.86084) rotate(14.5978)"/>
</clipPath>
<clipPath id="clip3_909_2335">
<rect width="22.0954" height="22.0954" fill="white" transform="translate(81.2349 -3.67578) rotate(14.5978)"/>
</clipPath>
<clipPath id="clip4_909_2335">
<rect width="22.0954" height="22.0954" fill="white" transform="translate(109.667 -3.67578) rotate(14.5978)"/>
</clipPath>
<clipPath id="clip5_909_2335">
<rect width="22.0954" height="22.0954" fill="white" transform="translate(138.1 -3.67578) rotate(14.5978)"/>
</clipPath>
<clipPath id="clip6_909_2335">
<rect width="22.0954" height="22.0954" fill="white" transform="translate(166.532 -3.67578) rotate(14.5978)"/>
</clipPath>
<clipPath id="clip7_909_2335">
<rect width="22.0954" height="22.0954" fill="white" transform="translate(8.96948 14.0942) rotate(14.5978)"/>
</clipPath>
<clipPath id="clip8_909_2335">
<rect width="22.0954" height="22.0954" fill="white" transform="translate(37.4019 14.0942) rotate(14.5978)"/>
</clipPath>
<clipPath id="clip9_909_2335">
<rect width="22.0954" height="22.0954" fill="white" transform="translate(65.834 14.0942) rotate(14.5978)"/>
</clipPath>
<clipPath id="clip10_909_2335">
<rect width="22.0954" height="22.0954" fill="white" transform="translate(94.2661 15.2788) rotate(14.5978)"/>
</clipPath>
<clipPath id="clip11_909_2335">
<rect width="22.0954" height="22.0954" fill="white" transform="translate(122.698 15.2788) rotate(14.5978)"/>
</clipPath>
<clipPath id="clip12_909_2335">
<rect width="22.0954" height="22.0954" fill="white" transform="translate(151.13 15.2788) rotate(14.5978)"/>
</clipPath>
<clipPath id="clip13_909_2335">
<rect width="22.0954" height="22.0954" fill="white" transform="translate(179.563 15.2788) rotate(14.5978)"/>
</clipPath>
<clipPath id="clip14_909_2335">
<rect width="22.0954" height="22.0954" fill="white" transform="translate(-6.43115 31.8647) rotate(14.5978)"/>
</clipPath>
<clipPath id="clip15_909_2335">
<rect width="22.0954" height="22.0954" fill="white" transform="translate(22.001 31.8647) rotate(14.5978)"/>
</clipPath>
<clipPath id="clip16_909_2335">
<rect width="22.0954" height="22.0954" fill="white" transform="translate(50.4333 31.8647) rotate(14.5978)"/>
</clipPath>
<clipPath id="clip17_909_2335">
<rect width="22.0954" height="22.0954" fill="white" transform="translate(78.8655 33.0488) rotate(14.5978)"/>
</clipPath>
<clipPath id="clip18_909_2335">
<rect width="22.0954" height="22.0954" fill="white" transform="translate(107.298 33.0488) rotate(14.5978)"/>
</clipPath>
<clipPath id="clip19_909_2335">
<rect width="22.0954" height="22.0954" fill="white" transform="translate(135.73 33.0488) rotate(14.5978)"/>
</clipPath>
<clipPath id="clip20_909_2335">
<rect width="22.0954" height="22.0954" fill="white" transform="translate(164.162 33.0488) rotate(14.5978)"/>
</clipPath>
</defs>
</svg>
