<svg width="180" height="42" viewBox="0 0 180 42" fill="none" xmlns="http://www.w3.org/2000/svg">
<rect width="180" height="42" fill="#173512"/>
<mask id="mask0_909_2333" style="mask-type:alpha" maskUnits="userSpaceOnUse" x="0" y="0" width="180" height="42">
<rect width="180" height="42" fill="#D9D9D9"/>
</mask>
<g mask="url(#mask0_909_2333)">
<g filter="url(#filter0_d_909_2333)">
<circle cx="90.9016" cy="-28.0984" r="58.9016" fill="url(#paint0_radial_909_2333)"/>
</g>
<path d="M121.47 -8.9516L124.862 2.89466C125.095 3.70967 125.778 3.8927 126.388 3.30348L135.246 -5.26048C135.855 -5.8497 135.689 -6.40617 134.874 -6.50305L132.591 -6.71525C131.777 -6.81202 131.297 -7.56314 131.519 -8.39245L133.402 -15.4191C133.624 -16.2484 133.163 -17.0929 132.371 -17.305L129.985 -17.9444C129.193 -18.1566 128.371 -17.6563 128.149 -16.8266L126.266 -9.80042C126.044 -8.97111 125.252 -8.56072 124.499 -8.88398L122.413 -9.84232C121.66 -10.1653 121.237 -9.76661 121.47 -8.9516Z" fill="url(#paint1_radial_909_2333)"/>
<path d="M57.0675 -9.42963L60.4589 2.41664C60.6921 3.23165 61.3752 3.41467 61.9847 2.82546L70.8429 -5.73851C71.4524 -6.32772 71.2861 -6.8842 70.4713 -6.98107L68.1884 -7.19328C67.374 -7.29005 66.894 -8.04117 67.1163 -8.87048L68.999 -15.8971C69.2212 -16.7264 68.7598 -17.5709 67.9682 -17.7831L65.5821 -18.4224C64.7901 -18.6346 63.9683 -18.1344 63.746 -17.3046L61.8633 -10.2784C61.6411 -9.44914 60.8495 -9.03875 60.0963 -9.36201L58.0107 -10.3204C57.2569 -10.6433 56.8343 -10.2446 57.0675 -9.42963Z" fill="url(#paint2_radial_909_2333)"/>
<path d="M-5.9323 -9.42963L-2.54082 2.41664C-2.30761 3.23165 -1.62455 3.41467 -1.01508 2.82546L7.84314 -5.73851C8.45261 -6.32772 8.2863 -6.8842 7.47156 -6.98107L5.18862 -7.19328C4.37428 -7.29005 3.89429 -8.04117 4.1165 -8.87048L5.99927 -15.8971C6.22149 -16.7264 5.76006 -17.5709 4.96845 -17.7831L2.58235 -18.4224C1.79034 -18.6346 0.968565 -18.1344 0.746239 -17.3046L-1.13642 -10.2784C-1.35863 -9.44914 -2.15028 -9.03875 -2.9035 -9.36201L-4.9891 -10.3204C-5.74283 -10.6433 -6.1655 -10.2446 -5.9323 -9.42963Z" fill="url(#paint3_radial_909_2333)"/>
<path d="M143.067 -8.42963L146.459 3.41664C146.692 4.23165 147.375 4.41467 147.985 3.82546L156.843 -4.73851C157.452 -5.32772 157.286 -5.8842 156.471 -5.98107L154.188 -6.19328C153.374 -6.29005 152.894 -7.04117 153.116 -7.87048L154.999 -14.8971C155.221 -15.7264 154.76 -16.5709 153.968 -16.7831L151.582 -17.4224C150.79 -17.6346 149.968 -17.1344 149.746 -16.3046L147.863 -9.27845C147.641 -8.44914 146.849 -8.03875 146.096 -8.36201L144.011 -9.32035C143.257 -9.64329 142.834 -9.24463 143.067 -8.42963Z" fill="url(#paint4_radial_909_2333)"/>
<path d="M78.6646 -8.90765L82.0561 2.93861C82.2893 3.75362 82.9724 3.93664 83.5818 3.34743L92.4401 -5.21653C93.0495 -5.80575 92.8832 -6.36223 92.0685 -6.4591L89.7855 -6.67131C88.9712 -6.76807 88.4912 -7.5192 88.7134 -8.34851L90.5962 -15.3751C90.8184 -16.2044 90.357 -17.049 89.5654 -17.2611L87.1793 -17.9004C86.3873 -18.1127 85.5655 -17.6124 85.3432 -16.7827L83.4605 -9.75648C83.2383 -8.92717 82.4466 -8.51678 81.6934 -8.84003L79.6078 -9.79838C78.8541 -10.1213 78.4314 -9.72266 78.6646 -8.90765Z" fill="url(#paint5_radial_909_2333)"/>
<path d="M15.6649 -8.90765L19.0563 2.93861C19.2896 3.75362 19.9726 3.93664 20.5821 3.34743L29.4403 -5.21653C30.0498 -5.80575 29.8835 -6.36223 29.0687 -6.4591L26.7858 -6.67131C25.9715 -6.76807 25.4915 -7.5192 25.7137 -8.34851L27.5964 -15.3751C27.8187 -16.2044 27.3572 -17.049 26.5656 -17.2611L24.1795 -17.9004C23.3875 -18.1127 22.5657 -17.6124 22.3434 -16.7827L20.4607 -9.75648C20.2385 -8.92717 19.4469 -8.51678 18.6937 -8.84003L16.6081 -9.79838C15.8543 -10.1213 15.4317 -9.72266 15.6649 -8.90765Z" fill="url(#paint6_radial_909_2333)"/>
<path d="M165.067 -8.42963L168.459 3.41664C168.692 4.23165 169.375 4.41467 169.985 3.82546L178.843 -4.73851C179.452 -5.32772 179.286 -5.8842 178.471 -5.98107L176.188 -6.19328C175.374 -6.29005 174.894 -7.04117 175.116 -7.87048L176.999 -14.8971C177.221 -15.7264 176.76 -16.5709 175.968 -16.7831L173.582 -17.4224C172.79 -17.6346 171.968 -17.1344 171.746 -16.3046L169.863 -9.27845C169.641 -8.44914 168.849 -8.03875 168.096 -8.36201L166.011 -9.32035C165.257 -9.64329 164.834 -9.24463 165.067 -8.42963Z" fill="url(#paint7_radial_909_2333)"/>
<path d="M100.665 -8.90765L104.056 2.93861C104.289 3.75362 104.972 3.93664 105.582 3.34743L114.44 -5.21653C115.05 -5.80575 114.883 -6.36223 114.068 -6.4591L111.786 -6.67131C110.971 -6.76807 110.491 -7.5192 110.713 -8.34851L112.596 -15.3751C112.818 -16.2044 112.357 -17.049 111.565 -17.2611L109.179 -17.9004C108.387 -18.1127 107.565 -17.6124 107.343 -16.7827L105.461 -9.75648C105.238 -8.92717 104.447 -8.51678 103.693 -8.84003L101.608 -9.79838C100.854 -10.1213 100.431 -9.72266 100.665 -8.90765Z" fill="url(#paint8_radial_909_2333)"/>
<path d="M37.6649 -8.90765L41.0563 2.93861C41.2896 3.75362 41.9726 3.93664 42.5821 3.34743L51.4403 -5.21653C52.0498 -5.80575 51.8835 -6.36223 51.0687 -6.4591L48.7858 -6.67131C47.9715 -6.76807 47.4915 -7.5192 47.7137 -8.34851L49.5964 -15.3751C49.8187 -16.2044 49.3572 -17.049 48.5656 -17.2611L46.1795 -17.9004C45.3875 -18.1127 44.5657 -17.6124 44.3434 -16.7827L42.4607 -9.75648C42.2385 -8.92717 41.4469 -8.51678 40.6937 -8.84003L38.6081 -9.79838C37.8543 -10.1213 37.4317 -9.72266 37.6649 -8.90765Z" fill="url(#paint9_radial_909_2333)"/>
<path d="M130.47 10.0484L133.862 21.8947C134.095 22.7097 134.778 22.8927 135.388 22.3035L144.246 13.7395C144.855 13.1503 144.689 12.5938 143.874 12.497L141.591 12.2847C140.777 12.188 140.297 11.4369 140.519 10.6075L142.402 3.58095C142.624 2.75164 142.163 1.90708 141.371 1.69497L138.985 1.05561C138.193 0.843395 137.371 1.34367 137.149 2.1734L135.266 9.19958C135.044 10.0289 134.252 10.4393 133.499 10.116L131.413 9.15768C130.66 8.83473 130.237 9.23339 130.47 10.0484Z" fill="url(#paint10_radial_909_2333)"/>
<path d="M66.0675 9.57037L69.4589 21.4166C69.6921 22.2316 70.3752 22.4147 70.9847 21.8255L79.8429 13.2615C80.4524 12.6723 80.2861 12.1158 79.4713 12.0189L77.1884 11.8067C76.374 11.71 75.894 10.9588 76.1163 10.1295L77.999 3.10292C78.2212 2.27361 77.7598 1.42905 76.9682 1.21694L74.5821 0.577588C73.7901 0.365368 72.9683 0.865643 72.746 1.69537L70.8633 8.72155C70.6411 9.55086 69.8495 9.96125 69.0963 9.63799L67.0107 8.67965C66.2569 8.35671 65.8343 8.75537 66.0675 9.57037Z" fill="url(#paint11_radial_909_2333)"/>
<path d="M3.0677 9.57037L6.45918 21.4166C6.69239 22.2316 7.37545 22.4147 7.98492 21.8255L16.8431 13.2615C17.4526 12.6723 17.2863 12.1158 16.4716 12.0189L14.1886 11.8067C13.3743 11.71 12.8943 10.9588 13.1165 10.1295L14.9993 3.10292C15.2215 2.27361 14.7601 1.42905 13.9684 1.21694L11.5824 0.577588C10.7903 0.365368 9.96856 0.865643 9.74624 1.69537L7.86358 8.72155C7.64137 9.55086 6.84972 9.96125 6.0965 9.63799L4.0109 8.67965C3.25717 8.35671 2.8345 8.75537 3.0677 9.57037Z" fill="url(#paint12_radial_909_2333)"/>
<path d="M152.067 10.5704L155.459 22.4166C155.692 23.2316 156.375 23.4147 156.985 22.8255L165.843 14.2615C166.452 13.6723 166.286 13.1158 165.471 13.0189L163.188 12.8067C162.374 12.71 161.894 11.9588 162.116 11.1295L163.999 4.10292C164.221 3.27361 163.76 2.42905 162.968 2.21694L160.582 1.57759C159.79 1.36537 158.968 1.86564 158.746 2.69537L156.863 9.72155C156.641 10.5509 155.849 10.9612 155.096 10.638L153.011 9.67965C152.257 9.35671 151.834 9.75537 152.067 10.5704Z" fill="url(#paint13_radial_909_2333)"/>
<path d="M87.6646 10.0923L91.0561 21.9386C91.2893 22.7536 91.9724 22.9366 92.5818 22.3474L101.44 13.7835C102.05 13.1943 101.883 12.6378 101.068 12.5409L98.7855 12.3287C97.9712 12.2319 97.4912 11.4808 97.7134 10.6515L99.5962 3.62489C99.8184 2.79558 99.357 1.95103 98.5654 1.73891L96.1793 1.09956C95.3873 0.88734 94.5655 1.38762 94.3432 2.21735L92.4605 9.24352C92.2383 10.0728 91.4466 10.4832 90.6934 10.16L88.6078 9.20162C87.8541 8.87868 87.4314 9.27734 87.6646 10.0923Z" fill="url(#paint14_radial_909_2333)"/>
<path d="M24.6649 10.0923L28.0563 21.9386C28.2896 22.7536 28.9726 22.9366 29.5821 22.3474L38.4403 13.7835C39.0498 13.1943 38.8835 12.6378 38.0687 12.5409L35.7858 12.3287C34.9715 12.2319 34.4915 11.4808 34.7137 10.6515L36.5964 3.62489C36.8187 2.79558 36.3572 1.95103 35.5656 1.73891L33.1795 1.09956C32.3875 0.88734 31.5657 1.38762 31.3434 2.21735L29.4607 9.24352C29.2385 10.0728 28.4469 10.4832 27.6937 10.16L25.6081 9.20162C24.8543 8.87868 24.4317 9.27734 24.6649 10.0923Z" fill="url(#paint15_radial_909_2333)"/>
<path d="M174.067 10.5704L177.459 22.4166C177.692 23.2316 178.375 23.4147 178.985 22.8255L187.843 14.2615C188.452 13.6723 188.286 13.1158 187.471 13.0189L185.188 12.8067C184.374 12.71 183.894 11.9588 184.116 11.1295L185.999 4.10292C186.221 3.27361 185.76 2.42905 184.968 2.21694L182.582 1.57759C181.79 1.36537 180.968 1.86564 180.746 2.69537L178.863 9.72155C178.641 10.5509 177.849 10.9612 177.096 10.638L175.011 9.67965C174.257 9.35671 173.834 9.75537 174.067 10.5704Z" fill="url(#paint16_radial_909_2333)"/>
<path d="M109.665 10.0923L113.056 21.9386C113.289 22.7536 113.972 22.9366 114.582 22.3474L123.44 13.7835C124.05 13.1943 123.883 12.6378 123.068 12.5409L120.786 12.3287C119.971 12.2319 119.491 11.4808 119.713 10.6515L121.596 3.62489C121.818 2.79558 121.357 1.95103 120.565 1.73891L118.179 1.09956C117.387 0.88734 116.565 1.38762 116.343 2.21735L114.461 9.24352C114.238 10.0728 113.447 10.4832 112.693 10.16L110.608 9.20162C109.854 8.87868 109.431 9.27734 109.665 10.0923Z" fill="url(#paint17_radial_909_2333)"/>
<path d="M46.6649 10.0923L50.0563 21.9386C50.2896 22.7536 50.9726 22.9366 51.5821 22.3474L60.4403 13.7835C61.0498 13.1943 60.8835 12.6378 60.0687 12.5409L57.7858 12.3287C56.9715 12.2319 56.4915 11.4808 56.7137 10.6515L58.5964 3.62489C58.8187 2.79558 58.3572 1.95103 57.5656 1.73891L55.1795 1.09956C54.3875 0.88734 53.5657 1.38762 53.3434 2.21735L51.4607 9.24352C51.2385 10.0728 50.4469 10.4832 49.6937 10.16L47.6081 9.20162C46.8543 8.87868 46.4317 9.27734 46.6649 10.0923Z" fill="url(#paint18_radial_909_2333)"/>
<path d="M116.47 28.0484L119.862 39.8947C120.095 40.7097 120.778 40.8927 121.388 40.3035L130.246 31.7395C130.855 31.1503 130.689 30.5938 129.874 30.497L127.591 30.2847C126.777 30.188 126.297 29.4369 126.519 28.6075L128.402 21.5809C128.624 20.7516 128.163 19.9071 127.371 19.695L124.985 19.0556C124.193 18.8434 123.371 19.3437 123.149 20.1734L121.266 27.1996C121.044 28.0289 120.252 28.4393 119.499 28.116L117.413 27.1577C116.66 26.8347 116.237 27.2334 116.47 28.0484Z" fill="url(#paint19_radial_909_2333)"/>
<path d="M52.0675 27.5704L55.4589 39.4166C55.6921 40.2316 56.3752 40.4147 56.9847 39.8255L65.8429 31.2615C66.4524 30.6723 66.2861 30.1158 65.4713 30.0189L63.1884 29.8067C62.374 29.71 61.894 28.9588 62.1163 28.1295L63.999 21.1029C64.2212 20.2736 63.7598 19.4291 62.9682 19.2169L60.5821 18.5776C59.7901 18.3654 58.9683 18.8656 58.746 19.6954L56.8633 26.7216C56.6411 27.5509 55.8495 27.9612 55.0963 27.638L53.0107 26.6796C52.2569 26.3567 51.8343 26.7554 52.0675 27.5704Z" fill="url(#paint20_radial_909_2333)"/>
<path d="M-10.9323 27.5704L-7.54082 39.4166C-7.30761 40.2316 -6.62455 40.4147 -6.01508 39.8255L2.84314 31.2615C3.45261 30.6723 3.2863 30.1158 2.47156 30.0189L0.188615 29.8067C-0.625717 29.71 -1.10571 28.9588 -0.883499 28.1295L0.999273 21.1029C1.22149 20.2736 0.760062 19.4291 -0.0315513 19.2169L-2.41765 18.5776C-3.20966 18.3654 -4.03144 18.8656 -4.25376 19.6954L-6.13642 26.7216C-6.35863 27.5509 -7.15028 27.9612 -7.9035 27.638L-9.9891 26.6796C-10.7428 26.3567 -11.1655 26.7554 -10.9323 27.5704Z" fill="url(#paint21_radial_909_2333)"/>
<path d="M138.067 28.5704L141.459 40.4166C141.692 41.2316 142.375 41.4147 142.985 40.8255L151.843 32.2615C152.452 31.6723 152.286 31.1158 151.471 31.0189L149.188 30.8067C148.374 30.71 147.894 29.9588 148.116 29.1295L149.999 22.1029C150.221 21.2736 149.76 20.4291 148.968 20.2169L146.582 19.5776C145.79 19.3654 144.968 19.8656 144.746 20.6954L142.863 27.7216C142.641 28.5509 141.849 28.9612 141.096 28.638L139.011 27.6796C138.257 27.3567 137.834 27.7554 138.067 28.5704Z" fill="url(#paint22_radial_909_2333)"/>
<path d="M73.6646 28.0923L77.0561 39.9386C77.2893 40.7536 77.9724 40.9366 78.5818 40.3474L87.4401 31.7835C88.0495 31.1943 87.8832 30.6378 87.0685 30.5409L84.7855 30.3287C83.9712 30.2319 83.4912 29.4808 83.7134 28.6515L85.5962 21.6249C85.8184 20.7956 85.357 19.951 84.5654 19.7389L82.1793 19.0996C81.3873 18.8873 80.5655 19.3876 80.3432 20.2173L78.4605 27.2435C78.2383 28.0728 77.4466 28.4832 76.6934 28.16L74.6078 27.2016C73.8541 26.8787 73.4314 27.2773 73.6646 28.0923Z" fill="url(#paint23_radial_909_2333)"/>
<path d="M10.6649 28.0923L14.0563 39.9386C14.2896 40.7536 14.9726 40.9366 15.5821 40.3474L24.4403 31.7835C25.0498 31.1943 24.8835 30.6378 24.0687 30.5409L21.7858 30.3287C20.9715 30.2319 20.4915 29.4808 20.7137 28.6515L22.5964 21.6249C22.8187 20.7956 22.3572 19.951 21.5656 19.7389L19.1795 19.0996C18.3875 18.8873 17.5657 19.3876 17.3434 20.2173L15.4607 27.2435C15.2385 28.0728 14.4469 28.4832 13.6937 28.16L11.6081 27.2016C10.8543 26.8787 10.4317 27.2773 10.6649 28.0923Z" fill="url(#paint24_radial_909_2333)"/>
<path d="M160.067 28.5704L163.459 40.4166C163.692 41.2316 164.375 41.4147 164.985 40.8255L173.843 32.2615C174.452 31.6723 174.286 31.1158 173.471 31.0189L171.188 30.8067C170.374 30.71 169.894 29.9588 170.116 29.1295L171.999 22.1029C172.221 21.2736 171.76 20.4291 170.968 20.2169L168.582 19.5776C167.79 19.3654 166.968 19.8656 166.746 20.6954L164.863 27.7216C164.641 28.5509 163.849 28.9612 163.096 28.638L161.011 27.6796C160.257 27.3567 159.834 27.7554 160.067 28.5704Z" fill="url(#paint25_radial_909_2333)"/>
<path d="M95.6646 28.0923L99.0561 39.9386C99.2893 40.7536 99.9724 40.9366 100.582 40.3474L109.44 31.7835C110.05 31.1943 109.883 30.6378 109.068 30.5409L106.786 30.3287C105.971 30.2319 105.491 29.4808 105.713 28.6515L107.596 21.6249C107.818 20.7956 107.357 19.951 106.565 19.7389L104.179 19.0996C103.387 18.8873 102.565 19.3876 102.343 20.2173L100.461 27.2435C100.238 28.0728 99.4466 28.4832 98.6934 28.16L96.6078 27.2016C95.8541 26.8787 95.4314 27.2773 95.6646 28.0923Z" fill="url(#paint26_radial_909_2333)"/>
<path d="M32.6649 28.0923L36.0563 39.9386C36.2896 40.7536 36.9726 40.9366 37.5821 40.3474L46.4403 31.7835C47.0498 31.1943 46.8835 30.6378 46.0687 30.5409L43.7858 30.3287C42.9715 30.2319 42.4915 29.4808 42.7137 28.6515L44.5964 21.6249C44.8187 20.7956 44.3572 19.951 43.5656 19.7389L41.1795 19.0996C40.3875 18.8873 39.5657 19.3876 39.3434 20.2173L37.4607 27.2435C37.2385 28.0728 36.4469 28.4832 35.6937 28.16L33.6081 27.2016C32.8543 26.8787 32.4317 27.2773 32.6649 28.0923Z" fill="url(#paint27_radial_909_2333)"/>
<path d="M125.47 45.0484L128.862 56.8947C129.095 57.7097 129.778 57.8927 130.388 57.3035L139.246 48.7395C139.855 48.1503 139.689 47.5938 138.874 47.497L136.591 47.2847C135.777 47.188 135.297 46.4369 135.519 45.6075L137.402 38.5809C137.624 37.7516 137.163 36.9071 136.371 36.695L133.985 36.0556C133.193 35.8434 132.371 36.3437 132.149 37.1734L130.266 44.1996C130.044 45.0289 129.252 45.4393 128.499 45.116L126.413 44.1577C125.66 43.8347 125.237 44.2334 125.47 45.0484Z" fill="url(#paint28_radial_909_2333)"/>
<path d="M61.0675 44.5704L64.4589 56.4166C64.6921 57.2316 65.3752 57.4147 65.9847 56.8255L74.8429 48.2615C75.4524 47.6723 75.2861 47.1158 74.4713 47.0189L72.1884 46.8067C71.374 46.71 70.894 45.9588 71.1163 45.1295L72.999 38.1029C73.2212 37.2736 72.7598 36.4291 71.9682 36.2169L69.5821 35.5776C68.7901 35.3654 67.9683 35.8656 67.746 36.6954L65.8633 43.7216C65.6411 44.5509 64.8495 44.9612 64.0963 44.638L62.0107 43.6796C61.2569 43.3567 60.8343 43.7554 61.0675 44.5704Z" fill="url(#paint29_radial_909_2333)"/>
<path d="M-1.9323 44.5704L1.45918 56.4166C1.69239 57.2316 2.37545 57.4147 2.98492 56.8255L11.8431 48.2615C12.4526 47.6723 12.2863 47.1158 11.4716 47.0189L9.18862 46.8067C8.37428 46.71 7.89429 45.9588 8.1165 45.1295L9.99927 38.1029C10.2215 37.2736 9.76006 36.4291 8.96845 36.2169L6.58235 35.5776C5.79034 35.3654 4.96856 35.8656 4.74624 36.6954L2.86358 43.7216C2.64137 44.5509 1.84972 44.9612 1.0965 44.638L-0.989102 43.6796C-1.74283 43.3567 -2.1655 43.7554 -1.9323 44.5704Z" fill="url(#paint30_radial_909_2333)"/>
<path d="M147.067 45.5704L150.459 57.4166C150.692 58.2316 151.375 58.4147 151.985 57.8255L160.843 49.2615C161.452 48.6723 161.286 48.1158 160.471 48.0189L158.188 47.8067C157.374 47.71 156.894 46.9588 157.116 46.1295L158.999 39.1029C159.221 38.2736 158.76 37.4291 157.968 37.2169L155.582 36.5776C154.79 36.3654 153.968 36.8656 153.746 37.6954L151.863 44.7216C151.641 45.5509 150.849 45.9612 150.096 45.638L148.011 44.6796C147.257 44.3567 146.834 44.7554 147.067 45.5704Z" fill="url(#paint31_radial_909_2333)"/>
<path d="M82.6646 45.0923L86.0561 56.9386C86.2893 57.7536 86.9724 57.9366 87.5818 57.3474L96.4401 48.7835C97.0495 48.1943 96.8832 47.6378 96.0685 47.5409L93.7855 47.3287C92.9712 47.2319 92.4912 46.4808 92.7134 45.6515L94.5962 38.6249C94.8184 37.7956 94.357 36.951 93.5654 36.7389L91.1793 36.0996C90.3873 35.8873 89.5655 36.3876 89.3432 37.2173L87.4605 44.2435C87.2383 45.0728 86.4466 45.4832 85.6934 45.16L83.6078 44.2016C82.8541 43.8787 82.4314 44.2773 82.6646 45.0923Z" fill="url(#paint32_radial_909_2333)"/>
<path d="M19.6649 45.0923L23.0563 56.9386C23.2896 57.7536 23.9726 57.9366 24.5821 57.3474L33.4403 48.7835C34.0498 48.1943 33.8835 47.6378 33.0687 47.5409L30.7858 47.3287C29.9715 47.2319 29.4915 46.4808 29.7137 45.6515L31.5964 38.6249C31.8187 37.7956 31.3572 36.951 30.5656 36.7389L28.1795 36.0996C27.3875 35.8873 26.5657 36.3876 26.3434 37.2173L24.4607 44.2435C24.2385 45.0728 23.4469 45.4832 22.6937 45.16L20.6081 44.2016C19.8543 43.8787 19.4317 44.2773 19.6649 45.0923Z" fill="url(#paint33_radial_909_2333)"/>
<path d="M169.067 45.5704L172.459 57.4166C172.692 58.2316 173.375 58.4147 173.985 57.8255L182.843 49.2615C183.452 48.6723 183.286 48.1158 182.471 48.0189L180.188 47.8067C179.374 47.71 178.894 46.9588 179.116 46.1295L180.999 39.1029C181.221 38.2736 180.76 37.4291 179.968 37.2169L177.582 36.5776C176.79 36.3654 175.968 36.8656 175.746 37.6954L173.863 44.7216C173.641 45.5509 172.849 45.9612 172.096 45.638L170.011 44.6796C169.257 44.3567 168.834 44.7554 169.067 45.5704Z" fill="url(#paint34_radial_909_2333)"/>
<path d="M104.665 45.0923L108.056 56.9386C108.289 57.7536 108.972 57.9366 109.582 57.3474L118.44 48.7835C119.05 48.1943 118.883 47.6378 118.068 47.5409L115.786 47.3287C114.971 47.2319 114.491 46.4808 114.713 45.6515L116.596 38.6249C116.818 37.7956 116.357 36.951 115.565 36.7389L113.179 36.0996C112.387 35.8873 111.565 36.3876 111.343 37.2173L109.461 44.2435C109.238 45.0728 108.447 45.4832 107.693 45.16L105.608 44.2016C104.854 43.8787 104.431 44.2773 104.665 45.0923Z" fill="url(#paint35_radial_909_2333)"/>
<path d="M41.6649 45.0923L45.0563 56.9386C45.2896 57.7536 45.9726 57.9366 46.5821 57.3474L55.4403 48.7835C56.0498 48.1943 55.8835 47.6378 55.0687 47.5409L52.7858 47.3287C51.9715 47.2319 51.4915 46.4808 51.7137 45.6515L53.5964 38.6249C53.8187 37.7956 53.3572 36.951 52.5656 36.7389L50.1795 36.0996C49.3875 35.8873 48.5657 36.3876 48.3434 37.2173L46.4607 44.2435C46.2385 45.0728 45.4469 45.4832 44.6937 45.16L42.6081 44.2016C41.8543 43.8787 41.4317 44.2773 41.6649 45.0923Z" fill="url(#paint36_radial_909_2333)"/>
</g>
<defs>
<filter id="filter0_d_909_2333" x="17" y="-100" width="147.803" height="147.803" filterUnits="userSpaceOnUse" color-interpolation-filters="sRGB">
<feFlood flood-opacity="0" result="BackgroundImageFix"/>
<feColorMatrix in="SourceAlpha" type="matrix" values="0 0 0 0 0 0 0 0 0 0 0 0 0 0 0 0 0 0 127 0" result="hardAlpha"/>
<feOffset dy="2"/>
<feGaussianBlur stdDeviation="7.5"/>
<feComposite in2="hardAlpha" operator="out"/>
<feColorMatrix type="matrix" values="0 0 0 0 0.320863 0 0 0 0 0.862745 0 0 0 0 0.309804 0 0 0 0.14 0"/>
<feBlend mode="normal" in2="BackgroundImageFix" result="effect1_dropShadow_909_2333"/>
<feBlend mode="normal" in="SourceGraphic" in2="effect1_dropShadow_909_2333" result="shape"/>
</filter>
<radialGradient id="paint0_radial_909_2333" cx="0" cy="0" r="1" gradientUnits="userSpaceOnUse" gradientTransform="translate(91 -45) rotate(90.0744) scale(75.8033)">
<stop stop-color="#2A8B34"/>
<stop offset="1" stop-color="#245C1B"/>
</radialGradient>
<radialGradient id="paint1_radial_909_2333" cx="0" cy="0" r="1" gradientUnits="userSpaceOnUse" gradientTransform="translate(128.33 -6.99984) rotate(-75) scale(11.0001 7.32968)">
<stop offset="0.015625" stop-color="#45803B"/>
<stop offset="1" stop-color="#306523" stop-opacity="0.45"/>
</radialGradient>
<radialGradient id="paint2_radial_909_2333" cx="0" cy="0" r="1" gradientUnits="userSpaceOnUse" gradientTransform="translate(63.9268 -7.47786) rotate(-75) scale(11.0001 7.32968)">
<stop offset="0.015625" stop-color="#45803B"/>
<stop offset="1" stop-color="#306523" stop-opacity="0.45"/>
</radialGradient>
<radialGradient id="paint3_radial_909_2333" cx="0" cy="0" r="1" gradientUnits="userSpaceOnUse" gradientTransform="translate(0.927009 -7.47786) rotate(-75) scale(11.0001 7.32968)">
<stop offset="0.015625" stop-color="#45803B"/>
<stop offset="1" stop-color="#306523" stop-opacity="0.45"/>
</radialGradient>
<radialGradient id="paint4_radial_909_2333" cx="0" cy="0" r="1" gradientUnits="userSpaceOnUse" gradientTransform="translate(149.927 -6.47786) rotate(-75) scale(11.0001 7.32968)">
<stop offset="0.015625" stop-color="#45803B"/>
<stop offset="1" stop-color="#306523" stop-opacity="0.45"/>
</radialGradient>
<radialGradient id="paint5_radial_909_2333" cx="0" cy="0" r="1" gradientUnits="userSpaceOnUse" gradientTransform="translate(85.5239 -6.95589) rotate(-75) scale(11.0001 7.32968)">
<stop offset="0.015625" stop-color="#45803B"/>
<stop offset="1" stop-color="#306523" stop-opacity="0.45"/>
</radialGradient>
<radialGradient id="paint6_radial_909_2333" cx="0" cy="0" r="1" gradientUnits="userSpaceOnUse" gradientTransform="translate(22.5242 -6.95589) rotate(-75) scale(11.0001 7.32968)">
<stop offset="0.015625" stop-color="#45803B"/>
<stop offset="1" stop-color="#306523" stop-opacity="0.45"/>
</radialGradient>
<radialGradient id="paint7_radial_909_2333" cx="0" cy="0" r="1" gradientUnits="userSpaceOnUse" gradientTransform="translate(171.927 -6.47786) rotate(-75) scale(11.0001 7.32968)">
<stop offset="0.015625" stop-color="#45803B"/>
<stop offset="1" stop-color="#306523" stop-opacity="0.45"/>
</radialGradient>
<radialGradient id="paint8_radial_909_2333" cx="0" cy="0" r="1" gradientUnits="userSpaceOnUse" gradientTransform="translate(107.524 -6.95589) rotate(-75) scale(11.0001 7.32968)">
<stop offset="0.015625" stop-color="#45803B"/>
<stop offset="1" stop-color="#306523" stop-opacity="0.45"/>
</radialGradient>
<radialGradient id="paint9_radial_909_2333" cx="0" cy="0" r="1" gradientUnits="userSpaceOnUse" gradientTransform="translate(44.5242 -6.95589) rotate(-75) scale(11.0001 7.32968)">
<stop offset="0.015625" stop-color="#45803B"/>
<stop offset="1" stop-color="#306523" stop-opacity="0.45"/>
</radialGradient>
<radialGradient id="paint10_radial_909_2333" cx="0" cy="0" r="1" gradientUnits="userSpaceOnUse" gradientTransform="translate(137.33 12.0002) rotate(-75) scale(11.0001 7.32968)">
<stop offset="0.015625" stop-color="#45803B"/>
<stop offset="1" stop-color="#306523" stop-opacity="0.45"/>
</radialGradient>
<radialGradient id="paint11_radial_909_2333" cx="0" cy="0" r="1" gradientUnits="userSpaceOnUse" gradientTransform="translate(72.9268 11.5221) rotate(-75) scale(11.0001 7.32968)">
<stop offset="0.015625" stop-color="#45803B"/>
<stop offset="1" stop-color="#306523" stop-opacity="0.45"/>
</radialGradient>
<radialGradient id="paint12_radial_909_2333" cx="0" cy="0" r="1" gradientUnits="userSpaceOnUse" gradientTransform="translate(9.92701 11.5221) rotate(-75) scale(11.0001 7.32968)">
<stop offset="0.015625" stop-color="#45803B"/>
<stop offset="1" stop-color="#306523" stop-opacity="0.45"/>
</radialGradient>
<radialGradient id="paint13_radial_909_2333" cx="0" cy="0" r="1" gradientUnits="userSpaceOnUse" gradientTransform="translate(158.927 12.5221) rotate(-75) scale(11.0001 7.32968)">
<stop offset="0.015625" stop-color="#45803B"/>
<stop offset="1" stop-color="#306523" stop-opacity="0.45"/>
</radialGradient>
<radialGradient id="paint14_radial_909_2333" cx="0" cy="0" r="1" gradientUnits="userSpaceOnUse" gradientTransform="translate(94.5239 12.0441) rotate(-75) scale(11.0001 7.32968)">
<stop offset="0.015625" stop-color="#45803B"/>
<stop offset="1" stop-color="#306523" stop-opacity="0.45"/>
</radialGradient>
<radialGradient id="paint15_radial_909_2333" cx="0" cy="0" r="1" gradientUnits="userSpaceOnUse" gradientTransform="translate(31.5242 12.0441) rotate(-75) scale(11.0001 7.32968)">
<stop offset="0.015625" stop-color="#45803B"/>
<stop offset="1" stop-color="#306523" stop-opacity="0.45"/>
</radialGradient>
<radialGradient id="paint16_radial_909_2333" cx="0" cy="0" r="1" gradientUnits="userSpaceOnUse" gradientTransform="translate(180.927 12.5221) rotate(-75) scale(11.0001 7.32968)">
<stop offset="0.015625" stop-color="#45803B"/>
<stop offset="1" stop-color="#306523" stop-opacity="0.45"/>
</radialGradient>
<radialGradient id="paint17_radial_909_2333" cx="0" cy="0" r="1" gradientUnits="userSpaceOnUse" gradientTransform="translate(116.524 12.0441) rotate(-75) scale(11.0001 7.32968)">
<stop offset="0.015625" stop-color="#45803B"/>
<stop offset="1" stop-color="#306523" stop-opacity="0.45"/>
</radialGradient>
<radialGradient id="paint18_radial_909_2333" cx="0" cy="0" r="1" gradientUnits="userSpaceOnUse" gradientTransform="translate(53.5242 12.0441) rotate(-75) scale(11.0001 7.32968)">
<stop offset="0.015625" stop-color="#45803B"/>
<stop offset="1" stop-color="#306523" stop-opacity="0.45"/>
</radialGradient>
<radialGradient id="paint19_radial_909_2333" cx="0" cy="0" r="1" gradientUnits="userSpaceOnUse" gradientTransform="translate(123.33 30.0002) rotate(-75) scale(11.0001 7.32968)">
<stop offset="0.015625" stop-color="#45803B"/>
<stop offset="1" stop-color="#306523" stop-opacity="0.45"/>
</radialGradient>
<radialGradient id="paint20_radial_909_2333" cx="0" cy="0" r="1" gradientUnits="userSpaceOnUse" gradientTransform="translate(58.9268 29.5221) rotate(-75) scale(11.0001 7.32968)">
<stop offset="0.015625" stop-color="#45803B"/>
<stop offset="1" stop-color="#306523" stop-opacity="0.45"/>
</radialGradient>
<radialGradient id="paint21_radial_909_2333" cx="0" cy="0" r="1" gradientUnits="userSpaceOnUse" gradientTransform="translate(-4.07299 29.5221) rotate(-75) scale(11.0001 7.32968)">
<stop offset="0.015625" stop-color="#45803B"/>
<stop offset="1" stop-color="#306523" stop-opacity="0.45"/>
</radialGradient>
<radialGradient id="paint22_radial_909_2333" cx="0" cy="0" r="1" gradientUnits="userSpaceOnUse" gradientTransform="translate(144.927 30.5221) rotate(-75) scale(11.0001 7.32968)">
<stop offset="0.015625" stop-color="#45803B"/>
<stop offset="1" stop-color="#306523" stop-opacity="0.45"/>
</radialGradient>
<radialGradient id="paint23_radial_909_2333" cx="0" cy="0" r="1" gradientUnits="userSpaceOnUse" gradientTransform="translate(80.5239 30.0441) rotate(-75) scale(11.0001 7.32968)">
<stop offset="0.015625" stop-color="#45803B"/>
<stop offset="1" stop-color="#306523" stop-opacity="0.45"/>
</radialGradient>
<radialGradient id="paint24_radial_909_2333" cx="0" cy="0" r="1" gradientUnits="userSpaceOnUse" gradientTransform="translate(17.5242 30.0441) rotate(-75) scale(11.0001 7.32968)">
<stop offset="0.015625" stop-color="#45803B"/>
<stop offset="1" stop-color="#306523" stop-opacity="0.45"/>
</radialGradient>
<radialGradient id="paint25_radial_909_2333" cx="0" cy="0" r="1" gradientUnits="userSpaceOnUse" gradientTransform="translate(166.927 30.5221) rotate(-75) scale(11.0001 7.32968)">
<stop offset="0.015625" stop-color="#45803B"/>
<stop offset="1" stop-color="#306523" stop-opacity="0.45"/>
</radialGradient>
<radialGradient id="paint26_radial_909_2333" cx="0" cy="0" r="1" gradientUnits="userSpaceOnUse" gradientTransform="translate(102.524 30.0441) rotate(-75) scale(11.0001 7.32968)">
<stop offset="0.015625" stop-color="#45803B"/>
<stop offset="1" stop-color="#306523" stop-opacity="0.45"/>
</radialGradient>
<radialGradient id="paint27_radial_909_2333" cx="0" cy="0" r="1" gradientUnits="userSpaceOnUse" gradientTransform="translate(39.5242 30.0441) rotate(-75) scale(11.0001 7.32968)">
<stop offset="0.015625" stop-color="#45803B"/>
<stop offset="1" stop-color="#306523" stop-opacity="0.45"/>
</radialGradient>
<radialGradient id="paint28_radial_909_2333" cx="0" cy="0" r="1" gradientUnits="userSpaceOnUse" gradientTransform="translate(132.33 47.0002) rotate(-75) scale(11.0001 7.32968)">
<stop offset="0.015625" stop-color="#45803B"/>
<stop offset="1" stop-color="#306523" stop-opacity="0.45"/>
</radialGradient>
<radialGradient id="paint29_radial_909_2333" cx="0" cy="0" r="1" gradientUnits="userSpaceOnUse" gradientTransform="translate(67.9268 46.5221) rotate(-75) scale(11.0001 7.32968)">
<stop offset="0.015625" stop-color="#45803B"/>
<stop offset="1" stop-color="#306523" stop-opacity="0.45"/>
</radialGradient>
<radialGradient id="paint30_radial_909_2333" cx="0" cy="0" r="1" gradientUnits="userSpaceOnUse" gradientTransform="translate(4.92701 46.5221) rotate(-75) scale(11.0001 7.32968)">
<stop offset="0.015625" stop-color="#45803B"/>
<stop offset="1" stop-color="#306523" stop-opacity="0.45"/>
</radialGradient>
<radialGradient id="paint31_radial_909_2333" cx="0" cy="0" r="1" gradientUnits="userSpaceOnUse" gradientTransform="translate(153.927 47.5221) rotate(-75) scale(11.0001 7.32968)">
<stop offset="0.015625" stop-color="#45803B"/>
<stop offset="1" stop-color="#306523" stop-opacity="0.45"/>
</radialGradient>
<radialGradient id="paint32_radial_909_2333" cx="0" cy="0" r="1" gradientUnits="userSpaceOnUse" gradientTransform="translate(89.5239 47.0441) rotate(-75) scale(11.0001 7.32968)">
<stop offset="0.015625" stop-color="#45803B"/>
<stop offset="1" stop-color="#306523" stop-opacity="0.45"/>
</radialGradient>
<radialGradient id="paint33_radial_909_2333" cx="0" cy="0" r="1" gradientUnits="userSpaceOnUse" gradientTransform="translate(26.5242 47.0441) rotate(-75) scale(11.0001 7.32968)">
<stop offset="0.015625" stop-color="#45803B"/>
<stop offset="1" stop-color="#306523" stop-opacity="0.45"/>
</radialGradient>
<radialGradient id="paint34_radial_909_2333" cx="0" cy="0" r="1" gradientUnits="userSpaceOnUse" gradientTransform="translate(175.927 47.5221) rotate(-75) scale(11.0001 7.32968)">
<stop offset="0.015625" stop-color="#45803B"/>
<stop offset="1" stop-color="#306523" stop-opacity="0.45"/>
</radialGradient>
<radialGradient id="paint35_radial_909_2333" cx="0" cy="0" r="1" gradientUnits="userSpaceOnUse" gradientTransform="translate(111.524 47.0441) rotate(-75) scale(11.0001 7.32968)">
<stop offset="0.015625" stop-color="#45803B"/>
<stop offset="1" stop-color="#306523" stop-opacity="0.45"/>
</radialGradient>
<radialGradient id="paint36_radial_909_2333" cx="0" cy="0" r="1" gradientUnits="userSpaceOnUse" gradientTransform="translate(48.5242 47.0441) rotate(-75) scale(11.0001 7.32968)">
<stop offset="0.015625" stop-color="#45803B"/>
<stop offset="1" stop-color="#306523" stop-opacity="0.45"/>
</radialGradient>
</defs>
</svg>
